<?xml version="1.0" encoding="UTF-8"?>
<svg id="Layer_1" data-name="Layer 1" xmlns="http://www.w3.org/2000/svg" viewBox="0 0 1024 1024">
  <path d="M800,377h-288c-74.56,0-135,60.44-135,135s60.44,135,135,135h288c74.56,0,135-60.44,135-135s-60.44-135-135-135Zm68,65.69c1.31,8.85,2.45,17.7,2.94,26.4l-19.12,1.11c-.65-8.69-1.47-17.7-2.78-26.4l18.96-1.11Zm-22.88,1.26c1.14,8.85,1.96,17.7,2.62,26.4l-19.12,.95c-.49-8.69-1.47-17.7-2.62-26.56l19.12-.79Zm-265.94,23.08c0,19.44-.33,60.86-2.13,79.67-2.45,25.92-12.09,33.35-42.33,35.09-8.17,.47-14.38,.63-18.14,.63l-7.36-32.72c3.6,0,7.52-.16,11.28-.32,14.06-.47,17.33-2.69,18.47-18.18,.82-10.43,.98-24.18,.98-33.2h-19.61c-5.23,39.68-21.25,64.33-59.01,85.99l-25.82-31.46c30.24-13.59,41.03-33.51,45.11-54.53h-34.65v-34.3h37.76c.33-7.9,.49-17.86,.49-23.24l39.39,.32c-.16,7.11-.33,14.86-.65,22.92h25.17c-.49-7.11-1.31-14.38-2.29-21.65l19.12-.79c.98,8.22,1.8,16.28,2.45,24.34h4.09c-.65-8.06-1.47-16.44-2.62-24.5l18.96-1.11c1.31,8.85,2.45,17.7,2.94,26.4l-11.6,.63Zm150.7,59.91h-125.2v-38.88h125.2v38.88Zm130.27,17.23c-14.55-7.11-38.74-16.44-62.44-23.87v62.28h-41.52v-140.05h41.52v39.2c25.99,6.96,54.43,15.65,78.78,25.61l-16.35,36.83Z"/>
  <path d="M224,377c-74.56,0-135,60.44-135,135s60.44,135,135,135,135-60.44,135-135-60.44-135-135-135Zm9,216h-18l-90-144,81,68.21,18,30.32,18-30.32,81-68.21-90,144Z"/>
</svg>