0
SECTION
2
HEADER
9
$INSUNITS
70
4
9
$ACADVER
1
AC1014
9
$HANDSEED
5
FFFF
0
ENDSEC
0
SECTION
2
TABLES
0
TABLE
2
VPORT
5
8
100
AcDbSymbolTable
0
ENDTAB
0
TABLE
2
LTYPE
5
5
100
AcDbSymbolTable
0
LTYPE
5
14
100
AcDbSymbolTableRecord
100
AcDbLinetypeTableRecord
2
BYBLOCK
70
0
0
LTYPE
5
15
100
AcDbSymbolTableRecord
100
AcDbLinetypeTableRecord
2
BYLAYER
70
0
0
ENDTAB
0
TABLE
2
LAYER
5
2
100
AcDbSymbolTable
70
2
0
LAYER
5
50
100
AcDbSymbolTableRecord
100
AcDbLayerTableRecord
2
0
70
0
6
CONTINUOUS
0
ENDTAB
0
TABLE
2
STYLE
5
3
100
AcDbSymbolTable
70
1
0
STYLE
5
11
100
AcDbSymbolTableRecord
100
AcDbTextStyleTableRecord
2
STANDARD
70
0
0
ENDTAB
0
TABLE
2
VIEW
5
6
100
AcDbSymbolTable
70
0
0
ENDTAB
0
TABLE
2
UCS
5
7
100
AcDbSymbolTable
70
0
0
ENDTAB
0
TABLE
2
APPID
5
9
100
AcDbSymbolTable
70
2
0
APPID
5
12
100
AcDbSymbolTableRecord
100
AcDbRegAppTableRecord
2
ACAD
70
0
0
ENDTAB
0
TABLE
2
DIMSTYLE
5
A
100
AcDbSymbolTable
70
1
0
ENDTAB
0
TABLE
2
BLOCK_RECORD
5
1
100
AcDbSymbolTable
70
1
0
BLOCK_RECORD
5
1F
100
AcDbSymbolTableRecord
100
AcDbBlockTableRecord
2
*MODEL_SPACE
0
BLOCK_RECORD
5
1B
100
AcDbSymbolTableRecord
100
AcDbBlockTableRecord
2
*PAPER_SPACE
0
ENDTAB
0
ENDSEC
0
SECTION
2
BLOCKS
0
BLOCK
5
20
100
AcDbEntity
100
AcDbBlockBegin
2
*MODEL_SPACE
0
ENDBLK
5
21
100
AcDbEntity
100
AcDbBlockEnd
0
BLOCK
5
1C
100
AcDbEntity
100
AcDbBlockBegin
2
*PAPER_SPACE
0
ENDBLK
5
1D
100
AcDbEntity
100
AcDbBlockEnd
0
ENDSEC
0
SECTION
2
ENTITIES
0
LINE
5
100
100
AcDbEntity
8
0
100
AcDbLine
10
42.080503426422062
20
10.901782095730027
30
0
11
42.080503426422062
21
-10.901780192745258
31
0
0
ARC
5
101
100
AcDbEntity
8
0
100
AcDbCircle
10
52.080503426422069
20
-10.901780192745253
30
0
40
10.000000000000009
210
0
220
0
230
1
100
AcDbArc
50
180
51
269.99999999999983
0
LINE
5
102
100
AcDbEntity
8
0
100
AcDbLine
10
52.080503426422034
20
-20.901780192745257
30
0
11
81.270544109353949
21
-20.901780192745328
31
0
0
CIRCLE
5
103
100
AcDbEntity
8
0
100
AcDbCircle
10
28.257462549701721
20
27.245480965329733
30
-0.00029999999999109997
40
1.6000000000000012
210
0
220
0
230
1
0
CIRCLE
5
104
100
AcDbEntity
8
0
100
AcDbCircle
10
28.257462549701664
20
-27.245480965329733
30
-0.00030000000003060001
40
1.6000000000000023
210
0
220
0
230
1
0
CIRCLE
5
105
100
AcDbEntity
8
0
100
AcDbCircle
10
28.257462549701721
20
27.245480965329733
30
-0.00029999999999109997
40
1.6000000000000041
210
0
220
0
230
1
0
CIRCLE
5
106
100
AcDbEntity
8
0
100
AcDbCircle
10
-81.270543526268057
20
24.901782095730042
30
0
40
1.499999999999998
210
0
220
0
230
1
0
CIRCLE
5
107
100
AcDbEntity
8
0
100
AcDbCircle
10
81.270544109353992
20
-24.901780192745328
30
0
40
1.5000000000000002
210
0
220
0
230
1
0
CIRCLE
5
108
100
AcDbEntity
8
0
100
AcDbCircle
10
-28.2574625497017
20
-27.245480965329708
30
-0.00030000000003060001
40
1.6000000000000012
210
0
220
0
230
1
0
CIRCLE
5
109
100
AcDbEntity
8
0
100
AcDbCircle
10
28.257462549701664
20
-27.245480965329733
30
-0.00030000000003060001
40
1.6000000000000012
210
0
220
0
230
1
0
CIRCLE
5
110
100
AcDbEntity
8
0
100
AcDbCircle
10
0
20
0
30
0
40
1.5000000000000002
210
0
220
0
230
1
0
LINE
5
111
100
AcDbEntity
8
0
100
AcDbLine
10
51.866667013962072
20
20.901782095730042
30
0
11
52.888100241332353
21
20.901782095730042
31
0
0
LINE
5
112
100
AcDbEntity
8
0
100
AcDbLine
10
52.888100241332353
20
20.901782095730042
30
0
11
81.270543526268057
21
20.901782095730042
31
0
0
LINE
5
113
100
AcDbEntity
8
0
100
AcDbLine
10
81.270543526268057
20
20.901782095730042
30
0
11
52.080503426422062
21
20.901782095730034
31
0
0
CIRCLE
5
114
100
AcDbEntity
8
0
100
AcDbCircle
10
-81.270544109353992
20
-24.901780192745328
30
0
40
1.5000000000000022
210
0
220
0
230
1
0
CIRCLE
5
115
100
AcDbEntity
8
0
100
AcDbCircle
10
-28.2574625497017
20
-27.245480965329708
30
-0.00030000000003060001
40
1.6000000000000012
210
0
220
0
230
1
0
CIRCLE
5
116
100
AcDbEntity
8
0
100
AcDbCircle
10
81.270543526268057
20
24.901782095730042
30
0
40
1.5000000000000036
210
0
220
0
230
1
0
CIRCLE
5
117
100
AcDbEntity
8
0
100
AcDbCircle
10
28.257462549701721
20
27.245480965329733
30
-0.00029999999999109997
40
1.6000000000000012
210
0
220
0
230
1
0
CIRCLE
5
118
100
AcDbEntity
8
0
100
AcDbCircle
10
-28.257462549701664
20
27.245480965329733
30
-0.00030000000003060001
40
1.6000000000000023
210
0
220
0
230
1
0
ARC
5
119
100
AcDbEntity
8
0
100
AcDbCircle
10
52.080503426422055
20
10.90178209573004
30
0
40
9.9999999999999929
210
0
220
-0
230
1
100
AcDbArc
50
89.999999999999972
51
180
0
ARC
5
120
100
AcDbEntity
8
0
100
AcDbCircle
10
21.100947846009099
20
-30.999999999999911
30
0
40
10.000000000000128
210
-0
220
0
230
1
100
AcDbArc
50
270.00000000000034
51
304.24216870256606
0
ARC
5
121
100
AcDbEntity
8
0
100
AcDbCircle
10
42.342665806752571
20
-38.901779960844038
30
0
40
10.000000000000027
210
0
220
-0
230
1
100
AcDbArc
50
89.999999658677368
51
137.42515481309212
0
ARC
5
122
100
AcDbEntity
8
0
100
AcDbCircle
10
-8.1712414612411521e-13
20
-1.0391687510491465e-12
30
0
40
47.499999999998707
210
0
220
0
230
1
100
AcDbArc
50
222.57484514944545
51
235.7578312974336
0
ARC
5
123
100
AcDbEntity
8
0
100
AcDbCircle
10
81.27054409743954
20
-24.901780192745321
30
0
40
4.000000000000008
210
0
220
-0
230
-1
100
AcDbArc
50
-90.00000017066094
51
89.999999829339075
0
ARC
5
124
100
AcDbEntity
8
0
100
AcDbCircle
10
3.0198066269804258e-13
20
-3.0642155479654321e-13
30
0
40
47.499999999999574
210
-0
220
0
230
1
100
AcDbArc
50
304.24216870256623
51
317.42515485055424
0
ARC
5
125
100
AcDbEntity
8
0
100
AcDbCircle
10
81.270543526268057
20
24.901782095730045
30
0
40
4.0000000000000036
210
-0
220
-0
230
-1
100
AcDbArc
50
-90
51
90
0
LINE
5
126
100
AcDbEntity
8
0
100
AcDbLine
10
52.888100633593069
20
-20.901780192745321
30
0
11
51.866667413947724
21
-20.901780192745328
31
0
0
LINE
5
127
100
AcDbEntity
8
0
100
AcDbLine
10
42.342665832187976
20
28.901782095730034
30
0
11
81.270543526268057
21
28.901782095730034
31
0
0
ARC
5
128
100
AcDbEntity
8
0
100
AcDbCircle
10
-42.342665806752571
20
-38.901779960844102
30
0
40
10.000000000000078
210
0
220
-0
230
1
100
AcDbArc
50
42.574845186908064
51
90.000000341322476
0
LINE
5
129
100
AcDbEntity
8
0
100
AcDbLine
10
-81.270544109353921
20
-20.901780192745314
30
0
11
-52.080503426422041
21
-20.901780192745264
31
0
0
ARC
5
130
100
AcDbEntity
8
0
100
AcDbCircle
10
-42.342665832187969
20
38.90178209573002
30
0
40
9.999999999999968
210
-0
220
0
230
1
100
AcDbArc
50
270
51
317.42515485055435
0
LINE
5
131
100
AcDbEntity
8
0
100
AcDbLine
10
81.270544109353949
20
-20.901780192745328
30
0
11
52.888100633593069
21
-20.901780192745321
31
0
0
ARC
5
132
100
AcDbEntity
8
0
100
AcDbCircle
10
-81.270543526268057
20
24.901782095730042
30
0
40
3.9999999999999947
210
0
220
0
230
-1
100
AcDbArc
50
90
51
270
0
LINE
5
133
100
AcDbEntity
8
0
100
AcDbLine
10
-81.270543526268057
20
28.901782095730049
30
0
11
-42.342665832187969
21
28.901782095730052
31
0
0
ARC
5
134
100
AcDbEntity
8
0
100
AcDbCircle
10
-21.100947846009106
20
30.999999999999925
30
0
40
10.000000000000115
210
0
220
0
230
-1
100
AcDbArc
50
90.000000000000242
51
124.24216870256613
0
LINE
5
135
100
AcDbEntity
8
0
100
AcDbLine
10
-21.100947846009149
20
41.000000000000043
30
0
11
21.100947846009149
21
41.000000000000043
31
0
0
LINE
5
136
100
AcDbEntity
8
0
100
AcDbLine
10
-42.34266586632458
20
-28.901779960844024
30
0
11
-81.27054408552516
21
-28.901780192745328
31
0
0
ARC
5
137
100
AcDbEntity
8
0
100
AcDbCircle
10
-81.27054409743954
20
-24.901780192745321
30
0
40
3.9999999999999902
210
0
220
0
230
-1
100
AcDbArc
50
90.000000170661338
51
270.00000017066151
0
ARC
5
138
100
AcDbEntity
8
0
100
AcDbCircle
10
-2.6645352591003757e-13
20
-5.1514348342607263e-13
30
0
40
47.500000000000576
210
0
220
0
230
-1
100
AcDbArc
50
42.574845149445999
51
55.757831297433761
0
ARC
5
139
100
AcDbEntity
8
0
100
AcDbCircle
10
-2.042810365310288e-13
20
7.5495165674510645e-14
30
0
40
47.499999999999822
210
0
220
0
230
-1
100
AcDbArc
50
124.24216870256619
51
137.42515485055415
0
ARC
5
140
100
AcDbEntity
8
0
100
AcDbCircle
10
21.100947846009099
20
30.999999999999964
30
0
40
10.000000000000075
210
0
220
0
230
-1
100
AcDbArc
50
55.757831297433789
51
89.999999999999716
0
ARC
5
141
100
AcDbEntity
8
0
100
AcDbCircle
10
-21.100947846009216
20
-31.000000000000021
30
0
40
9.9999999999999822
210
0
220
0
230
1
100
AcDbArc
50
235.75783129743334
51
270
0
LINE
5
142
100
AcDbEntity
8
0
100
AcDbLine
10
-52.080503426422062
20
20.901782095730034
30
0
11
-81.270543526268057
21
20.901782095730042
31
0
0
LINE
5
143
100
AcDbEntity
8
0
100
AcDbLine
10
-21.100947846009213
20
-41.000000000000007
30
0
11
21.100947846009149
21
-41.000000000000043
31
0
0
ARC
5
144
100
AcDbEntity
8
0
100
AcDbCircle
10
42.342665832188004
20
38.901782095730027
30
0
40
9.9999999999999964
210
0
220
0
230
1
100
AcDbArc
50
222.57484514944559
51
269.99999999999983
0
ARC
5
145
100
AcDbEntity
8
0
100
AcDbCircle
10
-52.080503426422062
20
10.901782095730031
30
0
40
10
210
-0
220
0
230
1
100
AcDbArc
50
0
51
90
0
LINE
5
146
100
AcDbEntity
8
0
100
AcDbLine
10
81.270544085525117
20
-28.90178019274531
30
0
11
42.342665866324609
21
-28.90177996084401
31
0
0
ARC
5
147
100
AcDbEntity
8
0
100
AcDbCircle
10
-52.080503426422062
20
-10.90178019274526
30
0
40
10.000000000000002
210
-0
220
0
230
1
100
AcDbArc
50
-89.999999999999901
51
0
0
LINE
5
148
100
AcDbEntity
8
0
100
AcDbLine
10
-42.080503426422062
20
10.901782095730027
30
0
11
-42.080503426422062
21
-10.901780192745258
31
0
0
ENDSEC
0
SECTION
2
OBJECTS
0
DICTIONARY
5
C
100
AcDbDictionary
3
ACAD_GROUP
350
D
3
ACAD_MLINESTYLE
350
17
0
DICTIONARY
5
D
100
AcDbDictionary
0
DICTIONARY
5
1A
330
C
100
AcDbDictionary
0
DICTIONARY
5
17
100
AcDbDictionary
0
ENDSEC
0
EOF
