0
SECTION
2
HEADER
9
$INSUNITS
70
4
9
$ACADVER
1
AC1014
9
$HANDSEED
5
FFFF
0
ENDSEC
0
SECTION
2
TABLES
0
TABLE
2
VPORT
5
8
100
AcDbSymbolTable
0
ENDTAB
0
TABLE
2
LTYPE
5
5
100
AcDbSymbolTable
0
LTYPE
5
14
100
AcDbSymbolTableRecord
100
AcDbLinetypeTableRecord
2
BYBLOCK
70
0
0
LTYPE
5
15
100
AcDbSymbolTableRecord
100
AcDbLinetypeTableRecord
2
BYLAYER
70
0
0
ENDTAB
0
TABLE
2
LAYER
5
2
100
AcDbSymbolTable
70
2
0
LAYER
5
50
100
AcDbSymbolTableRecord
100
AcDbLayerTableRecord
2
0
70
0
6
CONTINUOUS
0
ENDTAB
0
TABLE
2
STYLE
5
3
100
AcDbSymbolTable
70
1
0
STYLE
5
11
100
AcDbSymbolTableRecord
100
AcDbTextStyleTableRecord
2
STANDARD
70
0
0
ENDTAB
0
TABLE
2
VIEW
5
6
100
AcDbSymbolTable
70
0
0
ENDTAB
0
TABLE
2
UCS
5
7
100
AcDbSymbolTable
70
0
0
ENDTAB
0
TABLE
2
APPID
5
9
100
AcDbSymbolTable
70
2
0
APPID
5
12
100
AcDbSymbolTableRecord
100
AcDbRegAppTableRecord
2
ACAD
70
0
0
ENDTAB
0
TABLE
2
DIMSTYLE
5
A
100
AcDbSymbolTable
70
1
0
ENDTAB
0
TABLE
2
BLOCK_RECORD
5
1
100
AcDbSymbolTable
70
1
0
BLOCK_RECORD
5
1F
100
AcDbSymbolTableRecord
100
AcDbBlockTableRecord
2
*MODEL_SPACE
0
BLOCK_RECORD
5
1B
100
AcDbSymbolTableRecord
100
AcDbBlockTableRecord
2
*PAPER_SPACE
0
ENDTAB
0
ENDSEC
0
SECTION
2
BLOCKS
0
BLOCK
5
20
100
AcDbEntity
100
AcDbBlockBegin
2
*MODEL_SPACE
0
ENDBLK
5
21
100
AcDbEntity
100
AcDbBlockEnd
0
BLOCK
5
1C
100
AcDbEntity
100
AcDbBlockBegin
2
*PAPER_SPACE
0
ENDBLK
5
1D
100
AcDbEntity
100
AcDbBlockEnd
0
ENDSEC
0
SECTION
2
ENTITIES
0
CIRCLE
5
100
100
AcDbEntity
8
0
100
AcDbCircle
10
-81.270543526268057
20
24.901782095730042
30
0
40
1.499999999999998
210
0
220
0
230
1
0
CIRCLE
5
101
100
AcDbEntity
8
0
100
AcDbCircle
10
81.270544109353992
20
-24.901780192745328
30
0
40
1.5000000000000002
210
0
220
0
230
1
0
CIRCLE
5
102
100
AcDbEntity
8
0
100
AcDbCircle
10
0
20
0
30
0
40
1.5000000000000002
210
0
220
0
230
1
0
CIRCLE
5
103
100
AcDbEntity
8
0
100
AcDbCircle
10
-81.270544109353992
20
-24.901780192745328
30
0
40
1.5000000000000022
210
0
220
0
230
1
0
CIRCLE
5
104
100
AcDbEntity
8
0
100
AcDbCircle
10
81.270543526268057
20
24.901782095730042
30
0
40
1.5000000000000036
210
0
220
0
230
1
0
ARC
5
105
100
AcDbEntity
8
0
100
AcDbCircle
10
81.27054409743954
20
-24.901780192745321
30
0
40
4.000000000000008
210
0
220
-0
230
-1
100
AcDbArc
50
-90.00000017066094
51
90
0
ARC
5
106
100
AcDbEntity
8
0
100
AcDbCircle
10
81.270543526268057
20
24.901782095730045
30
0
40
4.0000000000000036
210
-0
220
-0
230
-1
100
AcDbArc
50
-90
51
90
0
ARC
5
107
100
AcDbEntity
8
0
100
AcDbCircle
10
-81.270543526268057
20
24.901782095730042
30
0
40
3.9999999999999947
210
0
220
0
230
-1
100
AcDbArc
50
90
51
270
0
ARC
5
108
100
AcDbEntity
8
0
100
AcDbCircle
10
-81.27054409743954
20
-24.901780192745321
30
0
40
3.9999999999999902
210
0
220
0
230
-1
100
AcDbArc
50
90.000000170661338
51
270.00000017066151
0
LINE
5
109
100
AcDbEntity
8
0
100
AcDbLine
10
-35.080503426422062
20
9.5149238302880115e-07
30
0
11
-35.080503426422055
21
12.901782095730026
31
0
0
LINE
5
110
100
AcDbEntity
8
0
100
AcDbLine
10
-35.080503426422062
20
9.5149238302880115e-07
30
0
11
-35.080503426422069
21
-12.901780192745278
31
0
0
LINE
5
111
100
AcDbEntity
8
0
100
AcDbLine
10
-81.270543526268057
20
20.901782095730042
30
0
11
-43.080503426422055
21
20.901782095730038
31
0
0
LINE
5
112
100
AcDbEntity
8
0
100
AcDbLine
10
-43.080503426422077
20
-20.901780192745278
30
0
11
-81.27054409743954
21
-20.901780192745314
31
0
0
LINE
5
113
100
AcDbEntity
8
0
100
AcDbLine
10
35.080503426422062
20
9.5149246397546145e-07
30
0
11
35.080503426422098
21
-12.901780192745193
31
0
0
LINE
5
114
100
AcDbEntity
8
0
100
AcDbLine
10
81.270543526268014
20
20.901782095730226
30
0
11
43.080503426421998
21
20.901782095730134
31
0
0
LINE
5
115
100
AcDbEntity
8
0
100
AcDbLine
10
35.080503426422062
20
9.5149246397546145e-07
30
0
11
35.080503426422027
21
12.901782095730113
31
0
0
LINE
5
116
100
AcDbEntity
8
0
100
AcDbLine
10
43.080503426422112
20
-20.901780192745171
30
0
11
81.270544097439569
21
-20.901780192745125
31
0
0
ARC
5
117
100
AcDbEntity
8
0
100
AcDbCircle
10
-43.080503426422048
20
12.901782095730033
30
0
40
7.9999999999999982
210
0
220
0
230
1
100
AcDbArc
50
0
51
90.000000000000057
0
ARC
5
118
100
AcDbEntity
8
0
100
AcDbCircle
10
-43.080503426422077
20
-12.901780192745269
30
0
40
8.0000000000000071
210
-0
220
0
230
1
100
AcDbArc
50
270
51
360
0
ARC
5
119
100
AcDbEntity
8
0
100
AcDbCircle
10
43.080503426422105
20
-12.90178019274517
30
0
40
8.0000000000000036
210
0
220
0
230
1
100
AcDbArc
50
180
51
270.00000000000006
0
ARC
5
120
100
AcDbEntity
8
0
100
AcDbCircle
10
43.080503426422027
20
12.901782095730137
30
0
40
7.9999999999999982
210
0
220
0
230
1
100
AcDbArc
50
90.000000000000199
51
180
0
LINE
5
121
100
AcDbEntity
8
0
100
AcDbLine
10
-23.99964409597905
20
28.901780166469798
30
0
11
-81.270543526268057
21
28.901782095730049
31
0
0
LINE
5
122
100
AcDbEntity
8
0
100
AcDbLine
10
-21.999644028605907
20
30.901780166469791
30
0
11
-21.999644028605911
21
33
31
0
0
LINE
5
123
100
AcDbEntity
8
0
100
AcDbLine
10
21.99964396123276
20
30.901780099096612
30
0
11
21.999643890550914
21
33.000000067373186
31
0
0
LINE
5
124
100
AcDbEntity
8
0
100
AcDbLine
10
-19.999644028605907
20
35
30
0
11
19.999643890550914
21
35.000000000000036
31
0
0
LINE
5
125
100
AcDbEntity
8
0
100
AcDbLine
10
81.270543526268057
20
28.901782095730034
30
0
11
23.999644028605903
21
28.90178016646977
31
0
0
LINE
5
126
100
AcDbEntity
8
0
100
AcDbLine
10
21.999643961232756
20
-30.901780099096612
30
0
11
21.999643890550907
21
-33.000000067373193
31
0
0
LINE
5
127
100
AcDbEntity
8
0
100
AcDbLine
10
-23.99964409597905
20
-28.901780166469798
30
0
11
-81.270543526268057
21
-28.901782095730049
31
0
0
LINE
5
128
100
AcDbEntity
8
0
100
AcDbLine
10
-21.999644028605907
20
-30.901780166469791
30
0
11
-21.999644028605911
21
-33
31
0
0
LINE
5
129
100
AcDbEntity
8
0
100
AcDbLine
10
81.270543526268057
20
-28.901782095730034
30
0
11
23.9996440286059
21
-28.90178016646977
31
0
0
LINE
5
130
100
AcDbEntity
8
0
100
AcDbLine
10
-19.999644028605907
20
-35
30
0
11
19.99964389055091
21
-35.000000000000036
31
0
0
ARC
5
131
100
AcDbEntity
8
0
100
AcDbCircle
10
-23.999644028605907
20
30.901780166469798
30
0
40
1.9999999999999987
210
0
220
0
230
1
100
AcDbArc
50
269.99999806990161
51
360
0
ARC
5
132
100
AcDbEntity
8
0
100
AcDbCircle
10
-19.999644028605911
20
33
30
0
40
2.0000000000000018
210
0
220
-0
230
1
100
AcDbArc
50
89.999999999999901
51
180
0
ARC
5
133
100
AcDbEntity
8
0
100
AcDbCircle
10
19.999643890550914
20
33.000000000000036
30
0
40
2.0000000000000009
210
0
220
-0
230
1
100
AcDbArc
50
1.7075472925031877e-06
51
90
0
ARC
5
134
100
AcDbEntity
8
0
100
AcDbCircle
10
23.999643961232756
20
30.901780166469766
30
0
40
1.9999999999999987
210
0
220
0
230
1
100
AcDbArc
50
180.00000170754728
51
270.00000193009851
0
ARC
5
135
100
AcDbEntity
8
0
100
AcDbCircle
10
-23.999644028605907
20
-30.901780166469798
30
0
40
2.0000000000000018
210
-0
220
0
230
1
100
AcDbArc
50
0
51
90.000001930098392
0
ARC
5
136
100
AcDbEntity
8
0
100
AcDbCircle
10
-19.999644028605911
20
-33
30
0
40
1.9999999999999996
210
0
220
0
230
1
100
AcDbArc
50
180
51
270.00000000000011
0
ARC
5
137
100
AcDbEntity
8
0
100
AcDbCircle
10
19.99964389055091
20
-33.000000000000036
30
0
40
2.0000000000000018
210
0
220
0
230
1
100
AcDbArc
50
270
51
359.99999829245274
0
ARC
5
138
100
AcDbEntity
8
0
100
AcDbCircle
10
23.999643961232763
20
-30.901780166469774
30
0
40
2.0000000000000075
210
0
220
-0
230
1
100
AcDbArc
50
89.999998069901807
51
179.99999829245272
0
ENDSEC
0
SECTION
2
OBJECTS
0
DICTIONARY
5
C
100
AcDbDictionary
3
ACAD_GROUP
350
D
3
ACAD_MLINESTYLE
350
17
0
DICTIONARY
5
D
100
AcDbDictionary
0
DICTIONARY
5
1A
330
C
100
AcDbDictionary
0
DICTIONARY
5
17
100
AcDbDictionary
0
ENDSEC
0
EOF
