0
SECTION
2
HEADER
9
$INSUNITS
70
4
9
$ACADVER
1
AC1014
9
$HANDSEED
5
FFFF
0
ENDSEC
0
SECTION
2
TABLES
0
TABLE
2
VPORT
5
8
100
AcDbSymbolTable
0
ENDTAB
0
TABLE
2
LTYPE
5
5
100
AcDbSymbolTable
0
LTYPE
5
14
100
AcDbSymbolTableRecord
100
AcDbLinetypeTableRecord
2
BYBLOCK
70
0
0
LTYPE
5
15
100
AcDbSymbolTableRecord
100
AcDbLinetypeTableRecord
2
BYLAYER
70
0
0
ENDTAB
0
TABLE
2
LAYER
5
2
100
AcDbSymbolTable
70
2
0
LAYER
5
50
100
AcDbSymbolTableRecord
100
AcDbLayerTableRecord
2
0
70
0
6
CONTINUOUS
0
ENDTAB
0
TABLE
2
STYLE
5
3
100
AcDbSymbolTable
70
1
0
STYLE
5
11
100
AcDbSymbolTableRecord
100
AcDbTextStyleTableRecord
2
STANDARD
70
0
0
ENDTAB
0
TABLE
2
VIEW
5
6
100
AcDbSymbolTable
70
0
0
ENDTAB
0
TABLE
2
UCS
5
7
100
AcDbSymbolTable
70
0
0
ENDTAB
0
TABLE
2
APPID
5
9
100
AcDbSymbolTable
70
2
0
APPID
5
12
100
AcDbSymbolTableRecord
100
AcDbRegAppTableRecord
2
ACAD
70
0
0
ENDTAB
0
TABLE
2
DIMSTYLE
5
A
100
AcDbSymbolTable
70
1
0
ENDTAB
0
TABLE
2
BLOCK_RECORD
5
1
100
AcDbSymbolTable
70
1
0
BLOCK_RECORD
5
1F
100
AcDbSymbolTableRecord
100
AcDbBlockTableRecord
2
*MODEL_SPACE
0
BLOCK_RECORD
5
1B
100
AcDbSymbolTableRecord
100
AcDbBlockTableRecord
2
*PAPER_SPACE
0
ENDTAB
0
ENDSEC
0
SECTION
2
BLOCKS
0
BLOCK
5
20
100
AcDbEntity
100
AcDbBlockBegin
2
*MODEL_SPACE
0
ENDBLK
5
21
100
AcDbEntity
100
AcDbBlockEnd
0
BLOCK
5
1C
100
AcDbEntity
100
AcDbBlockBegin
2
*PAPER_SPACE
0
ENDBLK
5
1D
100
AcDbEntity
100
AcDbBlockEnd
0
ENDSEC
0
SECTION
2
ENTITIES
0
CIRCLE
5
100
100
AcDbEntity
8
0
100
AcDbCircle
10
-81.270543526268057
20
24.901782095730042
30
0
40
1.499999999999998
210
0
220
0
230
1
0
CIRCLE
5
101
100
AcDbEntity
8
0
100
AcDbCircle
10
81.270544109353992
20
-24.901780192745328
30
0
40
1.5000000000000002
210
0
220
0
230
1
0
CIRCLE
5
102
100
AcDbEntity
8
0
100
AcDbCircle
10
0
20
0
30
0
40
1.5000000000000002
210
0
220
0
230
1
0
CIRCLE
5
103
100
AcDbEntity
8
0
100
AcDbCircle
10
-81.270544109353992
20
-24.901780192745328
30
0
40
1.5000000000000022
210
0
220
0
230
1
0
CIRCLE
5
104
100
AcDbEntity
8
0
100
AcDbCircle
10
81.270543526268057
20
24.901782095730042
30
0
40
1.5000000000000036
210
0
220
0
230
1
0
ARC
5
105
100
AcDbEntity
8
0
100
AcDbCircle
10
81.27054409743954
20
-24.901780192745321
30
0
40
4.000000000000008
210
0
220
-0
230
-1
100
AcDbArc
50
-90.00000017066094
51
90
0
ARC
5
106
100
AcDbEntity
8
0
100
AcDbCircle
10
81.270543526268057
20
24.901782095730045
30
0
40
4.0000000000000036
210
-0
220
-0
230
-1
100
AcDbArc
50
-90
51
90.000001930098591
0
ARC
5
107
100
AcDbEntity
8
0
100
AcDbCircle
10
-81.270543526268057
20
24.901782095730042
30
0
40
3.9999999999999947
210
0
220
0
230
-1
100
AcDbArc
50
90
51
270
0
ARC
5
108
100
AcDbEntity
8
0
100
AcDbCircle
10
-81.27054409743954
20
-24.901780192745321
30
0
40
3.9999999999999902
210
0
220
0
230
-1
100
AcDbArc
50
90.000000170661338
51
270.00000017066151
0
LINE
5
109
100
AcDbEntity
8
0
100
AcDbLine
10
-81.270543526268057
20
20.901782095730042
30
0
11
-48.080503426422048
21
20.901782095730038
31
0
0
LINE
5
110
100
AcDbEntity
8
0
100
AcDbLine
10
-48.080503426422069
20
-20.901780192745282
30
0
11
-81.27054409743954
21
-20.901780192745314
31
0
0
LINE
5
111
100
AcDbEntity
8
0
100
AcDbLine
10
81.270543526268014
20
20.901782095730226
30
0
11
48.080503426421998
21
20.901782095730145
31
0
0
LINE
5
112
100
AcDbEntity
8
0
100
AcDbLine
10
48.080503426422112
20
-20.901780192745179
30
0
11
81.270544097439569
21
-20.901780192745125
31
0
0
LINE
5
113
100
AcDbEntity
8
0
100
AcDbLine
10
-30.901780963838384
20
28.90178039897912
30
0
11
-81.270543391521755
21
28.901782095730045
31
0
0
LINE
5
114
100
AcDbEntity
8
0
100
AcDbLine
10
81.270543526268057
20
28.901782095730034
30
0
11
30.901779060853549
21
28.901780398979156
31
0
0
LINE
5
115
100
AcDbEntity
8
0
100
AcDbLine
10
-30.901781036514691
20
-28.901778568670689
30
0
11
-81.270543526268057
21
-28.901782095730049
31
0
0
LINE
5
116
100
AcDbEntity
8
0
100
AcDbLine
10
81.270543526268057
20
-28.901782095730034
30
0
11
30.901779133529892
21
-28.901778568670665
31
0
0
LINE
5
117
100
AcDbEntity
8
0
100
AcDbLine
10
40.080503426422013
20
12.90178209573012
30
0
11
40.080503426422105
21
-12.901780192745205
31
0
0
LINE
5
118
100
AcDbEntity
8
0
100
AcDbLine
10
-40.080503426422055
20
12.901782095730033
30
0
11
-40.080503426422069
21
-12.90178019274528
31
0
0
LINE
5
119
100
AcDbEntity
8
0
100
AcDbLine
10
-9.5149237376179706e-07
20
-40.080503426422069
30
0
11
-9.5149242708825286e-07
21
40.080503426422062
31
0
0
LINE
5
120
100
AcDbEntity
8
0
100
AcDbLine
10
-26.901780896465247
20
40.080503426422034
30
0
11
26.901778993480395
21
40.080503426422069
31
0
0
LINE
5
121
100
AcDbEntity
8
0
100
AcDbLine
10
-40.080503426422062
20
9.514923826614563e-07
30
0
11
40.080503426422055
21
9.5149241818859309e-07
31
0
0
LINE
5
122
100
AcDbEntity
8
0
100
AcDbLine
10
-26.901780896465212
20
-40.080501523437263
30
0
11
26.901778993480431
21
-40.080501523437263
31
0
0
ARC
5
123
100
AcDbEntity
8
0
100
AcDbCircle
10
48.080503426422013
20
12.901782095730143
30
0
40
8
210
0
220
0
230
1
100
AcDbArc
50
90.000000000000099
51
180
0
ARC
5
124
100
AcDbEntity
8
0
100
AcDbCircle
10
48.080503426422105
20
-12.90178019274518
30
0
40
7.9999999999999982
210
0
220
0
230
1
100
AcDbArc
50
180
51
270.00000000000006
0
ARC
5
125
100
AcDbEntity
8
0
100
AcDbCircle
10
-48.080503426422048
20
12.901782095730036
30
0
40
7.9999999999999982
210
0
220
0
230
1
100
AcDbArc
50
0
51
90
0
ARC
5
126
100
AcDbEntity
8
0
100
AcDbCircle
10
-48.080503426422098
20
-12.901780192745257
30
0
40
8.0000000000000249
210
-0
220
0
230
1
100
AcDbArc
50
270.00000000000023
51
360
0
LINE
5
127
100
AcDbEntity
8
0
100
AcDbLine
10
-28.90178089646524
20
30.901780398979124
30
0
11
-28.901780896465251
21
38.080503426422041
31
0
0
LINE
5
128
100
AcDbEntity
8
0
100
AcDbLine
10
28.901778993480406
20
30.90178039897916
30
0
11
28.901778993480395
21
38.080503426422069
31
0
0
LINE
5
129
100
AcDbEntity
8
0
100
AcDbLine
10
-28.901780896465215
20
-30.901778568670686
30
0
11
-28.901780896465215
21
-38.080501523437256
31
0
0
LINE
5
130
100
AcDbEntity
8
0
100
AcDbLine
10
28.901778993480427
20
-30.901778568670668
30
0
11
28.901778993480434
21
-38.080501523437256
31
0
0
ARC
5
131
100
AcDbEntity
8
0
100
AcDbCircle
10
-26.901780896465255
20
38.080503426422041
30
0
40
1.9999999999999929
210
0
220
-0
230
1
100
AcDbArc
50
89.999999999999801
51
180
0
ARC
5
132
100
AcDbEntity
8
0
100
AcDbCircle
10
26.901778993480399
20
38.080503426422069
30
0
40
1.9999999999999973
210
0
220
0
230
1
100
AcDbArc
50
0
51
90.000000000000099
0
ARC
5
133
100
AcDbEntity
8
0
100
AcDbCircle
10
-26.901780896465219
20
-38.080501523437256
30
0
40
1.9999999999999973
210
0
220
0
230
1
100
AcDbArc
50
180
51
270.00000000000023
0
ARC
5
134
100
AcDbEntity
8
0
100
AcDbCircle
10
26.901778993480406
20
-38.080501523437235
30
0
40
2.0000000000000284
210
-0
220
0
230
1
100
AcDbArc
50
270.00000000000074
51
360
0
ARC
5
135
100
AcDbEntity
8
0
100
AcDbCircle
10
-30.901780896465244
20
30.901780398979124
30
0
40
2.0000000000000027
210
0
220
0
230
1
100
AcDbArc
50
-90.000001930098293
51
0
0
ARC
5
136
100
AcDbEntity
8
0
100
AcDbCircle
10
30.901778993480406
20
30.90178039897916
30
0
40
2.0000000000000018
210
0
220
0
230
1
100
AcDbArc
50
180
51
270.00000193009839
0
ARC
5
137
100
AcDbEntity
8
0
100
AcDbCircle
10
30.901778993480434
20
-30.901778568670668
30
0
40
2.0000000000000067
210
0
220
-0
230
1
100
AcDbArc
50
89.999995987878563
51
180
0
ARC
5
138
100
AcDbEntity
8
0
100
AcDbCircle
10
-30.901780896465219
20
-30.901778568670689
30
0
40
2.0000000000000062
210
0
220
-0
230
1
100
AcDbArc
50
0
51
90.000004012121849
0
ENDSEC
0
SECTION
2
OBJECTS
0
DICTIONARY
5
C
100
AcDbDictionary
3
ACAD_GROUP
350
D
3
ACAD_MLINESTYLE
350
17
0
DICTIONARY
5
D
100
AcDbDictionary
0
DICTIONARY
5
1A
330
C
100
AcDbDictionary
0
DICTIONARY
5
17
100
AcDbDictionary
0
ENDSEC
0
EOF
