0
SECTION
2
HEADER
9
$INSUNITS
70
4
9
$ACADVER
1
AC1014
9
$HANDSEED
5
FFFF
0
ENDSEC
0
SECTION
2
TABLES
0
TABLE
2
VPORT
5
8
100
AcDbSymbolTable
0
ENDTAB
0
TABLE
2
LTYPE
5
5
100
AcDbSymbolTable
0
LTYPE
5
14
100
AcDbSymbolTableRecord
100
AcDbLinetypeTableRecord
2
BYBLOCK
70
0
0
LTYPE
5
15
100
AcDbSymbolTableRecord
100
AcDbLinetypeTableRecord
2
BYLAYER
70
0
0
ENDTAB
0
TABLE
2
LAYER
5
2
100
AcDbSymbolTable
70
2
0
LAYER
5
50
100
AcDbSymbolTableRecord
100
AcDbLayerTableRecord
2
0
70
0
6
CONTINUOUS
0
ENDTAB
0
TABLE
2
STYLE
5
3
100
AcDbSymbolTable
70
1
0
STYLE
5
11
100
AcDbSymbolTableRecord
100
AcDbTextStyleTableRecord
2
STANDARD
70
0
0
ENDTAB
0
TABLE
2
VIEW
5
6
100
AcDbSymbolTable
70
0
0
ENDTAB
0
TABLE
2
UCS
5
7
100
AcDbSymbolTable
70
0
0
ENDTAB
0
TABLE
2
APPID
5
9
100
AcDbSymbolTable
70
2
0
APPID
5
12
100
AcDbSymbolTableRecord
100
AcDbRegAppTableRecord
2
ACAD
70
0
0
ENDTAB
0
TABLE
2
DIMSTYLE
5
A
100
AcDbSymbolTable
70
1
0
ENDTAB
0
TABLE
2
BLOCK_RECORD
5
1
100
AcDbSymbolTable
70
1
0
BLOCK_RECORD
5
1F
100
AcDbSymbolTableRecord
100
AcDbBlockTableRecord
2
*MODEL_SPACE
0
BLOCK_RECORD
5
1B
100
AcDbSymbolTableRecord
100
AcDbBlockTableRecord
2
*PAPER_SPACE
0
ENDTAB
0
ENDSEC
0
SECTION
2
BLOCKS
0
BLOCK
5
20
100
AcDbEntity
100
AcDbBlockBegin
2
*MODEL_SPACE
0
ENDBLK
5
21
100
AcDbEntity
100
AcDbBlockEnd
0
BLOCK
5
1C
100
AcDbEntity
100
AcDbBlockBegin
2
*PAPER_SPACE
0
ENDBLK
5
1D
100
AcDbEntity
100
AcDbBlockEnd
0
ENDSEC
0
SECTION
2
ENTITIES
0
CIRCLE
5
100
100
AcDbEntity
8
0
100
AcDbCircle
10
46.844549277174139
20
-82.64737263227704
30
0
40
1.5999999999999921
210
0
220
0
230
1
0
CIRCLE
5
101
100
AcDbEntity
8
0
100
AcDbCircle
10
13.500000201166369
20
-3.4954035969506592
30
-7.6999999999999997e-15
40
1.5999999999999992
210
0
220
0
230
1
0
CIRCLE
5
102
100
AcDbEntity
8
0
100
AcDbCircle
10
-13.500000201165037
20
-3.4954035969506592
30
-7.6999999999999997e-15
40
1.5999999999999992
210
0
220
0
230
1
0
LWPOLYLINE
5
103
100
AcDbEntity
8
0
100
AcDbPolyline
90
40
70
1
43
0.0
10
70.658448550774224
20
24.040419410774025
42
0.41421317045297434
10
73.486873783161172
20
24.040417518416213
10
81.192998637681697
20
31.74652174984017
42
-0.5476957713694125
10
84.484646905597231
20
31.021676892725999
42
-0.17779023951274983
10
84.484653611849097
20
-31.021658628867606
42
-0.54769627649881036
10
81.19300330254606
20
-31.74650199948811
10
73.486920328622205
20
-24.040419025564965
42
0.41421356237317875
10
70.658493203875651
20
-24.040419025565392
10
38.131581269306892
20
-56.567330960156355
42
0.41421356237315671
10
38.131581269308043
20
-59.395758084902823
10
57.609296461246586
20
-78.87347327682167
42
-0.46636607269408942
10
57.341921325381904
20
-81.926211060403475
42
-0.033017616068185672
10
46.058203472062445
20
-88.761714116651376
42
-0.39481752700196709
10
43.427120952197562
20
-88.023870258845633
10
26.771747586167631
20
-60.571013991886566
42
0.2621363110506435
10
25.061829135744034
20
-59.608404416413912
10
-25.061830857614975
20
-59.608404416413947
42
0.26213631103668183
10
-26.771749307984347
20
-60.571013991797251
10
-43.427122263341275
20
-88.023869578613699
42
-0.3948175313423265
10
-46.058204809908744
20
-88.761713422446007
42
-0.033017615452749671
10
-57.34192235873968
20
-81.926210337133114
42
-0.46636606885490833
10
-57.609297473937119
20
-78.873472568016723
10
-38.131582990803388
20
-59.395758084902823
42
0.41421356237315576
10
-38.131582990802229
20
-56.56733096015639
10
-70.658494925371031
20
-24.040419025565463
42
0.4142135623731944
10
-73.486922050117641
20
-24.040419025565001
10
-81.19300376488907
20
-31.746500740335684
42
-0.54769628145257421
10
-84.484654084699883
20
-31.021657341098074
42
-0.17779018109822009
10
-84.484653459109524
20
31.021659044836198
42
-0.54769627489866834
10
-81.193003153200664
20
31.746502406213004
10
-73.486922050117599
20
24.040421303130586
42
0.41421356237319068
10
-70.658494925371031
20
24.040421303131048
10
-38.131582990802016
20
56.567333237722295
42
0.41421356237310053
10
-38.131582990802961
20
59.395760362468444
10
-50.416143083364972
20
71.680320455017764
42
-0.47249739432298576
10
-50.115609737378847
20
74.755773426877823
42
-0.30418116479618079
10
50.115598657748677
20
74.755780854563582
42
-0.47249777641738344
10
50.41613069258063
20
71.680326160277446
10
38.131537838585892
20
59.395760362466788
42
0.41421388491450034
10
38.131536281216505
20
56.567331680353945
0
ARC
5
104
100
AcDbEntity
8
0
100
AcDbCircle
10
72.072662113147828
20
25.45463297314658
30
0
40
1.9999999999999898
210
0
220
0
230
1
100
AcDbArc
50
224.99999999997854
51
314.99992333254403
0
ARC
5
105
100
AcDbEntity
8
0
100
AcDbCircle
10
-82.607210307695013
20
30.33230629510987
30
0
40
1.9999999999999905
210
0
220
0
230
-1
100
AcDbArc
50
45.00007666745519
51
159.83741357461813
0
CIRCLE
5
106
100
AcDbEntity
8
0
100
AcDbCircle
10
52.273716893031512
20
-14.848030870145159
30
-1.3000000000000002e-15
40
1.5000000000000122
210
0
220
0
230
1
0
LINE
5
107
100
AcDbEntity
8
0
100
AcDbLine
10
50.41613069258063
20
71.680326160277446
30
0
11
38.131537838585892
21
59.395760362466788
31
0
0
CIRCLE
5
108
100
AcDbEntity
8
0
100
AcDbCircle
10
-46.844550611788321
20
-82.647371875816617
30
0
40
1.5999999999999921
210
0
220
0
230
1
0
CIRCLE
5
109
100
AcDbEntity
8
0
100
AcDbCircle
10
-81.270543526267417
20
24.901782095730063
30
0
40
1.6000000000000012
210
0
220
0
230
1
0
CIRCLE
5
110
100
AcDbEntity
8
0
100
AcDbCircle
10
81.270544109354645
20
-24.901780192745235
30
0
40
1.5999999999999921
210
0
220
0
230
1
0
CIRCLE
5
111
100
AcDbEntity
8
0
100
AcDbCircle
10
46.844549277174139
20
-82.64737263227704
30
0
40
1.5999999999999921
210
0
220
0
230
1
0
CIRCLE
5
112
100
AcDbEntity
8
0
100
AcDbCircle
10
-28.939194835370898
20
-38.182554649301288
30
-6.9999999999999994e-15
40
1.5000000000000122
210
0
220
0
230
1
0
CIRCLE
5
113
100
AcDbEntity
8
0
100
AcDbCircle
10
-18.067784852045818
20
26.684867337122569
30
-4.1359030627651384e-23
40
1.6000000000000012
210
7.5056642884862645e-26
220
-6.1288399999999999e-10
230
1
0
CIRCLE
5
114
100
AcDbEntity
8
0
100
AcDbCircle
10
18.067771513053348
20
78.315132662877573
30
0
40
1.6000000000000121
210
0
220
0
230
1
0
CIRCLE
5
115
100
AcDbEntity
8
0
100
AcDbCircle
10
-18.067784852045818
20
78.315132662877573
30
-4.1359030627651384e-23
40
1.6000000000000059
210
7.5056642884862645e-26
220
-6.1288399999999999e-10
230
1
0
CIRCLE
5
116
100
AcDbEntity
8
0
100
AcDbCircle
10
-81.270544109353352
20
-24.901780192745271
30
0
40
1.6000000000000012
210
0
220
0
230
1
0
CIRCLE
5
117
100
AcDbEntity
8
0
100
AcDbCircle
10
28.939193113875472
20
-38.182554649301217
30
-6.9999999999999994e-15
40
1.5000000000000122
210
0
220
0
230
1
0
CIRCLE
5
118
100
AcDbEntity
8
0
100
AcDbCircle
10
18.067771513053366
20
26.684867337122569
30
-3.7223127564886245e-23
40
1.6000000000000012
210
7.5056642884862645e-26
220
-6.1288399999999999e-10
230
1
0
CIRCLE
5
119
100
AcDbEntity
8
0
100
AcDbCircle
10
3.9999991390646095
20
-22.608404386611625
30
-5.169878828456423e-23
40
1.6000000000000012
210
7.5056642884862645e-26
220
-6.1288399999999999e-10
230
1
0
CIRCLE
5
120
100
AcDbEntity
8
0
100
AcDbCircle
10
-4.0000008609353799
20
-22.608404386611625
30
-5.169878828456423e-23
40
1.6000000000000003
210
7.5056642884862645e-26
220
-6.1288399999999999e-10
230
1
0
CIRCLE
5
121
100
AcDbEntity
8
0
100
AcDbCircle
10
3.9999991390646095
20
-42.60840438661166
30
-3.3087224502121107e-23
40
1.6000000000000003
210
7.5056642884862645e-26
220
-6.1288399999999999e-10
230
1
0
CIRCLE
5
122
100
AcDbEntity
8
0
100
AcDbCircle
10
81.27054352626871
20
24.901782095730081
30
0
40
1.5999999999999921
210
0
220
0
230
1
0
CIRCLE
5
123
100
AcDbEntity
8
0
100
AcDbCircle
10
-4.0000008609353799
20
-42.60840438661166
30
-3.3087224502121107e-23
40
1.6000000000000003
210
7.5056642884862645e-26
220
-6.1288399999999999e-10
230
1
0
CIRCLE
5
124
100
AcDbEntity
8
0
100
AcDbCircle
10
-28.939194835370845
20
38.182556926867015
30
-7.2000000000000002e-15
40
1.5000000000000122
210
0
220
0
230
1
0
CIRCLE
5
125
100
AcDbEntity
8
0
100
AcDbCircle
10
-52.273718614526899
20
14.84803314771094
30
-4.3999999999999997e-15
40
1.5000000000000122
210
0
220
0
230
1
0
LINE
5
126
100
AcDbEntity
8
0
100
AcDbLine
10
-38.131582990802016
20
56.567333237722295
30
0
11
-70.658494925371031
21
24.040421303131048
31
0
0
CIRCLE
5
127
100
AcDbEntity
8
0
100
AcDbCircle
10
52.273672072435758
20
14.84803142284818
30
1.3000000000000002e-15
40
1.5000000000000122
210
0
220
0
230
1
0
CIRCLE
5
128
100
AcDbEntity
8
0
100
AcDbCircle
10
81.270544109354645
20
-24.901780192745235
30
0
40
1.5999999999999921
210
0
220
0
230
1
0
CIRCLE
5
129
100
AcDbEntity
8
0
100
AcDbCircle
10
-18.067784852045818
20
26.684867337122569
30
0
40
1.6000000000000012
210
0
220
0
230
1
0
ARC
5
130
100
AcDbEntity
8
0
100
AcDbCircle
10
-56.195083911564737
20
-80.287686130390597
30
0
40
2.0000000000000466
210
0
220
0
230
1
100
AcDbArc
50
134.99999999996979
51
235.01099554446952
0
ARC
5
131
100
AcDbEntity
8
0
100
AcDbCircle
10
-39.545794831680411
20
-57.98154452252902
30
0
40
1.9999999999999898
210
-0
220
0
230
-1
100
AcDbArc
50
-45.000000000029061
51
44.99999999998272
0
LINE
5
132
100
AcDbEntity
8
0
100
AcDbLine
10
-25.061830857614975
20
-59.608404416413947
30
0
11
25.061829135744034
21
-59.608404416413912
31
0
0
CIRCLE
5
133
100
AcDbEntity
8
0
100
AcDbCircle
10
81.27054352626871
20
24.901782095730081
30
0
40
1.5999999999999921
210
0
220
0
230
1
0
ARC
5
134
100
AcDbEntity
8
0
100
AcDbCircle
10
-2.9309887850104133e-12
20
-5.7553961596568115e-12
30
0
40
99.99999999999315
210
0
220
0
230
1
100
AcDbArc
50
235.01099554447489
51
242.575327618427
0
LINE
5
135
100
AcDbEntity
8
0
100
AcDbLine
10
-43.427122263341275
20
-88.023869578613699
30
0
11
-26.771749307984347
21
-60.571013991797251
31
0
0
CIRCLE
5
136
100
AcDbEntity
8
0
100
AcDbCircle
10
-81.270544109353352
20
-24.901780192745271
30
0
40
1.6000000000000012
210
0
220
0
230
1
0
ARC
5
137
100
AcDbEntity
8
0
100
AcDbCircle
10
56.195082898874233
20
-80.287686839195487
30
0
40
1.9999999999999423
210
-0
220
0
230
1
100
AcDbArc
50
-55.010996267160955
51
45.000000000029651
0
ARC
5
138
100
AcDbEntity
8
0
100
AcDbCircle
10
45.137039402621241
20
-86.986479834318288
30
0
40
2.0000000000000782
210
0
220
0
230
1
100
AcDbArc
50
211.24476954665565
51
297.42467151798962
0
LINE
5
139
100
AcDbEntity
8
0
100
AcDbLine
10
57.609296461246586
20
-78.87347327682167
30
0
11
38.131581269308043
21
-59.395758084902823
31
0
0
CIRCLE
5
140
100
AcDbEntity
8
0
100
AcDbCircle
10
18.067771513053348
20
78.315132662877573
30
0
40
1.6000000000000121
210
0
220
0
230
1
0
CIRCLE
5
141
100
AcDbEntity
8
0
100
AcDbCircle
10
-4.0000008609353799
20
-42.60840438661166
30
0
40
1.6000000000000003
210
0
220
0
230
1
0
ARC
5
142
100
AcDbEntity
8
0
100
AcDbCircle
10
72.072708487744549
20
-25.454632587938057
30
0
40
1.9999999999999709
210
0
220
0
230
-1
100
AcDbArc
50
44.999999999999275
51
135.00000000001873
0
ARC
5
143
100
AcDbEntity
8
0
100
AcDbCircle
10
39.545796553175734
20
-57.981544522529056
30
0
40
1.9999999999999836
210
0
220
0
230
-1
100
AcDbArc
50
135.000000000017
51
225.00000000002876
0
CIRCLE
5
144
100
AcDbEntity
8
0
100
AcDbCircle
10
28.939148293279704
20
38.182555202004274
30
-7.2000000000000002e-15
40
1.5000000000000122
210
0
220
0
230
1
0
ARC
5
145
100
AcDbEntity
8
0
100
AcDbCircle
10
72.072708487744549
20
25.454634865503643
30
0
40
1.9999999999999458
210
0
220
-0
230
-1
100
AcDbArc
50
224.9999999999813
51
314.99999999999983
0
ARC
5
146
100
AcDbEntity
8
0
100
AcDbCircle
10
-25.061829135744055
20
-61.608404416413904
30
0
40
1.9999999999999929
210
0
220
0
230
-1
100
AcDbArc
50
89.999999999999389
51
148.75523045334296
0
CIRCLE
5
147
100
AcDbEntity
8
0
100
AcDbCircle
10
3.9999991390646095
20
-22.608404386611625
30
0
40
1.6000000000000012
210
0
220
0
230
1
0
LINE
5
148
100
AcDbEntity
8
0
100
AcDbLine
10
81.192998637681683
20
31.746521749840184
30
0
11
73.486873783161172
21
24.040417518416213
31
0
0
ARC
5
149
100
AcDbEntity
8
0
100
AcDbCircle
10
2.6822988274943782e-12
20
-3.5349501104064984e-12
30
0
40
99.999999999995879
210
-0
220
0
230
1
100
AcDbArc
50
297.42467151799116
51
304.98900373283675
0
ARC
5
150
100
AcDbEntity
8
0
100
AcDbCircle
10
-2.0605739337042905e-12
20
0
30
0
40
90.000000000002629
210
-0
220
0
230
1
100
AcDbArc
50
-20.162574039202873
51
20.162586425381924
0
CIRCLE
5
151
100
AcDbEntity
8
0
100
AcDbCircle
10
-46.844550611788321
20
-82.647371875816617
30
0
40
1.5999999999999921
210
0
220
0
230
1
0
ARC
5
152
100
AcDbEntity
8
0
100
AcDbCircle
10
5.8619775700208265e-13
20
-3.836930773104541e-12
30
0
40
90.000000000003283
210
0
220
-0
230
1
100
AcDbArc
50
56.162457873442733
51
123.83755061842423
0
ARC
5
153
100
AcDbEntity
8
0
100
AcDbCircle
10
-49.001929520992661
20
73.094534017391609
30
0
40
2.0000000000000111
210
0
220
0
230
1
100
AcDbArc
50
123.83755061842442
51
225.00000000003109
0
ARC
5
154
100
AcDbEntity
8
0
100
AcDbCircle
10
-72.072706766249141
20
-25.454632587938057
30
0
40
1.9999999999999836
210
0
220
0
230
-1
100
AcDbArc
50
44.999999999983302
51
134.99999999999943
0
CIRCLE
5
155
100
AcDbEntity
8
0
100
AcDbCircle
10
-81.270543526267417
20
24.901782095730063
30
0
40
1.6000000000000012
210
0
220
0
230
1
0
ARC
5
156
100
AcDbEntity
8
0
100
AcDbCircle
10
82.607216864919124
20
-30.332288437114983
30
0
40
1.999999999999996
210
0
220
0
230
1
100
AcDbArc
50
225.00000000000125
51
339.83742596079639
0
ARC
5
157
100
AcDbEntity
8
0
100
AcDbCircle
10
-39.545749843590102
20
57.98154524272654
30
0
40
2.0000000000000022
210
-0
220
0
230
-1
100
AcDbArc
50
-44.999999999979693
51
45.00006309557272
0
ARC
5
158
100
AcDbEntity
8
0
100
AcDbCircle
10
49.001918687576506
20
73.094541280017708
30
0
40
1.99999999999994
210
-0
220
0
230
1
100
AcDbArc
50
-45.000063095574717
51
56.162457873441838
0
CIRCLE
5
159
100
AcDbEntity
8
0
100
AcDbCircle
10
-18.067784852045818
20
78.315132662877573
30
0
40
1.6000000000000059
210
0
220
0
230
1
0
CIRCLE
5
160
100
AcDbEntity
8
0
100
AcDbCircle
10
-4.0000008609353799
20
-22.608404386611625
30
0
40
1.6000000000000003
210
0
220
0
230
1
0
ARC
5
161
100
AcDbEntity
8
0
100
AcDbCircle
10
39.545796553175556
20
57.98154680009489
30
0
40
1.9999999999999709
210
0
220
0
230
-1
100
AcDbArc
50
134.99999999998059
51
224.99999999998084
0
ARC
5
162
100
AcDbEntity
8
0
100
AcDbCircle
10
-82.607216715573756
20
30.332288843839876
30
0
40
2.0000000000000213
210
0
220
-0
230
1
100
AcDbArc
50
45.000000000000718
51
159.83742567869592
0
LINE
5
163
100
AcDbEntity
8
0
100
AcDbLine
10
70.65844855077421
20
24.040419410774021
30
0
11
38.131536281216505
21
56.567331680353945
31
0
0
LINE
5
164
100
AcDbEntity
8
0
100
AcDbLine
10
-81.19300376488907
20
-31.746500740335684
30
0
11
-73.486922050117641
21
-24.040419025565001
31
0
0
LINE
5
165
100
AcDbEntity
8
0
100
AcDbLine
10
-70.658494925371031
20
-24.040419025565463
30
0
11
-38.131582990802229
21
-56.56733096015639
31
0
0
LINE
5
166
100
AcDbEntity
8
0
100
AcDbLine
10
-50.416143083364972
20
71.680320455017764
30
0
11
-38.131582990802961
21
59.395760362468444
31
0
0
LINE
5
167
100
AcDbEntity
8
0
100
AcDbLine
10
-73.486922050117599
20
24.040421303130586
30
0
11
-81.193003153200664
21
31.746502406213004
31
0
0
CIRCLE
5
168
100
AcDbEntity
8
0
100
AcDbCircle
10
-52.27371861452697
20
-14.848030870145195
30
-9.7999999999999999e-15
40
1.5000000000000122
210
0
220
0
230
1
0
ARC
5
169
100
AcDbEntity
8
0
100
AcDbCircle
10
25.061830857614975
20
-61.60840441641394
30
0
40
1.9999999999999971
210
0
220
0
230
-1
100
AcDbArc
50
31.244769549650915
51
90
0
ARC
5
170
100
AcDbEntity
8
0
100
AcDbCircle
10
-45.137040713710661
20
-86.986479153996925
30
0
40
2.0000000000000777
210
0
220
0
230
1
100
AcDbArc
50
242.57532761843188
51
328.75523045034726
0
ARC
5
171
100
AcDbEntity
8
0
100
AcDbCircle
10
-1.865174681370263e-12
20
-5.3290705182007514e-14
30
0
40
89.999999999997669
210
0
220
0
230
1
100
AcDbArc
50
159.83742567869444
51
200.16257316586481
0
CIRCLE
5
172
100
AcDbEntity
8
0
100
AcDbCircle
10
3.9999991390646095
20
-42.60840438661166
30
0
40
1.6000000000000003
210
0
220
0
230
1
0
CIRCLE
5
173
100
AcDbEntity
8
0
100
AcDbCircle
10
18.067771513053366
20
26.684867337122569
30
0
40
1.6000000000000012
210
0
220
0
230
1
0
LINE
5
174
100
AcDbEntity
8
0
100
AcDbLine
10
-38.131582990803388
20
-59.395758084902823
30
0
11
-57.609297473937119
21
-78.873472568016723
31
0
0
LINE
5
175
100
AcDbEntity
8
0
100
AcDbLine
10
26.771747586167631
20
-60.571013991886566
30
0
11
43.427120952197562
21
-88.023870258845633
31
0
0
LINE
5
176
100
AcDbEntity
8
0
100
AcDbLine
10
73.486920328622205
20
-24.040419025564965
30
0
11
81.19300330254606
21
-31.74650199948811
31
0
0
ARC
5
177
100
AcDbEntity
8
0
100
AcDbCircle
10
-82.607217327262092
20
-30.332287177962591
30
0
40
1.9999999999999851
210
0
220
0
230
1
100
AcDbArc
50
200.16257316586351
51
314.99999999999858
0
LINE
5
178
100
AcDbEntity
8
0
100
AcDbLine
10
38.131581269306892
20
-56.567330960156355
30
0
11
70.658493203875651
21
-24.040419025565392
31
0
0
ENDSEC
0
SECTION
2
OBJECTS
0
DICTIONARY
5
C
100
AcDbDictionary
3
ACAD_GROUP
350
D
3
ACAD_MLINESTYLE
350
17
0
DICTIONARY
5
D
100
AcDbDictionary
0
DICTIONARY
5
1A
330
C
100
AcDbDictionary
0
DICTIONARY
5
17
100
AcDbDictionary
0
ENDSEC
0
EOF
