0
SECTION
2
HEADER
9
$INSUNITS
70
4
9
$ACADVER
1
AC1014
9
$HANDSEED
5
FFFF
0
ENDSEC
0
SECTION
2
TABLES
0
TABLE
2
VPORT
5
8
100
AcDbSymbolTable
0
ENDTAB
0
TABLE
2
LTYPE
5
5
100
AcDbSymbolTable
0
LTYPE
5
14
100
AcDbSymbolTableRecord
100
AcDbLinetypeTableRecord
2
BYBLOCK
70
0
0
LTYPE
5
15
100
AcDbSymbolTableRecord
100
AcDbLinetypeTableRecord
2
BYLAYER
70
0
0
ENDTAB
0
TABLE
2
LAYER
5
2
100
AcDbSymbolTable
70
2
0
LAYER
5
50
100
AcDbSymbolTableRecord
100
AcDbLayerTableRecord
2
0
70
0
6
CONTINUOUS
0
ENDTAB
0
TABLE
2
STYLE
5
3
100
AcDbSymbolTable
70
1
0
STYLE
5
11
100
AcDbSymbolTableRecord
100
AcDbTextStyleTableRecord
2
STANDARD
70
0
0
ENDTAB
0
TABLE
2
VIEW
5
6
100
AcDbSymbolTable
70
0
0
ENDTAB
0
TABLE
2
UCS
5
7
100
AcDbSymbolTable
70
0
0
ENDTAB
0
TABLE
2
APPID
5
9
100
AcDbSymbolTable
70
2
0
APPID
5
12
100
AcDbSymbolTableRecord
100
AcDbRegAppTableRecord
2
ACAD
70
0
0
ENDTAB
0
TABLE
2
DIMSTYLE
5
A
100
AcDbSymbolTable
70
1
0
ENDTAB
0
TABLE
2
BLOCK_RECORD
5
1
100
AcDbSymbolTable
70
1
0
BLOCK_RECORD
5
1F
100
AcDbSymbolTableRecord
100
AcDbBlockTableRecord
2
*MODEL_SPACE
0
BLOCK_RECORD
5
1B
100
AcDbSymbolTableRecord
100
AcDbBlockTableRecord
2
*PAPER_SPACE
0
ENDTAB
0
ENDSEC
0
SECTION
2
BLOCKS
0
BLOCK
5
20
100
AcDbEntity
100
AcDbBlockBegin
2
*MODEL_SPACE
0
ENDBLK
5
21
100
AcDbEntity
100
AcDbBlockEnd
0
BLOCK
5
1C
100
AcDbEntity
100
AcDbBlockBegin
2
*PAPER_SPACE
0
ENDBLK
5
1D
100
AcDbEntity
100
AcDbBlockEnd
0
ENDSEC
0
SECTION
2
ENTITIES
0
CIRCLE
5
100
100
AcDbEntity
8
0
100
AcDbCircle
10
28.232087595197424
20
-37.475447152524282
30
0
40
1.5000000000000122
210
1.9842605207724463e-47
220
5.5074292925406779e-64
230
1
0
CIRCLE
5
101
100
AcDbEntity
8
0
100
AcDbCircle
10
-81.270544109353992
20
24.901780192745324
30
0
40
1.5999999999999925
210
1.9158377441940858e-47
220
5.3175179376254806e-64
230
1
0
CIRCLE
5
102
100
AcDbEntity
8
0
100
AcDbCircle
10
81.270543526268057
20
-24.901782095729988
30
0
40
1.6000000000000014
210
-2.4632199568209675e-47
220
-6.8368087769470457e-64
230
1
0
CIRCLE
5
103
100
AcDbEntity
8
0
100
AcDbCircle
10
-28.23208507017921
20
37.475448583705308
30
0
40
1.5000000000000122
210
1.9842605207724463e-47
220
5.5074292925406779e-64
230
1
0
CIRCLE
5
104
100
AcDbEntity
8
0
100
AcDbCircle
10
51.566611374353506
20
-14.14092337336818
30
0
40
1.5000000000000122
210
1.9842605207724463e-47
220
5.5074292925406779e-64
230
1
0
CIRCLE
5
105
100
AcDbEntity
8
0
100
AcDbCircle
10
-81.270543526268057
20
-24.901782095729995
30
0
40
1.5999999999999925
210
1.9158377441940858e-47
220
5.3175179376254806e-64
230
1
0
CIRCLE
5
106
100
AcDbEntity
8
0
100
AcDbCircle
10
81.270544109353992
20
24.901780192745335
30
0
40
1.6000000000000014
210
-2.4632199568209675e-47
220
-6.8368087769470457e-64
230
1
0
CIRCLE
5
107
100
AcDbEntity
8
0
100
AcDbCircle
10
-51.566608849335296
20
14.14092480454922
30
0
40
1.5000000000000122
210
1.9842605207724463e-47
220
5.5074292925406779e-64
230
1
0
CIRCLE
5
108
100
AcDbEntity
8
0
100
AcDbCircle
10
-28.23208507017921
20
-37.475447152524282
30
0
40
1.5000000000000122
210
1.9842605207724463e-47
220
5.5074292925406779e-64
230
1
0
CIRCLE
5
109
100
AcDbEntity
8
0
100
AcDbCircle
10
-51.566608849335296
20
-14.140923373368183
30
0
40
1.5000000000000122
210
1.9842605207724463e-47
220
5.5074292925406779e-64
230
1
0
CIRCLE
5
110
100
AcDbEntity
8
0
100
AcDbCircle
10
28.232087595197424
20
37.475448583705308
30
0
40
1.5000000000000122
210
1.9842605207724463e-47
220
5.5074292925406779e-64
230
1
0
CIRCLE
5
111
100
AcDbEntity
8
0
100
AcDbCircle
10
51.566611374353506
20
14.140924804549224
30
0
40
1.5000000000000122
210
1.9842605207724463e-47
220
5.5074292925406779e-64
230
1
0
CIRCLE
5
112
100
AcDbEntity
8
0
100
AcDbCircle
10
4.000000860936046
20
42.60840438661171
30
0
40
1.6000000000000001
210
1.1295225470795197e-62
220
6.1288403311782691e-109
230
1
0
CIRCLE
5
113
100
AcDbEntity
8
0
100
AcDbCircle
10
-3.9999991390639544
20
42.60840438661171
30
0
40
1.6000000000000003
210
1.1295225470795197e-62
220
6.1288403311782691e-109
230
1
0
CIRCLE
5
114
100
AcDbEntity
8
0
100
AcDbCircle
10
4.0000008609360451
20
22.608404386611713
30
0
40
1.6000000000000003
210
1.1295225470795197e-62
220
6.1288403311782691e-109
230
1
0
CIRCLE
5
115
100
AcDbEntity
8
0
100
AcDbCircle
10
-3.9999991390639549
20
22.608404386611713
30
0
40
1.600000000000001
210
1.1295225470795197e-62
220
6.1288403311782691e-109
230
1
0
CIRCLE
5
116
100
AcDbEntity
8
0
100
AcDbCircle
10
-18.067771513052708
20
-26.684867337122498
30
0
40
1.6000000000000014
210
1.1295225470795195e-62
220
6.1288403311782682e-109
230
1
0
CIRCLE
5
117
100
AcDbEntity
8
0
100
AcDbCircle
10
18.067784852046465
20
-78.315132662877502
30
0
40
1.6000000000000059
210
1.1295225470795197e-62
220
6.1288403311782691e-109
230
1
0
CIRCLE
5
118
100
AcDbEntity
8
0
100
AcDbCircle
10
-18.067771513052698
20
-78.315132662877502
30
0
40
1.6000000000000125
210
1.1295225470795195e-62
220
2.4651903288156619e-32
230
1
0
CIRCLE
5
119
100
AcDbEntity
8
0
100
AcDbCircle
10
18.067784852046476
20
-26.684867337122498
30
0
40
1.6000000000000014
210
1.1295225470795195e-62
220
6.1288403311782682e-109
230
1
0
CIRCLE
5
120
100
AcDbEntity
8
0
100
AcDbCircle
10
46.844550611788989
20
82.647371875816717
30
0
40
1.5999999999999925
210
1.9158377441940858e-47
220
5.3175179376254806e-64
230
1
0
CIRCLE
5
121
100
AcDbEntity
8
0
100
AcDbCircle
10
-46.844549277173471
20
82.647372632277126
30
0
40
1.5999999999999925
210
1.9158377441940858e-47
220
5.3175179376254806e-64
230
1
0
LWPOLYLINE
5
122
100
AcDbEntity
8
0
100
AcDbPolyline
90
40
70
1
43
0.0
10
-25.06182913574337
20
59.608404416413983
42
-0.2621363110506445
10
-26.77174758616696
20
60.571013991886645
10
-43.427120952196894
20
88.023870258845704
42
0.3948175270019727
10
-46.05820347206177
20
88.761714116651419
42
0.033017616068185672
10
-57.341921325381207
20
81.926211060403574
42
0.46636607269409636
10
-57.609296461245918
20
78.873473276821755
10
-38.131581269307382
20
59.395758084902894
42
-0.41421356237315254
10
-38.131581269306224
20
56.56733096015644
10
-70.658493203874983
20
24.04041902556548
42
-0.41421356237318108
10
-73.486920328621551
20
24.040419025565036
10
-81.193003302545407
20
31.746501999488174
42
0.54769627649880948
10
-84.484653611848444
20
31.02165862886768
42
0.17779023951275003
10
-84.48464690559652
20
-31.021676892725939
42
0.54769577136940284
10
-81.192998637680986
20
-31.746521749840117
10
-73.48687378316049
20
-24.040417518416128
42
-0.41421317045297162
10
-70.658448550773528
20
-24.040419410773922
10
-38.131536281215851
20
-56.567331680353867
42
-0.41421388491450406
10
-38.131537838585245
20
-59.39576036246671
10
-50.416130692579983
20
-71.68032616027736
42
0.47249777641738344
10
-50.115598657748023
20
-74.755780854563469
42
0.30418116479618074
10
50.115609737379508
20
-74.755773426877724
42
0.47249739432297783
10
50.416143083365625
20
-71.680320455017693
10
38.131582990803608
20
-59.395760362468401
42
-0.41421356237309825
10
38.131582990802656
20
-56.567333237722224
10
70.658494925371699
20
-24.040421303130991
42
-0.41421356237319068
10
73.486922050118267
20
-24.040421303130522
10
81.193003153201346
20
-31.746502406212926
42
0.54769627489867012
10
84.484653459110163
20
-31.021659044836134
42
0.17779018109822028
10
84.484654084700537
20
31.021657341098123
42
0.54769628145257809
10
81.193003764889681
20
31.746500740335758
10
73.486922050118281
20
24.040419025565065
42
-0.41421356237318979
10
70.658494925371699
20
24.040419025565512
10
38.13158299080289
20
56.56733096015644
42
-0.41421356237315526
10
38.131582990804048
20
59.395758084902894
10
57.609297473937779
20
78.873472568016822
42
0.46636606885491311
10
57.341922358740348
20
81.926210337133213
42
0.033017615452750511
10
46.058204809909483
20
88.761713422446007
42
0.39481753134232461
10
43.427122263341936
20
88.023869578613755
10
26.771749307985004
20
60.571013991797322
42
-0.26213631103668067
10
25.061830857615629
20
59.608404416414011
0
CIRCLE
5
123
100
AcDbEntity
8
0
100
AcDbCircle
10
28.232087595197424
20
-37.475447152524282
30
0
40
1.5000000000000124
210
0
220
0
230
1
0
CIRCLE
5
124
100
AcDbEntity
8
0
100
AcDbCircle
10
-81.270544109353992
20
24.901780192745324
30
0
40
1.5999999999999925
210
0
220
0
230
1
0
CIRCLE
5
125
100
AcDbEntity
8
0
100
AcDbCircle
10
81.270543526268057
20
-24.901782095729988
30
0
40
1.6000000000000014
210
0
220
0
230
1
0
CIRCLE
5
126
100
AcDbEntity
8
0
100
AcDbCircle
10
-28.23208507017921
20
37.475448583705308
30
0
40
1.5000000000000124
210
0
220
0
230
1
0
CIRCLE
5
127
100
AcDbEntity
8
0
100
AcDbCircle
10
51.566611374353506
20
-14.14092337336818
30
0
40
1.5000000000000124
210
0
220
0
230
1
0
CIRCLE
5
128
100
AcDbEntity
8
0
100
AcDbCircle
10
-81.270543526268057
20
-24.901782095729995
30
0
40
1.5999999999999925
210
0
220
0
230
1
0
CIRCLE
5
129
100
AcDbEntity
8
0
100
AcDbCircle
10
81.270544109353992
20
24.901780192745335
30
0
40
1.6000000000000014
210
0
220
0
230
1
0
CIRCLE
5
130
100
AcDbEntity
8
0
100
AcDbCircle
10
-51.566608849335296
20
14.14092480454922
30
0
40
1.5000000000000124
210
0
220
0
230
1
0
CIRCLE
5
131
100
AcDbEntity
8
0
100
AcDbCircle
10
-28.23208507017921
20
-37.475447152524282
30
0
40
1.5000000000000124
210
0
220
0
230
1
0
CIRCLE
5
132
100
AcDbEntity
8
0
100
AcDbCircle
10
-51.566608849335296
20
-14.140923373368183
30
0
40
1.5000000000000124
210
0
220
0
230
1
0
CIRCLE
5
133
100
AcDbEntity
8
0
100
AcDbCircle
10
28.232087595197424
20
37.475448583705308
30
0
40
1.5000000000000124
210
0
220
0
230
1
0
CIRCLE
5
134
100
AcDbEntity
8
0
100
AcDbCircle
10
51.566611374353506
20
14.140924804549224
30
0
40
1.5000000000000124
210
0
220
0
230
1
0
CIRCLE
5
135
100
AcDbEntity
8
0
100
AcDbCircle
10
4.000000860936046
20
42.60840438661171
30
0
40
1.6000000000000001
210
0
220
0
230
1
0
CIRCLE
5
136
100
AcDbEntity
8
0
100
AcDbCircle
10
-3.9999991390639544
20
42.60840438661171
30
0
40
1.6000000000000003
210
0
220
0
230
1
0
CIRCLE
5
137
100
AcDbEntity
8
0
100
AcDbCircle
10
4.0000008609360451
20
22.608404386611713
30
0
40
1.6000000000000003
210
0
220
0
230
1
0
CIRCLE
5
138
100
AcDbEntity
8
0
100
AcDbCircle
10
-3.9999991390639549
20
22.608404386611713
30
0
40
1.600000000000001
210
0
220
0
230
1
0
CIRCLE
5
139
100
AcDbEntity
8
0
100
AcDbCircle
10
-18.067771513052708
20
-26.684867337122498
30
0
40
1.6000000000000014
210
0
220
0
230
1
0
CIRCLE
5
140
100
AcDbEntity
8
0
100
AcDbCircle
10
18.067784852046465
20
-78.315132662877502
30
0
40
1.6000000000000059
210
0
220
0
230
1
0
CIRCLE
5
141
100
AcDbEntity
8
0
100
AcDbCircle
10
-18.067771513052698
20
-78.315132662877502
30
0
40
1.6000000000000125
210
0
220
0
230
1
0
CIRCLE
5
142
100
AcDbEntity
8
0
100
AcDbCircle
10
18.067784852046476
20
-26.684867337122498
30
0
40
1.6000000000000014
210
0
220
0
230
1
0
CIRCLE
5
143
100
AcDbEntity
8
0
100
AcDbCircle
10
46.844550611788989
20
82.647371875816717
30
0
40
1.5999999999999925
210
0
220
0
230
1
0
CIRCLE
5
144
100
AcDbEntity
8
0
100
AcDbCircle
10
-46.844549277173471
20
82.647372632277126
30
0
40
1.5999999999999925
210
0
220
0
230
1
0
LWPOLYLINE
5
145
100
AcDbEntity
8
0
100
AcDbPolyline
90
40
70
1
43
0.0
10
-25.06182913574337
20
59.608404416413983
42
-0.2621363110506445
10
-26.77174758616696
20
60.571013991886645
10
-43.427120952196894
20
88.023870258845704
42
0.39481752700196432
10
-46.05820347206177
20
88.761714116651461
42
0.033017616068186734
10
-57.341921325381236
20
81.92621106040356
42
0.46636607269408936
10
-57.609296461245918
20
78.873473276821755
10
-38.131581269307382
20
59.395758084902894
42
-0.41421356237315432
10
-38.131581269306224
20
56.56733096015644
10
-70.658493203874983
20
24.04041902556548
42
-0.41421356237318108
10
-73.486920328621551
20
24.040419025565033
10
-81.193003302545407
20
31.746501999488167
42
0.54769627649881458
10
-84.484653611848444
20
31.021658628867669
42
0.17779023951274633
10
-84.484646905596534
20
-31.021676892725939
42
0.54769577136940673
10
-81.192998637680986
20
-31.746521749840113
10
-73.48687378316049
20
-24.040417518416128
42
-0.41421317045297068
10
-70.658448550773528
20
-24.040419410773929
10
-38.131536281215844
20
-56.567331680353874
42
-0.41421388491450223
10
-38.131537838585245
20
-59.39576036246671
10
-50.416130692579983
20
-71.680326160277374
42
0.47249777641738189
10
-50.115598657748002
20
-74.755780854563454
42
0.30418116479616436
10
50.115609737379529
20
-74.755773426877695
42
0.47249739432297466
10
50.416143083365625
20
-71.680320455017693
10
38.131582990803601
20
-59.395760362468394
42
-0.41421356237309964
10
38.131582990802656
20
-56.567333237722224
10
70.658494925371699
20
-24.040421303130994
42
-0.41421356237319118
10
73.486922050118267
20
-24.040421303130518
10
81.193003153201346
20
-31.746502406212947
42
0.54769627489867245
10
84.484653459110177
20
-31.021659044836131
42
0.17779018109822409
10
84.484654084700509
20
31.021657341098162
42
0.5476962814525681
10
81.193003764889681
20
31.746500740335755
10
73.486922050118267
20
24.040419025565065
42
-0.41421356237318935
10
70.658494925371699
20
24.040419025565516
10
38.13158299080289
20
56.56733096015644
42
-0.41421356237315526
10
38.131582990804048
20
59.395758084902894
10
57.609297473937772
20
78.873472568016822
42
0.46636606885491549
10
57.341922358740369
20
81.926210337133227
42
0.033017615452752204
10
46.058204809909455
20
88.761713422446022
42
0.39481753134232067
10
43.427122263341928
20
88.023869578613755
10
26.771749307984997
20
60.571013991797329
42
-0.26213631103668039
10
25.061830857615632
20
59.608404416414018
0
ENDSEC
0
SECTION
2
OBJECTS
0
DICTIONARY
5
C
100
AcDbDictionary
3
ACAD_GROUP
350
D
3
ACAD_MLINESTYLE
350
17
0
DICTIONARY
5
D
100
AcDbDictionary
0
DICTIONARY
5
1A
330
C
100
AcDbDictionary
0
DICTIONARY
5
17
100
AcDbDictionary
0
ENDSEC
0
EOF
