0
SECTION
2
HEADER
9
$INSUNITS
70
4
9
$ACADVER
1
AC1014
9
$HANDSEED
5
FFFF
0
ENDSEC
0
SECTION
2
TABLES
0
TABLE
2
VPORT
5
8
100
AcDbSymbolTable
0
ENDTAB
0
TABLE
2
LTYPE
5
5
100
AcDbSymbolTable
0
LTYPE
5
14
100
AcDbSymbolTableRecord
100
AcDbLinetypeTableRecord
2
BYBLOCK
70
0
0
LTYPE
5
15
100
AcDbSymbolTableRecord
100
AcDbLinetypeTableRecord
2
BYLAYER
70
0
0
ENDTAB
0
TABLE
2
LAYER
5
2
100
AcDbSymbolTable
70
2
0
LAYER
5
50
100
AcDbSymbolTableRecord
100
AcDbLayerTableRecord
2
0
70
0
6
CONTINUOUS
0
ENDTAB
0
TABLE
2
STYLE
5
3
100
AcDbSymbolTable
70
1
0
STYLE
5
11
100
AcDbSymbolTableRecord
100
AcDbTextStyleTableRecord
2
STANDARD
70
0
0
ENDTAB
0
TABLE
2
VIEW
5
6
100
AcDbSymbolTable
70
0
0
ENDTAB
0
TABLE
2
UCS
5
7
100
AcDbSymbolTable
70
0
0
ENDTAB
0
TABLE
2
APPID
5
9
100
AcDbSymbolTable
70
2
0
APPID
5
12
100
AcDbSymbolTableRecord
100
AcDbRegAppTableRecord
2
ACAD
70
0
0
ENDTAB
0
TABLE
2
DIMSTYLE
5
A
100
AcDbSymbolTable
70
1
0
ENDTAB
0
TABLE
2
BLOCK_RECORD
5
1
100
AcDbSymbolTable
70
1
0
BLOCK_RECORD
5
1F
100
AcDbSymbolTableRecord
100
AcDbBlockTableRecord
2
*MODEL_SPACE
0
BLOCK_RECORD
5
1B
100
AcDbSymbolTableRecord
100
AcDbBlockTableRecord
2
*PAPER_SPACE
0
ENDTAB
0
ENDSEC
0
SECTION
2
BLOCKS
0
BLOCK
5
20
100
AcDbEntity
100
AcDbBlockBegin
2
*MODEL_SPACE
0
ENDBLK
5
21
100
AcDbEntity
100
AcDbBlockEnd
0
BLOCK
5
1C
100
AcDbEntity
100
AcDbBlockBegin
2
*PAPER_SPACE
0
ENDBLK
5
1D
100
AcDbEntity
100
AcDbBlockEnd
0
ENDSEC
0
SECTION
2
ENTITIES
0
CIRCLE
5
100
100
AcDbEntity
8
0
100
AcDbCircle
10
81.270544109353992
20
-24.901780192745328
30
0
40
1.5999999999999943
210
0
220
0
230
1
0
CIRCLE
5
101
100
AcDbEntity
8
0
100
AcDbCircle
10
81.270543526268057
20
24.901782095729992
30
0
40
1.5999999999999943
210
0
220
0
230
1
0
CIRCLE
5
102
100
AcDbEntity
8
0
100
AcDbCircle
10
-81.270544109353992
20
-24.901780192745328
30
0
40
1.5999999999999943
210
0
220
0
230
1
0
CIRCLE
5
103
100
AcDbEntity
8
0
100
AcDbCircle
10
-28.23208507017921
20
37.475447152524282
30
-1.8409999999999999e-13
40
1.5000000000000144
210
0
220
0
230
1
0
CIRCLE
5
104
100
AcDbEntity
8
0
100
AcDbCircle
10
28.232087595197424
20
-37.475448583705308
30
-1.7960000000000004e-13
40
1.5000000000000144
210
0
220
0
230
1
0
CIRCLE
5
105
100
AcDbEntity
8
0
100
AcDbCircle
10
28.232087595197424
20
37.475447152524282
30
-1.8409999999999999e-13
40
1.5000000000000144
210
0
220
0
230
1
0
CIRCLE
5
106
100
AcDbEntity
8
0
100
AcDbCircle
10
51.566611374353506
20
14.140923373368182
30
-1.9270000000000003e-13
40
1.5000000000000144
210
0
220
0
230
1
0
CIRCLE
5
107
100
AcDbEntity
8
0
100
AcDbCircle
10
-51.566608849335296
20
14.140923373368182
30
-1.9270000000000003e-13
40
1.5000000000000144
210
0
220
0
230
1
0
CIRCLE
5
108
100
AcDbEntity
8
0
100
AcDbCircle
10
-81.270543526268057
20
24.901782095729992
30
0
40
1.5999999999999943
210
0
220
0
230
1
0
CIRCLE
5
109
100
AcDbEntity
8
0
100
AcDbCircle
10
-51.566608849335296
20
-14.140924804549222
30
-1.9100000000000002e-13
40
1.5000000000000144
210
0
220
0
230
1
0
LWPOLYLINE
5
110
100
AcDbEntity
8
0
100
AcDbPolyline
90
54
70
1
43
0.0
10
31.096509401932607
20
-67.699465136597496
10
26.771749351764235
20
-60.571013965236887
42
0.26213631384530639
10
25.061830857615629
20
-59.608404398700316
10
6.6278674992759079e-07
20
-59.608404415561871
10
-25.061829135743366
20
-59.608404416373716
42
0.26213631105087049
10
-26.77174758616696
20
-60.571013991886645
10
-31.09650762906595
20
-67.699465167226109
10
-38.227300985232723
20
-79.453068090082454
10
-43.427120952196894
20
-88.023870258845704
42
-0.39481752700198069
10
-46.058203472061834
20
-88.761714116651461
42
-0.033017616068185512
10
-57.341921325381236
20
-81.92621106040356
42
-0.46636607269409147
10
-57.609296461245918
20
-78.873473276821755
10
-38.131581269307382
20
-59.395758084902894
42
0.41421356237315432
10
-38.131581269306224
20
-56.56733096015644
10
-70.658493203874983
20
-24.04041902556548
42
0.41421356237318108
10
-73.486920328621551
20
-24.040419025565036
10
-81.193003302545407
20
-31.746501999488174
42
-0.54769627649880992
10
-84.484653611848444
20
-31.021658628867712
42
-0.17779023951274989
10
-84.484646905596534
20
31.021676892725928
42
-0.54769577136940506
10
-81.192998637680986
20
31.746521749840113
10
-73.48687378316049
20
24.040417518416128
42
0.41421317045297068
10
-70.658448550773528
20
24.040419410773922
10
-38.131536281215844
20
56.567331680353874
42
0.41421388491450267
10
-38.131537838585245
20
59.39576036246671
10
-50.416130692579983
20
71.680326160277374
42
-0.47249777641738355
10
-50.115598657748052
20
74.75578085456344
42
-0.10209198918973736
10
-16.432961780502097
20
88.487048584075566
42
-0.46907589691412871
10
-14.067784852046492
20
86.520669726651661
10
-14.067784852046472
20
78.315132662877517
10
-14.067784852046445
20
67.898159650486306
42
0.46672283651936547
10
-11.717802495841275
20
65.929019647757968
42
-0.088175915291644869
10
11.717815447985521
20
65.929017345724901
42
0.4667228963318672
10
14.067798191040069
20
67.898157279697088
10
14.067798191040097
20
78.315132662877517
10
14.067798191040106
20
86.520667249461297
42
-0.46907594393758029
10
16.432975422654657
20
88.48704605058542
42
-0.10209198768417185
10
50.115609737379543
20
74.755773426877724
42
-0.47249739430752302
10
50.416143083232683
20
71.68032045515065
10
38.131582990679085
20
59.395760362592931
42
0.41421356239212764
10
38.131582989680041
20
56.567333236599609
10
70.658494951217435
20
24.040421328976741
42
0.41421355348343519
10
73.4869219699399
20
24.0404213833054
10
81.193003055902153
20
31.746502503512136
42
-0.54769628842596108
10
84.484654790195492
20
31.021659533593255
42
-0.17779018236891508
10
84.484656460236664
20
-31.021658213363899
42
-0.54769955695372241
10
81.1929786588978
20
-31.746525846327629
10
73.486898901003329
20
-24.040442174680045
42
0.4142071308840849
10
70.658661012205741
20
-24.040585112399668
10
38.131520076328158
20
-56.567268045681814
42
0.41421463185735014
10
38.131575981978443
20
-59.395765093728478
10
57.609289748731463
20
-78.873480293221249
42
-0.46636517952998552
10
57.341921969041096
20
-81.92620978035805
42
-0.033017615452749415
10
46.058204496895215
20
-88.761712819216257
42
-0.39481752489577349
10
43.427122339935792
20
-88.023869532145056
0
CIRCLE
5
111
100
AcDbEntity
8
0
100
AcDbCircle
10
-28.23208507017921
20
-37.475448583705308
30
-1.7960000000000004e-13
40
1.5000000000000144
210
0
220
0
230
1
0
CIRCLE
5
112
100
AcDbEntity
8
0
100
AcDbCircle
10
-46.844549277173471
20
-82.647372632277126
30
0
40
1.5999999999999943
210
0
220
0
230
1
0
CIRCLE
5
113
100
AcDbEntity
8
0
100
AcDbCircle
10
51.566611374353506
20
-14.140924804549222
30
-1.9100000000000002e-13
40
1.5000000000000144
210
0
220
0
230
1
0
CIRCLE
5
114
100
AcDbEntity
8
0
100
AcDbCircle
10
46.844550611788989
20
-82.647371875816717
30
0
40
1.5999999999999943
210
0
220
0
230
1
0
ARC
5
115
100
AcDbEntity
8
0
100
AcDbCircle
10
18.067771513052687
20
78.315132662877502
30
0
40
3.9999999999999929
210
0
220
0
230
1
100
AcDbArc
50
179.79074087378714
51
180.20925912621286
0
CIRCLE
5
116
100
AcDbEntity
8
0
100
AcDbCircle
10
-18.067784852046476
20
78.315132662877502
30
0
40
1.6000000000000036
210
0
220
0
230
1
0
CIRCLE
5
117
100
AcDbEntity
8
0
100
AcDbCircle
10
18.067771513052687
20
78.315132662877502
30
0
40
1.5999999999999994
210
0
220
0
230
1
0
ENDSEC
0
SECTION
2
OBJECTS
0
DICTIONARY
5
C
100
AcDbDictionary
3
ACAD_GROUP
350
D
3
ACAD_MLINESTYLE
350
17
0
DICTIONARY
5
D
100
AcDbDictionary
0
DICTIONARY
5
1A
330
C
100
AcDbDictionary
0
DICTIONARY
5
17
100
AcDbDictionary
0
ENDSEC
0
EOF
