0
SECTION
2
HEADER
9
$INSUNITS
70
4
9
$ACADVER
1
AC1014
9
$HANDSEED
5
FFFF
0
ENDSEC
0
SECTION
2
TABLES
0
TABLE
2
VPORT
5
8
100
AcDbSymbolTable
0
ENDTAB
0
TABLE
2
LTYPE
5
5
100
AcDbSymbolTable
0
LTYPE
5
14
100
AcDbSymbolTableRecord
100
AcDbLinetypeTableRecord
2
BYBLOCK
70
0
0
LTYPE
5
15
100
AcDbSymbolTableRecord
100
AcDbLinetypeTableRecord
2
BYLAYER
70
0
0
ENDTAB
0
TABLE
2
LAYER
5
2
100
AcDbSymbolTable
70
2
0
LAYER
5
50
100
AcDbSymbolTableRecord
100
AcDbLayerTableRecord
2
0
70
0
6
CONTINUOUS
0
ENDTAB
0
TABLE
2
STYLE
5
3
100
AcDbSymbolTable
70
1
0
STYLE
5
11
100
AcDbSymbolTableRecord
100
AcDbTextStyleTableRecord
2
STANDARD
70
0
0
ENDTAB
0
TABLE
2
VIEW
5
6
100
AcDbSymbolTable
70
0
0
ENDTAB
0
TABLE
2
UCS
5
7
100
AcDbSymbolTable
70
0
0
ENDTAB
0
TABLE
2
APPID
5
9
100
AcDbSymbolTable
70
2
0
APPID
5
12
100
AcDbSymbolTableRecord
100
AcDbRegAppTableRecord
2
ACAD
70
0
0
ENDTAB
0
TABLE
2
DIMSTYLE
5
A
100
AcDbSymbolTable
70
1
0
ENDTAB
0
TABLE
2
BLOCK_RECORD
5
1
100
AcDbSymbolTable
70
1
0
BLOCK_RECORD
5
1F
100
AcDbSymbolTableRecord
100
AcDbBlockTableRecord
2
*MODEL_SPACE
0
BLOCK_RECORD
5
1B
100
AcDbSymbolTableRecord
100
AcDbBlockTableRecord
2
*PAPER_SPACE
0
ENDTAB
0
ENDSEC
0
SECTION
2
BLOCKS
0
BLOCK
5
20
100
AcDbEntity
100
AcDbBlockBegin
2
*MODEL_SPACE
0
ENDBLK
5
21
100
AcDbEntity
100
AcDbBlockEnd
0
BLOCK
5
1C
100
AcDbEntity
100
AcDbBlockBegin
2
*PAPER_SPACE
0
ENDBLK
5
1D
100
AcDbEntity
100
AcDbBlockEnd
0
ENDSEC
0
SECTION
2
ENTITIES
0
LWPOLYLINE
5
100
100
AcDbEntity
8
0
100
AcDbPolyline
90
8
70
1
43
0.0
10
-77.443024890692442
20
-17.019012679343884
42
-0.52853902649794937
10
-80.48001572847086
20
-15.715185915065657
42
-0.096720813488369931
10
-80.480010599261618
20
15.715212182555806
42
-0.52854017485982752
10
-77.443013278420096
20
17.019034099228438
42
0.091871602013183729
10
-74.063870672742141
20
15.654883564503868
42
-0.40878341282452252
10
-72.495103621088475
20
13.333165077133209
42
0.091194273761085354
10
-72.495105253657201
20
-13.33315620052479
42
-0.40878444340378378
10
-74.063879512313392
20
-15.654875902421283
42
0.091871535886267661
0
LWPOLYLINE
5
101
100
AcDbEntity
8
0
100
AcDbPolyline
90
8
70
1
43
0.0
10
72.495104946661982
20
13.333165077133293
42
-0.091194273761085687
10
72.495106579230821
20
-13.333156200524767
42
0.40878444340378817
10
74.063880837886956
20
-15.654875902421303
42
-0.091871535886267217
10
77.443026216266063
20
-17.019012679343906
42
0.52853902649799966
10
80.480017054044367
20
-15.715185915065856
42
0.096720813488371055
10
80.480011924835182
20
15.715212182555822
42
0.52854017485982396
10
77.443014603993703
20
17.019034099228399
42
-0.091871602013187198
10
74.063871998315761
20
15.654883564503887
42
0.40878341282452962
0
LWPOLYLINE
5
102
100
AcDbEntity
8
0
100
AcDbPolyline
90
10
70
1
43
0.0
10
-22.067784852046479
20
67.898159650486321
42
0.065847692072351666
10
-21.723899946926736
20
65.29826709993236
42
-0.38892253532842447
10
-22.969091869605155
20
62.899629138267755
42
0.019162822020217744
10
-27.717694326408445
20
60.956311800122656
42
-0.41881070782328522
10
-30.378920530031518
20
61.977698434997983
42
0.093849612948855507
10
-32.474689818568393
20
65.052620841427768
10
-37.438104613292545
20
70.016024704486099
42
-0.51082990354999103
10
-36.924489923495599
20
73.215995819832017
42
-0.040401660566049845
10
-24.669479473347682
20
78.201130314811053
42
-0.50682706380034315
10
-22.067784852046493
20
76.293785672986417
0
LWPOLYLINE
5
103
100
AcDbEntity
8
0
100
AcDbPolyline
90
53
70
1
43
0.0
10
-84.484646905596534
20
31.021676892725978
42
0.17779023951274828
10
-84.484653611848458
20
-31.02165862886773
42
0.54769627649881025
10
-81.193003302545378
20
-31.74650199948822
10
-73.486920328621579
20
-24.040419025565051
42
-0.41421356237318291
10
-70.658493203874983
20
-24.04041902556548
10
-38.131581269306231
20
-56.567330960156433
42
-0.41421356237314516
10
-38.131581269307368
20
-59.395758084902894
10
-57.609296461245904
20
-78.873473276821755
42
0.46636607269410019
10
-57.341921325381158
20
-81.926211060403574
42
0.033017616068181072
10
-46.058203472061862
20
-88.76171411665139
42
0.39481752700199874
10
-43.427120952196894
20
-88.023870258845704
10
-38.227300985232723
20
-79.453068090082454
10
-31.09650762906595
20
-67.699465167226109
10
-26.77174758616696
20
-60.571013991886645
42
-0.26213631105087171
10
-25.06182913574337
20
-59.60840441637373
10
25.061830857615632
20
-59.60840439870033
42
-0.26213631384531472
10
26.771749351764242
20
-60.571013965236908
10
31.096509401932614
20
-67.699465136597496
10
43.427122339935799
20
-88.023869532145071
42
0.39481752489576849
10
46.058204496895257
20
-88.761712819216285
42
0.033017615452753085
10
57.341921969041152
20
-81.92620978035805
42
0.46636517952997408
10
57.609289748731463
20
-78.873480293221263
10
38.131575981978415
20
-59.395765093728485
42
-0.41421463185735469
10
38.131520076328172
20
-56.5672680456818
10
70.658661012205769
20
-24.040585112399672
42
-0.41420713088408578
10
73.486898901003343
20
-24.040442174680052
10
81.192978658897786
20
-31.746525846327643
42
0.54769955695373829
10
84.484656460236636
20
-31.021658213363949
42
0.17779018236891556
10
84.484654790195478
20
31.021659533593287
42
0.54769628842593887
10
81.193003055902139
20
31.74650250351214
10
73.486921969939914
20
24.040421383305393
42
-0.41421355348343292
10
70.658494951217435
20
24.040421328976734
10
38.131582989680048
20
56.567333236599602
42
-0.41421356239212714
10
38.1315829906791
20
59.395760362592931
10
50.416143083232676
20
71.680320455150664
42
0.47249739430751247
10
50.115609737379607
20
74.755773426877766
42
0.10209198768417231
10
16.432975422654703
20
88.48704605058542
42
0.46907594393758212
10
14.067798191040088
20
86.520667249461297
10
14.067798191040088
20
78.315132662877502
10
14.06779819104006
20
67.898157279697088
42
-0.46672289633186015
10
11.71781544798559
20
65.929017345724915
42
0.088175915291647547
10
-11.717802495841319
20
65.929019647757983
42
-0.46672283651936597
10
-14.06778485204644
20
67.898159650486321
10
-14.067784852046472
20
78.315132662877502
10
-14.067784852046488
20
86.520669726651661
42
0.46907589691413193
10
-16.432961780502055
20
88.487048584075566
42
0.10209198918973703
10
-50.11559865774813
20
74.755780854563483
42
0.47249777641738228
10
-50.416130692579983
20
71.680326160277374
10
-38.131537838585253
20
59.39576036246671
42
-0.41421388491450861
10
-38.131536281215851
20
56.567331680353888
10
-70.658448550773528
20
24.040419410773918
42
-0.41421317045297068
10
-73.48687378316049
20
24.040417518416128
10
-81.192998637681001
20
31.746521749840117
42
0.54769577136941427
0
CIRCLE
5
104
100
AcDbEntity
8
0
100
AcDbCircle
10
-52.273718614527596
20
14.848035570271691
30
-4.3999999999999997e-15
40
1.5000000000000113
210
0
220
0
230
1
0
CIRCLE
5
105
100
AcDbEntity
8
0
100
AcDbCircle
10
18.067771513052719
20
26.684869759683298
30
-1.4999999984102054e-15
40
1.6000000000000003
210
0
220
-6.1288399999999999e-10
230
1
0
CIRCLE
5
106
100
AcDbEntity
8
0
100
AcDbCircle
10
28.939148293279061
20
38.182557624565007
30
-7.2000000000000002e-15
40
1.5000000000000113
210
0
220
0
230
1
0
CIRCLE
5
107
100
AcDbEntity
8
0
100
AcDbCircle
10
18.067771513052694
20
78.315132662877502
30
0
40
1.5999999999999992
210
0
220
0
230
1
0
CIRCLE
5
108
100
AcDbEntity
8
0
100
AcDbCircle
10
-18.067784852046479
20
26.68486975968332
30
-1.4999999984102054e-15
40
1.6000000000000003
210
0
220
-6.1288399999999999e-10
230
1
0
CIRCLE
5
109
100
AcDbEntity
8
0
100
AcDbCircle
10
18.067771513052719
20
26.684869759683298
30
0
40
1.6000000000000003
210
0
220
0
230
1
0
CIRCLE
5
110
100
AcDbEntity
8
0
100
AcDbCircle
10
28.939193113874811
20
-38.182552226740491
30
-6.9999999999999994e-15
40
1.5000000000000113
210
0
220
0
230
1
0
ARC
5
111
100
AcDbEntity
8
0
100
AcDbCircle
10
18.067771513052694
20
78.315132662877502
30
0
40
3.9999999999999929
210
0
220
0
230
1
100
AcDbArc
50
179.79074087378714
51
180.20925912621286
0
CIRCLE
5
112
100
AcDbEntity
8
0
100
AcDbCircle
10
-28.939194835371556
20
-38.182552226740533
30
-6.9999999999999994e-15
40
1.5000000000000113
210
0
220
0
230
1
0
CIRCLE
5
113
100
AcDbEntity
8
0
100
AcDbCircle
10
-28.939194835371488
20
38.182559349427756
30
-7.2000000000000002e-15
40
1.5000000000000113
210
0
220
0
230
1
0
CIRCLE
5
114
100
AcDbEntity
8
0
100
AcDbCircle
10
-52.273718614527652
20
-14.848028447584429
30
-9.7999999999999999e-15
40
1.5000000000000113
210
0
220
0
230
1
0
CIRCLE
5
115
100
AcDbEntity
8
0
100
AcDbCircle
10
81.270543526268057
20
24.901782095729992
30
0
40
1.5999999999999943
210
0
220
0
230
1
0
CIRCLE
5
116
100
AcDbEntity
8
0
100
AcDbCircle
10
46.844550611788982
20
-82.647371875816717
30
0
40
1.5999999999999943
210
0
220
0
230
1
0
CIRCLE
5
117
100
AcDbEntity
8
0
100
AcDbCircle
10
52.27371689303083
20
-14.848028447584429
30
-1.3000000000000002e-15
40
1.5000000000000113
210
0
220
0
230
1
0
CIRCLE
5
118
100
AcDbEntity
8
0
100
AcDbCircle
10
-81.270544109353992
20
-24.901780192745328
30
0
40
1.5999999999999943
210
0
220
0
230
1
0
CIRCLE
5
119
100
AcDbEntity
8
0
100
AcDbCircle
10
-46.844549277173471
20
-82.64737263227714
30
0
40
1.5999999999999943
210
0
220
0
230
1
0
CIRCLE
5
120
100
AcDbEntity
8
0
100
AcDbCircle
10
-18.067784852046479
20
78.315132662877502
30
0
40
1.6000000000000034
210
0
220
0
230
1
0
CIRCLE
5
121
100
AcDbEntity
8
0
100
AcDbCircle
10
-18.067784852046479
20
26.68486975968332
30
0
40
1.6000000000000003
210
0
220
0
230
1
0
CIRCLE
5
122
100
AcDbEntity
8
0
100
AcDbCircle
10
-81.270543526268057
20
24.901782095729992
30
0
40
1.5999999999999943
210
0
220
0
230
1
0
CIRCLE
5
123
100
AcDbEntity
8
0
100
AcDbCircle
10
81.270544109353992
20
-24.901780192745328
30
0
40
1.5999999999999943
210
0
220
0
230
1
0
CIRCLE
5
124
100
AcDbEntity
8
0
100
AcDbCircle
10
52.273672072435104
20
14.84803384540891
30
1.3000000000000002e-15
40
1.5000000000000113
210
0
220
0
230
1
0
ENDSEC
0
SECTION
2
OBJECTS
0
DICTIONARY
5
C
100
AcDbDictionary
3
ACAD_GROUP
350
D
3
ACAD_MLINESTYLE
350
17
0
DICTIONARY
5
D
100
AcDbDictionary
0
DICTIONARY
5
1A
330
C
100
AcDbDictionary
0
DICTIONARY
5
17
100
AcDbDictionary
0
ENDSEC
0
EOF
