0
SECTION
2
HEADER
9
$INSUNITS
70
4
9
$ACADVER
1
AC1014
9
$HANDSEED
5
FFFF
0
ENDSEC
0
SECTION
2
TABLES
0
TABLE
2
VPORT
5
8
100
AcDbSymbolTable
0
ENDTAB
0
TABLE
2
LTYPE
5
5
100
AcDbSymbolTable
0
LTYPE
5
14
100
AcDbSymbolTableRecord
100
AcDbLinetypeTableRecord
2
BYBLOCK
70
0
0
LTYPE
5
15
100
AcDbSymbolTableRecord
100
AcDbLinetypeTableRecord
2
BYLAYER
70
0
0
ENDTAB
0
TABLE
2
LAYER
5
2
100
AcDbSymbolTable
70
2
0
LAYER
5
50
100
AcDbSymbolTableRecord
100
AcDbLayerTableRecord
2
0
70
0
6
CONTINUOUS
0
ENDTAB
0
TABLE
2
STYLE
5
3
100
AcDbSymbolTable
70
1
0
STYLE
5
11
100
AcDbSymbolTableRecord
100
AcDbTextStyleTableRecord
2
STANDARD
70
0
0
ENDTAB
0
TABLE
2
VIEW
5
6
100
AcDbSymbolTable
70
0
0
ENDTAB
0
TABLE
2
UCS
5
7
100
AcDbSymbolTable
70
0
0
ENDTAB
0
TABLE
2
APPID
5
9
100
AcDbSymbolTable
70
2
0
APPID
5
12
100
AcDbSymbolTableRecord
100
AcDbRegAppTableRecord
2
ACAD
70
0
0
ENDTAB
0
TABLE
2
DIMSTYLE
5
A
100
AcDbSymbolTable
70
1
0
ENDTAB
0
TABLE
2
BLOCK_RECORD
5
1
100
AcDbSymbolTable
70
1
0
BLOCK_RECORD
5
1F
100
AcDbSymbolTableRecord
100
AcDbBlockTableRecord
2
*MODEL_SPACE
0
BLOCK_RECORD
5
1B
100
AcDbSymbolTableRecord
100
AcDbBlockTableRecord
2
*PAPER_SPACE
0
ENDTAB
0
ENDSEC
0
SECTION
2
BLOCKS
0
BLOCK
5
20
100
AcDbEntity
100
AcDbBlockBegin
2
*MODEL_SPACE
0
ENDBLK
5
21
100
AcDbEntity
100
AcDbBlockEnd
0
BLOCK
5
1C
100
AcDbEntity
100
AcDbBlockBegin
2
*PAPER_SPACE
0
ENDBLK
5
1D
100
AcDbEntity
100
AcDbBlockEnd
0
ENDSEC
0
SECTION
2
ENTITIES
0
LWPOLYLINE
5
100
100
AcDbEntity
8
0
100
AcDbPolyline
90
51
70
1
43
0.0
10
57.609289748731463
20
-78.873480293221263
10
38.131575981978422
20
-59.395765093728492
42
-0.41421463185735563
10
38.131520076328172
20
-56.5672680456818
10
70.658661012205769
20
-24.040585112399672
42
-0.41420713088408578
10
73.486898901003343
20
-24.040442174680052
10
81.192978658897786
20
-31.746525846327639
42
0.54769955695375316
10
84.484656460236621
20
-31.021658213363949
42
0.1777901823689155
10
84.484654790195478
20
31.021659533593287
42
0.54769628842593676
10
81.193003055902139
20
31.746502503512136
10
73.486921969939914
20
24.040421383305393
42
-0.41421355348343292
10
70.658494951217435
20
24.040421328976734
10
38.131582989680048
20
56.567333236599602
42
-0.41421356239212953
10
38.131582990679092
20
59.395760362592931
10
50.416143083232683
20
71.68032045515065
42
0.4724973943075168
10
50.115609737379607
20
74.755773426877823
42
0.10209198768417145
10
16.432975422654714
20
88.48704605058542
42
0.4690759439375784
10
14.067798191040088
20
86.520667249461297
10
14.067798191040033
20
60.414903018001205
42
-0.47321085596174439
10
11.676039969000813
20
58.453646916553808
42
0.098897429274649687
10
-11.676026976968242
20
58.453648982132556
42
-0.47321080183117159
10
-14.067784852046392
20
60.414905152884742
10
-14.06778485204649
20
86.520669726651661
42
0.46907589691413842
10
-16.432961780502051
20
88.48704858407558
42
0.10209198918973665
10
-50.115598657748137
20
74.755780854563483
42
0.47249777641738305
10
-50.416130692579983
20
71.680326160277374
10
-38.131537838585245
20
59.39576036246671
42
-0.41421388491450817
10
-38.131536281215851
20
56.567331680353888
10
-70.658448550773528
20
24.040419410773922
42
-0.41421317045297068
10
-73.48687378316049
20
24.040417518416135
10
-81.192998637680986
20
31.74652174984012
42
0.54769577136941294
10
-84.484646905596534
20
31.021676892725981
42
0.17779023951274778
10
-84.484653611848444
20
-31.02165862886773
42
0.54769627649881136
10
-81.193003302545378
20
-31.74650199948822
10
-73.486920328621579
20
-24.040419025565054
42
-0.4142135623731889
10
-70.658493203874983
20
-24.04041902556548
10
-38.131581269306224
20
-56.567330960156433
42
-0.41421356237314561
10
-38.131581269307368
20
-59.395758084902894
10
-57.609296461245904
20
-78.873473276821755
42
0.46636607269408309
10
-57.341921325381129
20
-81.926211060403546
42
0.033017616068180822
10
-46.058203472061862
20
-88.76171411665139
42
0.3948175270020014
10
-43.427120952196901
20
-88.023870258845704
10
-38.227300985232723
20
-79.453068090082454
10
-31.09650762906595
20
-67.699465167226109
10
-26.77174758616696
20
-60.571013991886645
42
-0.26213631105088137
10
-25.06182913574337
20
-59.608404416373737
10
25.061830857615632
20
-59.60840439870033
42
-0.26213631384531444
10
26.771749351764239
20
-60.571013965236908
10
31.096509401932614
20
-67.699465136597496
10
43.427122339935799
20
-88.023869532145071
42
0.39481752489577199
10
46.058204496895257
20
-88.761712819216285
42
0.03301761545275305
10
57.341921969041138
20
-81.92620978035805
42
0.46636517952996293
0
CIRCLE
5
101
100
AcDbEntity
8
0
100
AcDbCircle
10
-81.270544109353992
20
-24.901780192745328
30
0
40
1.5999999999999943
210
0
220
0
230
1
0
LWPOLYLINE
5
102
100
AcDbEntity
8
0
100
AcDbPolyline
90
8
70
1
43
0.0
10
-72.495105253658338
20
-13.333169582320599
42
-0.091194273761085048
10
-72.495103621089584
20
13.333151695337389
42
0.40878341282451758
10
-74.063870672743306
20
15.654870182708054
42
-0.091871602013183826
10
-77.443013278421233
20
17.019020717432618
42
0.52854017485982741
10
-80.480010599262727
20
15.715198800759991
42
0.096720813488369098
10
-80.480015728471983
20
-15.715199296861416
42
0.5285390264979527
10
-77.44302489069355
20
-17.019026061139698
42
-0.0918715358862668
10
-74.063879512314543
20
-15.654889284217093
42
0.40878444340378417
0
LWPOLYLINE
5
103
100
AcDbEntity
8
0
100
AcDbPolyline
90
8
70
1
43
0.0
10
72.495106579229684
20
-13.333169582320581
42
0.091194273761085284
10
72.495104946660817
20
13.333151695337435
42
-0.40878341282452935
10
74.063871998314596
20
15.654870182708081
42
0.091871602013187115
10
77.443014603992594
20
17.019020717432589
42
-0.5285401748598203
10
80.480011924834059
20
15.715198800760021
42
-0.096720813488370277
10
80.48001705404323
20
-15.715199296861616
42
-0.52853902649799611
10
77.443026216264911
20
-17.019026061139712
42
0.091871535886267272
10
74.063880837885819
20
-15.654889284217111
42
-0.40878444340378778
0
CIRCLE
5
104
100
AcDbEntity
8
0
100
AcDbCircle
10
46.844550611788982
20
-82.647371875816717
30
0
40
1.5999999999999943
210
0
220
0
230
1
0
CIRCLE
5
105
100
AcDbEntity
8
0
100
AcDbCircle
10
18.067771513052694
20
78.315132662877502
30
0
40
1.5999999999999992
210
0
220
0
230
1
0
LWPOLYLINE
5
106
100
AcDbEntity
8
0
100
AcDbPolyline
90
3
70
1
43
0.0
10
14.067798191040088
20
78.315132662877502
10
14.067798191040099
20
78.30052365238673
42
-0.0018261324009997179
10
14.067798191040099
20
78.32974167336819
0
CIRCLE
5
107
100
AcDbEntity
8
0
100
AcDbCircle
10
81.270544109353992
20
-24.901780192745328
30
0
40
1.5999999999999943
210
0
220
0
230
1
0
CIRCLE
5
108
100
AcDbEntity
8
0
100
AcDbCircle
10
81.270543526268057
20
24.901782095729992
30
0
40
1.5999999999999943
210
0
220
0
230
1
0
CIRCLE
5
109
100
AcDbEntity
8
0
100
AcDbCircle
10
-46.844549277173471
20
-82.64737263227714
30
0
40
1.5999999999999943
210
0
220
0
230
1
0
CIRCLE
5
110
100
AcDbEntity
8
0
100
AcDbCircle
10
-81.270543526268057
20
24.901782095729992
30
0
40
1.5999999999999943
210
0
220
0
230
1
0
CIRCLE
5
111
100
AcDbEntity
8
0
100
AcDbCircle
10
-18.067784852046479
20
78.315132662877502
30
0
40
1.6000000000000034
210
0
220
0
230
1
0
LWPOLYLINE
5
112
100
AcDbEntity
8
0
100
AcDbPolyline
90
9
70
1
43
0.0
10
-24.669479473347625
20
78.201130314811138
42
0.040401660566049678
10
-36.924489923495614
20
73.21599581983206
42
0.51082990354999203
10
-37.438104613292623
20
70.016024704486142
10
-32.474689818568507
20
65.052620841427796
42
-0.20868960532203212
10
-29.552798278081344
20
57.606153434867231
42
0.56429448108229596
10
-26.690293122690186
20
55.727287074313274
42
-0.014946297466661079
10
-23.313180815481903
20
57.222354651855184
42
0.30493567955905815
10
-22.067784852046422
20
59.074535190571794
10
-22.067784852046461
20
76.293785672986459
42
0.50682706380034548
0
CIRCLE
5
113
100
AcDbEntity
8
0
100
AcDbCircle
10
-35.05111301249385
20
39.387964822942727
30
2.7755575615628914e-16
40
1.4999999999999991
210
0
220
0
230
1
0
CIRCLE
5
114
100
AcDbEntity
8
0
100
AcDbCircle
10
-54.850102885717106
20
19.588974949719219
30
2.7755575615628914e-16
40
1.5000000000000027
210
0
220
0
230
1
0
CIRCLE
5
115
100
AcDbEntity
8
0
100
AcDbCircle
10
-54.850102885717106
20
-19.588974931965378
30
2.7755575615628914e-16
40
1.5000000000000036
210
0
220
0
230
1
0
CIRCLE
5
116
100
AcDbEntity
8
0
100
AcDbCircle
10
-35.051113012493516
20
-39.387964805189156
30
2.7755575615628914e-16
40
1.5000000000000022
210
0
220
0
230
1
0
CIRCLE
5
117
100
AcDbEntity
8
0
100
AcDbCircle
10
35.05111645623704
20
-39.387964805188901
30
2.7755575615628914e-16
40
1.4999999999999982
210
0
220
0
230
1
0
CIRCLE
5
118
100
AcDbEntity
8
0
100
AcDbCircle
10
54.850106329460296
20
-19.588974931965375
30
2.7755575615628914e-16
40
1.5000000000000004
210
0
220
0
230
1
0
CIRCLE
5
119
100
AcDbEntity
8
0
100
AcDbCircle
10
35.051116456237054
20
39.387964822942735
30
2.7755575615628914e-16
40
1.4999999999999993
210
0
220
0
230
1
0
CIRCLE
5
120
100
AcDbEntity
8
0
100
AcDbCircle
10
54.850106329459976
20
19.588974949719475
30
2.7755575615628914e-16
40
1.5000000000000036
210
0
220
0
230
1
0
ENDSEC
0
SECTION
2
OBJECTS
0
DICTIONARY
5
C
100
AcDbDictionary
3
ACAD_GROUP
350
D
3
ACAD_MLINESTYLE
350
17
0
DICTIONARY
5
D
100
AcDbDictionary
0
DICTIONARY
5
1A
330
C
100
AcDbDictionary
0
DICTIONARY
5
17
100
AcDbDictionary
0
ENDSEC
0
EOF
