0
SECTION
2
HEADER
9
$INSUNITS
70
4
9
$ACADVER
1
AC1014
9
$HANDSEED
5
FFFF
0
ENDSEC
0
SECTION
2
TABLES
0
TABLE
2
VPORT
5
8
100
AcDbSymbolTable
0
ENDTAB
0
TABLE
2
LTYPE
5
5
100
AcDbSymbolTable
0
LTYPE
5
14
100
AcDbSymbolTableRecord
100
AcDbLinetypeTableRecord
2
BYBLOCK
70
0
0
LTYPE
5
15
100
AcDbSymbolTableRecord
100
AcDbLinetypeTableRecord
2
BYLAYER
70
0
0
ENDTAB
0
TABLE
2
LAYER
5
2
100
AcDbSymbolTable
70
2
0
LAYER
5
50
100
AcDbSymbolTableRecord
100
AcDbLayerTableRecord
2
0
70
0
6
CONTINUOUS
0
ENDTAB
0
TABLE
2
STYLE
5
3
100
AcDbSymbolTable
70
1
0
STYLE
5
11
100
AcDbSymbolTableRecord
100
AcDbTextStyleTableRecord
2
STANDARD
70
0
0
ENDTAB
0
TABLE
2
VIEW
5
6
100
AcDbSymbolTable
70
0
0
ENDTAB
0
TABLE
2
UCS
5
7
100
AcDbSymbolTable
70
0
0
ENDTAB
0
TABLE
2
APPID
5
9
100
AcDbSymbolTable
70
2
0
APPID
5
12
100
AcDbSymbolTableRecord
100
AcDbRegAppTableRecord
2
ACAD
70
0
0
ENDTAB
0
TABLE
2
DIMSTYLE
5
A
100
AcDbSymbolTable
70
1
0
ENDTAB
0
TABLE
2
BLOCK_RECORD
5
1
100
AcDbSymbolTable
70
1
0
BLOCK_RECORD
5
1F
100
AcDbSymbolTableRecord
100
AcDbBlockTableRecord
2
*MODEL_SPACE
0
BLOCK_RECORD
5
1B
100
AcDbSymbolTableRecord
100
AcDbBlockTableRecord
2
*PAPER_SPACE
0
ENDTAB
0
ENDSEC
0
SECTION
2
BLOCKS
0
BLOCK
5
20
100
AcDbEntity
100
AcDbBlockBegin
2
*MODEL_SPACE
0
ENDBLK
5
21
100
AcDbEntity
100
AcDbBlockEnd
0
BLOCK
5
1C
100
AcDbEntity
100
AcDbBlockBegin
2
*PAPER_SPACE
0
ENDBLK
5
1D
100
AcDbEntity
100
AcDbBlockEnd
0
ENDSEC
0
SECTION
2
ENTITIES
0
LWPOLYLINE
5
100
100
AcDbEntity
8
0
100
AcDbPolyline
90
54
70
1
43
0.0
10
25.061830857615632
20
-59.60840439870033
10
6.6278674992759079e-07
20
-59.608404415561864
10
-25.06182913574337
20
-59.608404416373737
42
0.26213631105087454
10
-26.77174758616696
20
-60.571013991886645
10
-31.09650762906595
20
-67.699465167226109
10
-38.227300985232723
20
-79.453068090082454
10
-43.427120952196887
20
-88.023870258845704
42
-0.39481752700198536
10
-46.058203472061862
20
-88.761714116651419
42
-0.033017616068182515
10
-57.341921325381058
20
-81.926211060403659
42
-0.46636607269410385
10
-57.609296461245911
20
-78.873473276821755
10
-38.131581269307368
20
-59.395758084902894
42
0.41421356237314838
10
-38.131581269306224
20
-56.567330960156433
10
-70.658493203874983
20
-24.04041902556548
42
0.41421356237318108
10
-73.486920328621551
20
-24.040419025565054
10
-81.193003302545392
20
-31.746501999488189
42
-0.54769627649881203
10
-84.484653611848444
20
-31.021658628867669
42
-0.17779023951274919
10
-84.48464690559652
20
31.021676892725949
42
-0.54769577136941072
10
-81.192998637680986
20
31.746521749840113
10
-73.48687378316049
20
24.040417518416128
42
0.41421317045297068
10
-70.658448550773528
20
24.040419410773922
10
-38.131536281215858
20
56.567331680353881
42
0.41421388491450495
10
-38.131537838585245
20
59.39576036246671
10
-50.416130692579983
20
71.680326160277374
42
-0.47249777641738594
10
-50.115598657748066
20
74.755780854563497
42
-0.1020919891897368
10
-16.432961780502072
20
88.487048584075566
42
-0.46907589691412704
10
-14.067784852046481
20
86.520669726651661
10
-14.067784852046472
20
78.315132662877502
10
-14.067784852046445
20
67.898159650486321
42
0.46672283651936947
10
-11.717802495841276
20
65.929019647757968
42
-0.088175915291645868
10
11.717815447985538
20
65.929017345724887
42
0.46672289633186664
10
14.067798191040071
20
67.898157279697088
10
14.067798191040088
20
78.315132662877502
10
14.067798191040104
20
86.520667249461297
42
-0.46907594393757901
10
16.432975422654721
20
88.487046050585406
42
-0.10209198768417185
10
50.115609737379543
20
74.755773426877766
42
-0.47249739430752558
10
50.416143083232669
20
71.68032045515065
10
38.1315829906791
20
59.395760362592931
42
0.4142135623921267
10
38.131582989680048
20
56.567333236599609
10
70.658494951217435
20
24.040421328976734
42
0.41421355348343425
10
73.486921969939914
20
24.040421383305393
10
81.193003055902153
20
31.746502503512129
42
-0.54769628842594853
10
84.484654790195478
20
31.021659533593258
42
-0.17779018236891508
10
84.484656460236636
20
-31.021658213363917
42
-0.54769955695371864
10
81.1929786588978
20
-31.746525846327639
10
73.486898901003343
20
-24.040442174680052
42
0.41420713088408578
10
70.658661012205769
20
-24.040585112399672
10
38.131520076328165
20
-56.5672680456818
42
0.41421463185735014
10
38.131575981978422
20
-59.395765093728485
10
57.609289748731456
20
-78.873480293221263
42
-0.46636517952997419
10
57.341921969041245
20
-81.926209780357965
42
-0.033017615452751975
10
46.058204496895286
20
-88.761712819216271
42
-0.39481752489577665
10
43.427122339935799
20
-88.023869532145071
10
31.096509401932614
20
-67.699465136597496
10
26.771749351764239
20
-60.571013965236901
42
0.26213631384531449
0
CIRCLE
5
101
100
AcDbEntity
8
0
100
AcDbCircle
10
-81.270543526268057
20
24.901782095729992
30
0
40
1.5999999999999943
210
0
220
0
230
1
0
CIRCLE
5
102
100
AcDbEntity
8
0
100
AcDbCircle
10
81.270544109353992
20
-24.901780192745328
30
0
40
1.5999999999999943
210
0
220
0
230
1
0
CIRCLE
5
103
100
AcDbEntity
8
0
100
AcDbCircle
10
-81.270544109353992
20
-24.901780192745328
30
0
40
1.5999999999999943
210
0
220
0
230
1
0
CIRCLE
5
104
100
AcDbEntity
8
0
100
AcDbCircle
10
81.270543526268057
20
24.901782095729992
30
0
40
1.5999999999999943
210
0
220
0
230
1
0
LWPOLYLINE
5
105
100
AcDbEntity
8
0
100
AcDbPolyline
90
8
70
1
43
0.0
10
-77.443013278420125
20
17.019034099228211
42
0.5285401748598314
10
-80.480010599261618
20
15.715212182555584
42
0.096720813488371832
10
-80.480015728470917
20
-15.715185915065851
42
0.52853902649794693
10
-77.44302489069247
20
-17.019012679344101
42
-0.091871535886266759
10
-74.06387951231342
20
-15.654875902421495
42
0.40878444340378578
10
-72.495105253657272
20
-13.333156200524998
42
-0.091194273761086145
10
-72.495103621088489
20
13.333165077132954
42
0.40878341282452352
10
-74.063870672742198
20
15.65488356450366
42
-0.091871602013185297
0
CIRCLE
5
106
100
AcDbEntity
8
0
100
AcDbCircle
10
-46.844549277173471
20
-82.64737263227714
30
0
40
1.5999999999999943
210
0
220
0
230
1
0
ARC
5
107
100
AcDbEntity
8
0
100
AcDbCircle
10
18.067771513052694
20
78.315132662877502
30
0
40
3.9999999999999929
210
0
220
0
230
1
100
AcDbArc
50
179.79074087378714
51
180.20925912621286
0
CIRCLE
5
108
100
AcDbEntity
8
0
100
AcDbCircle
10
46.844550611788982
20
-82.647371875816717
30
0
40
1.5999999999999943
210
0
220
0
230
1
0
CIRCLE
5
109
100
AcDbEntity
8
0
100
AcDbCircle
10
-18.067784852046479
20
78.315132662877502
30
0
40
1.6000000000000034
210
0
220
0
230
1
0
CIRCLE
5
110
100
AcDbEntity
8
0
100
AcDbCircle
10
18.067771513052694
20
78.315132662877502
30
0
40
1.5999999999999992
210
0
220
0
230
1
0
LWPOLYLINE
5
111
100
AcDbEntity
8
0
100
AcDbPolyline
90
8
70
1
43
0.0
10
77.443026216266006
20
-17.019012679344112
42
0.091871535886269229
10
74.063880837886956
20
-15.654875902421505
42
-0.40878444340378894
10
72.495106579230807
20
-13.33315620052498
42
0.091194273761085798
10
72.495104946661996
20
13.333165077133017
42
-0.40878341282453029
10
74.063871998315705
20
15.654883564503688
42
0.091871602013186088
10
77.443014603993632
20
17.019034099228193
42
-0.52854017485982552
10
80.480011924835097
20
15.71521218255562
42
-0.096720813488371499
10
80.480017054044339
20
-15.715185915065913
42
-0.52853902649799889
0
CIRCLE
5
112
100
AcDbEntity
8
0
100
AcDbCircle
10
18.067771513052719
20
26.684869759683298
30
-1.4999999984102054e-15
40
1.6000000000000003
210
0
220
-6.1288399999999999e-10
230
1
0
CIRCLE
5
113
100
AcDbEntity
8
0
100
AcDbCircle
10
-28.939194835371488
20
38.182559349427756
30
-7.2000000000000002e-15
40
1.5000000000000113
210
0
220
0
230
1
0
CIRCLE
5
114
100
AcDbEntity
8
0
100
AcDbCircle
10
-52.273718614527588
20
14.848035570271691
30
-4.3999999999999997e-15
40
1.5000000000000113
210
0
220
0
230
1
0
CIRCLE
5
115
100
AcDbEntity
8
0
100
AcDbCircle
10
52.273672072435097
20
14.84803384540891
30
1.3000000000000002e-15
40
1.5000000000000113
210
0
220
0
230
1
0
CIRCLE
5
116
100
AcDbEntity
8
0
100
AcDbCircle
10
-18.067784852046479
20
26.684869759683313
30
0
40
1.6000000000000003
210
0
220
0
230
1
0
CIRCLE
5
117
100
AcDbEntity
8
0
100
AcDbCircle
10
28.939193113874811
20
-38.182552226740491
30
-6.9999999999999994e-15
40
1.5000000000000113
210
0
220
0
230
1
0
CIRCLE
5
118
100
AcDbEntity
8
0
100
AcDbCircle
10
-18.067784852046479
20
26.684869759683313
30
-1.4999999984102054e-15
40
1.6000000000000003
210
0
220
-6.1288399999999999e-10
230
1
0
CIRCLE
5
119
100
AcDbEntity
8
0
100
AcDbCircle
10
28.939148293279061
20
38.182557624565007
30
-7.2000000000000002e-15
40
1.5000000000000113
210
0
220
0
230
1
0
CIRCLE
5
120
100
AcDbEntity
8
0
100
AcDbCircle
10
52.27371689303083
20
-14.848028447584429
30
-1.3000000000000002e-15
40
1.5000000000000113
210
0
220
0
230
1
0
CIRCLE
5
121
100
AcDbEntity
8
0
100
AcDbCircle
10
-28.939194835371556
20
-38.182552226740533
30
-6.9999999999999994e-15
40
1.5000000000000113
210
0
220
0
230
1
0
CIRCLE
5
122
100
AcDbEntity
8
0
100
AcDbCircle
10
-52.273718614527652
20
-14.848028447584438
30
-9.7999999999999999e-15
40
1.5000000000000113
210
0
220
0
230
1
0
CIRCLE
5
123
100
AcDbEntity
8
0
100
AcDbCircle
10
18.067771513052719
20
26.684869759683298
30
0
40
1.6000000000000003
210
0
220
0
230
1
0
ENDSEC
0
SECTION
2
OBJECTS
0
DICTIONARY
5
C
100
AcDbDictionary
3
ACAD_GROUP
350
D
3
ACAD_MLINESTYLE
350
17
0
DICTIONARY
5
D
100
AcDbDictionary
0
DICTIONARY
5
1A
330
C
100
AcDbDictionary
0
DICTIONARY
5
17
100
AcDbDictionary
0
ENDSEC
0
EOF
