0
SECTION
2
HEADER
9
$INSUNITS
70
4
9
$ACADVER
1
AC1014
9
$HANDSEED
5
FFFF
0
ENDSEC
0
SECTION
2
TABLES
0
TABLE
2
VPORT
5
8
100
AcDbSymbolTable
0
ENDTAB
0
TABLE
2
LTYPE
5
5
100
AcDbSymbolTable
0
LTYPE
5
14
100
AcDbSymbolTableRecord
100
AcDbLinetypeTableRecord
2
BYBLOCK
70
0
0
LTYPE
5
15
100
AcDbSymbolTableRecord
100
AcDbLinetypeTableRecord
2
BYLAYER
70
0
0
ENDTAB
0
TABLE
2
LAYER
5
2
100
AcDbSymbolTable
70
2
0
LAYER
5
50
100
AcDbSymbolTableRecord
100
AcDbLayerTableRecord
2
0
70
0
6
CONTINUOUS
0
ENDTAB
0
TABLE
2
STYLE
5
3
100
AcDbSymbolTable
70
1
0
STYLE
5
11
100
AcDbSymbolTableRecord
100
AcDbTextStyleTableRecord
2
STANDARD
70
0
0
ENDTAB
0
TABLE
2
VIEW
5
6
100
AcDbSymbolTable
70
0
0
ENDTAB
0
TABLE
2
UCS
5
7
100
AcDbSymbolTable
70
0
0
ENDTAB
0
TABLE
2
APPID
5
9
100
AcDbSymbolTable
70
2
0
APPID
5
12
100
AcDbSymbolTableRecord
100
AcDbRegAppTableRecord
2
ACAD
70
0
0
ENDTAB
0
TABLE
2
DIMSTYLE
5
A
100
AcDbSymbolTable
70
1
0
ENDTAB
0
TABLE
2
BLOCK_RECORD
5
1
100
AcDbSymbolTable
70
1
0
BLOCK_RECORD
5
1F
100
AcDbSymbolTableRecord
100
AcDbBlockTableRecord
2
*MODEL_SPACE
0
BLOCK_RECORD
5
1B
100
AcDbSymbolTableRecord
100
AcDbBlockTableRecord
2
*PAPER_SPACE
0
ENDTAB
0
ENDSEC
0
SECTION
2
BLOCKS
0
BLOCK
5
20
100
AcDbEntity
100
AcDbBlockBegin
2
*MODEL_SPACE
0
ENDBLK
5
21
100
AcDbEntity
100
AcDbBlockEnd
0
BLOCK
5
1C
100
AcDbEntity
100
AcDbBlockBegin
2
*PAPER_SPACE
0
ENDBLK
5
1D
100
AcDbEntity
100
AcDbBlockEnd
0
ENDSEC
0
SECTION
2
ENTITIES
0
LWPOLYLINE
5
100
100
AcDbEntity
8
0
100
AcDbPolyline
90
43
70
1
43
0.0
10
57.609289567504163
20
-78.873480474448655
10
38.131575875205534
20
-59.395765200482685
42
-0.41421464352285814
10
38.131520051892437
20
-56.567268021247614
10
70.658661013392376
20
-24.040585113586566
42
-0.41420713083817623
10
73.486898900837971
20
-24.040442174845502
10
81.192978658718403
20
-31.74652584650703
42
0.54769955697715711
10
84.484656460253603
20
-31.021658213370177
42
0.17779018236892466
10
84.484654790205013
20
31.021659533596782
42
0.54769628842593798
10
81.193003055902139
20
31.746502503512136
10
73.486921969939914
20
24.040421383305393
42
-0.41421355348343292
10
70.658494951217435
20
24.040421328976734
10
38.131582989680048
20
56.567333236599602
42
-0.41421356239212953
10
38.131582990679092
20
59.395760362592931
10
50.416143083232683
20
71.68032045515065
42
0.4724973943075168
10
50.115609737379607
20
74.755773426877795
42
0.30418116479617774
10
-50.115598657748137
20
74.755780854563483
42
0.47249777641738305
10
-50.416130692579983
20
71.680326160277374
10
-38.131537838585245
20
59.39576036246671
42
-0.41421388491450817
10
-38.131536281215851
20
56.567331680353888
10
-70.658448550773528
20
24.040419410773922
42
-0.41421317045297068
10
-73.48687378316049
20
24.040417518416135
10
-81.192998637680986
20
31.74652174984012
42
0.54769577136941294
10
-84.484646905596534
20
31.021676892725981
42
0.17779023951274778
10
-84.484653611848444
20
-31.02165862886773
42
0.54769627649881136
10
-81.193003302545378
20
-31.74650199948822
10
-73.486920328621579
20
-24.040419025565054
42
-0.4142135623731889
10
-70.658493203874983
20
-24.04041902556548
10
-38.131581269306224
20
-56.567330960156433
42
-0.41421356237314561
10
-38.131581269307368
20
-59.395758084902894
10
-57.609296461245904
20
-78.873473276821755
42
0.46636607269435532
10
-57.341921325360012
20
-81.926211060373575
42
0.033017616068175756
10
-46.058203472044426
20
-88.761714116617924
42
0.39481752696971034
10
-43.427120952597413
20
-88.023870258602713
10
-38.227300985600714
20
-79.453068089859201
10
-31.096507629410045
20
-67.699465167017351
10
-26.771747586497003
20
-60.571013991686414
42
-0.26213631106471241
10
-25.06182913574337
20
-59.608404413811257
10
25.061830857615632
20
-59.608404432048573
42
-0.26213630842447716
10
26.771749267306383
20
-60.571014016476639
10
31.09650930452462
20
-67.699465195693989
10
43.427122192084937
20
-88.023869621844696
42
0.3948175373401373
10
46.058205101681608
20
-88.761713984738435
42
0.033017616074492821
10
57.341920989374373
20
-81.926208380659801
42
0.46636515795112232
0
CIRCLE
5
101
100
AcDbEntity
8
0
100
AcDbCircle
10
-81.270544109353992
20
-24.901780192745328
30
0
40
1.5999999999999943
210
0
220
0
230
1
0
CIRCLE
5
102
100
AcDbEntity
8
0
100
AcDbCircle
10
46.844550611788982
20
-82.647371875816717
30
0
40
1.5999999999999943
210
0
220
0
230
1
0
CIRCLE
5
103
100
AcDbEntity
8
0
100
AcDbCircle
10
81.270544109353992
20
-24.901780192745328
30
0
40
1.5999999999999943
210
0
220
0
230
1
0
LWPOLYLINE
5
104
100
AcDbEntity
8
0
100
AcDbPolyline
90
8
70
1
43
0.0
10
80.360942078516899
20
16.313146989566039
42
-0.10047425021978397
10
80.360968571075873
20
-16.313043246511683
42
-0.51706863734492969
10
77.375563908327436
20
-17.632311422389975
10
61.866712047721045
20
-8.3713200386698396
42
-0.29240334229082005
10
60.903194281483167
20
-6.4437415916110297
42
0.052754612764594325
10
60.903185778629229
20
6.4438219560531724
42
-0.29240334229104131
10
61.866701001343046
20
8.3714016745152815
10
77.375535796079731
20
17.63241062931931
42
-0.51706854087904819
0
CIRCLE
5
105
100
AcDbEntity
8
0
100
AcDbCircle
10
81.270543526268057
20
24.901782095729992
30
0
40
1.5999999999999943
210
0
220
0
230
1
0
CIRCLE
5
106
100
AcDbEntity
8
0
100
AcDbCircle
10
-46.844549277173471
20
-82.64737263227714
30
0
40
1.5999999999999943
210
0
220
0
230
1
0
CIRCLE
5
107
100
AcDbEntity
8
0
100
AcDbCircle
10
-81.270543526268057
20
24.901782095729992
30
0
40
1.5999999999999943
210
0
220
0
230
1
0
CIRCLE
5
108
100
AcDbEntity
8
0
100
AcDbCircle
10
-35.05111301249385
20
39.387964822942727
30
2.7755575615628914e-16
40
1.4999999999999991
210
0
220
0
230
1
0
CIRCLE
5
109
100
AcDbEntity
8
0
100
AcDbCircle
10
-54.850102885717106
20
19.588974949719219
30
2.7755575615628914e-16
40
1.5000000000000027
210
0
220
0
230
1
0
CIRCLE
5
110
100
AcDbEntity
8
0
100
AcDbCircle
10
-54.850102885717106
20
-19.588974931965378
30
2.7755575615628914e-16
40
1.5000000000000036
210
0
220
0
230
1
0
CIRCLE
5
111
100
AcDbEntity
8
0
100
AcDbCircle
10
-35.051113012493516
20
-39.387964805189156
30
2.7755575615628914e-16
40
1.5000000000000022
210
0
220
0
230
1
0
CIRCLE
5
112
100
AcDbEntity
8
0
100
AcDbCircle
10
35.05111645623704
20
-39.387964805188901
30
2.7755575615628914e-16
40
1.4999999999999982
210
0
220
0
230
1
0
CIRCLE
5
113
100
AcDbEntity
8
0
100
AcDbCircle
10
54.850106329460296
20
-19.588974931965375
30
2.7755575615628914e-16
40
1.5000000000000004
210
0
220
0
230
1
0
CIRCLE
5
114
100
AcDbEntity
8
0
100
AcDbCircle
10
35.051116456237054
20
39.387964822942735
30
2.7755575615628914e-16
40
1.4999999999999993
210
0
220
0
230
1
0
CIRCLE
5
115
100
AcDbEntity
8
0
100
AcDbCircle
10
54.850106329459976
20
19.588974949719475
30
2.7755575615628914e-16
40
1.5000000000000036
210
0
220
0
230
1
0
CIRCLE
5
116
100
AcDbEntity
8
0
100
AcDbCircle
10
-6.5567993279363569e-09
20
-24.709621023841066
30
0
40
1.6000000000000019
210
0
220
0
230
1
0
LWPOLYLINE
5
117
100
AcDbEntity
8
0
100
AcDbPolyline
90
8
70
1
43
0.0
10
-37.438104613291351
20
70.016024704484863
10
-24.777350260145255
20
57.3552982359992
42
0.29944209646400372
10
-22.624302610196303
20
56.910986549433169
42
-0.19148146583109305
10
22.624346457795788
20
56.91097017224331
42
0.29944259365149595
10
24.777397010455353
20
57.355282881351364
10
37.438128918631023
20
70.016014789531297
42
0.51082945601160235
10
36.924513240164096
20
73.215984060701771
42
0.23789109354029681
10
-36.924489923494377
20
73.215995819830809
42
0.5108299035499817
0
LWPOLYLINE
5
118
100
AcDbEntity
8
0
100
AcDbPolyline
90
8
70
1
43
0.0
10
-77.375559062736428
20
17.632308528941245
42
0.51706854087904908
10
-80.360963604345628
20
16.313040949816504
42
0.10047425021978387
10
-80.360947045236898
20
-16.313149286267731
42
0.51706863734493069
10
-77.375540641659683
20
-17.632413522774428
10
-61.866701001345071
20
-8.3714016744622235
42
0.29240334229082099
10
-60.903185778631077
20
-6.4438219560018508
42
-0.052754612764594574
10
-60.9031942814741
20
6.443741591662441
42
0.29240334229104287
10
-61.866712047711793
20
8.3713200387228994
0
CIRCLE
5
119
100
AcDbEntity
8
0
100
AcDbCircle
10
-44.335155417654093
20
72.52167134127761
30
0
40
1.6000000000000025
210
0
220
0
230
1
0
CIRCLE
5
120
100
AcDbEntity
8
0
100
AcDbCircle
10
44.335059722140343
20
72.52172984336768
30
0
40
1.6000000000000025
210
0
220
0
230
1
0
ENDSEC
0
SECTION
2
OBJECTS
0
DICTIONARY
5
C
100
AcDbDictionary
3
ACAD_GROUP
350
D
3
ACAD_MLINESTYLE
350
17
0
DICTIONARY
5
D
100
AcDbDictionary
0
DICTIONARY
5
1A
330
C
100
AcDbDictionary
0
DICTIONARY
5
17
100
AcDbDictionary
0
ENDSEC
0
EOF
