0
SECTION
2
HEADER
9
$INSUNITS
70
4
9
$ACADVER
1
AC1014
9
$HANDSEED
5
FFFF
0
ENDSEC
0
SECTION
2
TABLES
0
TABLE
2
VPORT
5
8
100
AcDbSymbolTable
0
ENDTAB
0
TABLE
2
LTYPE
5
5
100
AcDbSymbolTable
0
LTYPE
5
14
100
AcDbSymbolTableRecord
100
AcDbLinetypeTableRecord
2
BYBLOCK
70
0
0
LTYPE
5
15
100
AcDbSymbolTableRecord
100
AcDbLinetypeTableRecord
2
BYLAYER
70
0
0
ENDTAB
0
TABLE
2
LAYER
5
2
100
AcDbSymbolTable
70
2
0
LAYER
5
50
100
AcDbSymbolTableRecord
100
AcDbLayerTableRecord
2
0
70
0
6
CONTINUOUS
0
ENDTAB
0
TABLE
2
STYLE
5
3
100
AcDbSymbolTable
70
1
0
STYLE
5
11
100
AcDbSymbolTableRecord
100
AcDbTextStyleTableRecord
2
STANDARD
70
0
0
ENDTAB
0
TABLE
2
VIEW
5
6
100
AcDbSymbolTable
70
0
0
ENDTAB
0
TABLE
2
UCS
5
7
100
AcDbSymbolTable
70
0
0
ENDTAB
0
TABLE
2
APPID
5
9
100
AcDbSymbolTable
70
2
0
APPID
5
12
100
AcDbSymbolTableRecord
100
AcDbRegAppTableRecord
2
ACAD
70
0
0
ENDTAB
0
TABLE
2
DIMSTYLE
5
A
100
AcDbSymbolTable
70
1
0
ENDTAB
0
TABLE
2
BLOCK_RECORD
5
1
100
AcDbSymbolTable
70
1
0
BLOCK_RECORD
5
1F
100
AcDbSymbolTableRecord
100
AcDbBlockTableRecord
2
*MODEL_SPACE
0
BLOCK_RECORD
5
1B
100
AcDbSymbolTableRecord
100
AcDbBlockTableRecord
2
*PAPER_SPACE
0
ENDTAB
0
ENDSEC
0
SECTION
2
BLOCKS
0
BLOCK
5
20
100
AcDbEntity
100
AcDbBlockBegin
2
*MODEL_SPACE
0
ENDBLK
5
21
100
AcDbEntity
100
AcDbBlockEnd
0
BLOCK
5
1C
100
AcDbEntity
100
AcDbBlockBegin
2
*PAPER_SPACE
0
ENDBLK
5
1D
100
AcDbEntity
100
AcDbBlockEnd
0
ENDSEC
0
SECTION
2
ENTITIES
0
CIRCLE
5
100
100
AcDbEntity
8
0
100
AcDbCircle
10
81.270543526268057
20
24.901782095730042
30
0
40
1.5000000000000036
210
0
220
0
230
1
0
CIRCLE
5
101
100
AcDbEntity
8
0
100
AcDbCircle
10
-81.270544109353992
20
-24.901780192745328
30
0
40
1.5000000000000022
210
0
220
0
230
1
0
CIRCLE
5
102
100
AcDbEntity
8
0
100
AcDbCircle
10
81.270544109353992
20
-24.901780192745328
30
0
40
1.5000000000000002
210
0
220
0
230
1
0
CIRCLE
5
103
100
AcDbEntity
8
0
100
AcDbCircle
10
28.257462549701664
20
-27.245480965329733
30
-0.00030000000003060001
40
1.6000000000000012
210
0
220
0
230
1
0
CIRCLE
5
104
100
AcDbEntity
8
0
100
AcDbCircle
10
-28.257462549701664
20
27.245480965329733
30
-0.00030000000003060001
40
1.6000000000000023
210
0
220
0
230
1
0
CIRCLE
5
105
100
AcDbEntity
8
0
100
AcDbCircle
10
28.257462549701721
20
27.245480965329733
30
-0.00029999999999109997
40
1.6000000000000012
210
0
220
0
230
1
0
CIRCLE
5
106
100
AcDbEntity
8
0
100
AcDbCircle
10
28.257462549701721
20
27.245480965329733
30
-0.00029999999999109997
40
1.6000000000000012
210
0
220
0
230
1
0
CIRCLE
5
107
100
AcDbEntity
8
0
100
AcDbCircle
10
28.257462549701664
20
-27.245480965329723
30
-0.00030000000003060001
40
1.6000000000000023
210
0
220
0
230
1
0
CIRCLE
5
108
100
AcDbEntity
8
0
100
AcDbCircle
10
28.257462549701721
20
27.245480965329733
30
-0.00029999999999109997
40
1.6000000000000048
210
0
220
0
230
1
0
CIRCLE
5
109
100
AcDbEntity
8
0
100
AcDbCircle
10
-28.2574625497017
20
-27.245480965329708
30
-0.00030000000003060001
40
1.6000000000000012
210
0
220
0
230
1
0
CIRCLE
5
110
100
AcDbEntity
8
0
100
AcDbCircle
10
0
20
0
30
0
40
1.5000000000000002
210
0
220
0
230
1
0
CIRCLE
5
111
100
AcDbEntity
8
0
100
AcDbCircle
10
-81.270543526268057
20
24.901782095730042
30
0
40
1.499999999999998
210
0
220
0
230
1
0
ARC
5
112
100
AcDbEntity
8
0
100
AcDbCircle
10
-51.866667013962072
20
10.901782095730027
30
0
40
10
210
0
220
0
230
1
100
AcDbArc
50
-11.870128263949368
51
89.999999999999929
0
ARC
5
113
100
AcDbEntity
8
0
100
AcDbCircle
10
-81.27054409743954
20
-24.901780192745328
30
0
40
3.9999999999999991
210
0
220
0
230
1
100
AcDbArc
50
90.000000170661338
51
270.00000017066094
0
LINE
5
114
100
AcDbEntity
8
0
100
AcDbLine
10
-51.866667013962058
20
20.901782095730027
30
0
11
-52.888100241332374
21
20.901782095730042
31
0
0
LINE
5
115
100
AcDbEntity
8
0
100
AcDbLine
10
-81.270543526268057
20
28.901782095730052
30
0
11
-42.342665832187969
21
28.901782095730052
31
0
0
LINE
5
116
100
AcDbEntity
8
0
100
AcDbLine
10
-21.100947846009138
20
41.000000000000043
30
0
11
21.100947846009149
21
41.000000000000043
31
0
0
CIRCLE
5
117
100
AcDbEntity
8
0
100
AcDbCircle
10
-28.2574625497017
20
-27.245480965329708
30
-0.00030000000003060001
40
1.6000000000000012
210
0
220
0
230
1
0
ARC
5
118
100
AcDbEntity
8
0
100
AcDbCircle
10
-2.8400000000000004e-14
20
-1.3300000000000001e-14
30
0
40
42.999999999999979
210
0
220
0
230
1
100
AcDbArc
50
168.12987173605055
51
191.8701261617708
0
ARC
5
119
100
AcDbEntity
8
0
100
AcDbCircle
10
-42.342665806752578
20
-38.901779960844102
30
0
40
10.000000000000082
210
0
220
-0
230
1
100
AcDbArc
50
42.574845186908028
51
90.000000341322448
0
LINE
5
120
100
AcDbEntity
8
0
100
AcDbLine
10
-52.888100633593069
20
-20.901780192745328
30
0
11
-51.866667413947731
21
-20.901780192745321
31
0
0
ARC
5
121
100
AcDbEntity
8
0
100
AcDbCircle
10
-51.866667413947731
20
-10.901780192745312
30
0
40
10
210
0
220
0
230
1
100
AcDbArc
50
-90
51
11.87012616177139
0
LINE
5
122
100
AcDbEntity
8
0
100
AcDbLine
10
-52.888100241332374
20
20.901782095730042
30
0
11
-81.270543526268057
21
20.901782095730042
31
0
0
LINE
5
123
100
AcDbEntity
8
0
100
AcDbLine
10
-81.270544109353949
20
-20.901780192745328
30
0
11
-52.888100633593069
21
-20.901780192745328
31
0
0
ARC
5
124
100
AcDbEntity
8
0
100
AcDbCircle
10
-81.270543526268057
20
24.901782095730042
30
0
40
4.000000000000008
210
0
220
-0
230
1
100
AcDbArc
50
90
51
270
0
ARC
5
125
100
AcDbEntity
8
0
100
AcDbCircle
10
-42.342665832187969
20
38.901782095730049
30
0
40
10
210
0
220
0
230
1
100
AcDbArc
50
270
51
317.42515485055418
0
ARC
5
126
100
AcDbEntity
8
0
100
AcDbCircle
10
1.0700000000000001e-14
20
-2.1300000000000001e-14
30
0
40
47.500000000000028
210
0
220
0
230
1
100
AcDbArc
50
124.24216870256632
51
137.42515485055424
0
LINE
5
127
100
AcDbEntity
8
0
100
AcDbLine
10
-42.34266586632458
20
-28.901779960844024
30
0
11
-81.27054408552516
21
-28.901780192745328
31
0
0
ARC
5
128
100
AcDbEntity
8
0
100
AcDbCircle
10
42.342665832188004
20
38.901782095730034
30
0
40
10.000000000000002
210
0
220
0
230
1
100
AcDbArc
50
222.57484514944568
51
269.99999999999989
0
ARC
5
129
100
AcDbEntity
8
0
100
AcDbCircle
10
81.270543526268057
20
24.901782095730042
30
0
40
3.9999999999999947
210
0
220
0
230
1
100
AcDbArc
50
-90
51
90
0
LINE
5
130
100
AcDbEntity
8
0
100
AcDbLine
10
52.888100241332353
20
20.901782095730042
30
0
11
51.866667013962072
21
20.901782095730042
31
0
0
ARC
5
131
100
AcDbEntity
8
0
100
AcDbCircle
10
51.866667013962058
20
10.90178209573004
30
0
40
9.9999999999999982
210
0
220
-0
230
1
100
AcDbArc
50
89.999999999999929
51
191.87012826394934
0
LINE
5
132
100
AcDbEntity
8
0
100
AcDbLine
10
81.270543526268057
20
20.901782095730045
30
0
11
52.888100241332353
21
20.901782095730042
31
0
0
ARC
5
133
100
AcDbEntity
8
0
100
AcDbCircle
10
51.866667413947724
20
-10.90178019274533
30
0
40
10.000000000000009
210
0
220
0
230
1
100
AcDbArc
50
168.12987383822912
51
270
0
LINE
5
134
100
AcDbEntity
8
0
100
AcDbLine
10
51.866667413947724
20
-20.901780192745338
30
0
11
52.888100633593069
21
-20.901780192745321
31
0
0
ARC
5
135
100
AcDbEntity
8
0
100
AcDbCircle
10
81.27054409743954
20
-24.901780192745328
30
0
40
3.9999999999999991
210
0
220
0
230
1
100
AcDbArc
50
-90.00000017066094
51
89.999999829338648
0
ARC
5
136
100
AcDbEntity
8
0
100
AcDbCircle
10
42.342665806752564
20
-38.901779960844003
30
0
40
9.9999999999999911
210
0
220
-0
230
1
100
AcDbArc
50
89.999999658677297
51
137.42515481309232
0
ARC
5
137
100
AcDbEntity
8
0
100
AcDbCircle
10
1.0700000000000001e-14
20
2.1300000000000001e-14
30
0
40
47.500000000000028
210
0
220
0
230
1
100
AcDbArc
50
222.57484514944574
51
235.75783129743357
0
LINE
5
138
100
AcDbEntity
8
0
100
AcDbLine
10
-21.100947846009209
20
-41
30
0
11
21.100947846009145
21
-41.000000000000043
31
0
0
ARC
5
139
100
AcDbEntity
8
0
100
AcDbCircle
10
0
20
7.100000000000001e-15
30
0
40
47.500000000000028
210
0
220
-0
230
1
100
AcDbArc
50
42.57484514944575
51
55.757831297433654
0
LINE
5
140
100
AcDbEntity
8
0
100
AcDbLine
10
42.34266583218799
20
28.901782095730034
30
0
11
81.270543526268057
21
28.901782095730034
31
0
0
ARC
5
141
100
AcDbEntity
8
0
100
AcDbCircle
10
0
20
3.0300000000000001e-14
30
0
40
43
210
0
220
0
230
1
100
AcDbArc
50
-11.870126161771015
51
11.870128263949411
0
LINE
5
142
100
AcDbEntity
8
0
100
AcDbLine
10
52.888100633593069
20
-20.901780192745321
30
0
11
81.270544109353949
21
-20.901780192745328
31
0
0
LINE
5
143
100
AcDbEntity
8
0
100
AcDbLine
10
81.27054408552516
20
-28.901780192745328
30
0
11
42.342665866324616
21
-28.90177996084401
31
0
0
ARC
5
144
100
AcDbEntity
8
0
100
AcDbCircle
10
0
20
-7.100000000000001e-15
30
0
40
47.5
210
0
220
0
230
1
100
AcDbArc
50
304.24216870256635
51
317.42515485055429
0
ARC
5
145
100
AcDbEntity
8
0
100
AcDbCircle
10
-21.100947846009198
20
-30.999999999999982
30
0
40
10.000000000000016
210
0
220
0
230
1
100
AcDbArc
50
235.75783129743346
51
269.99999999999994
0
ARC
5
146
100
AcDbEntity
8
0
100
AcDbCircle
10
21.100947846009149
20
-31.000000000000057
30
0
40
9.9999999999999822
210
0
220
0
230
1
100
AcDbArc
50
270
51
304.24216870256629
0
ARC
5
147
100
AcDbEntity
8
0
100
AcDbCircle
10
21.100947846009124
20
30.999999999999964
30
0
40
10.000000000000073
210
0
220
-0
230
1
100
AcDbArc
50
55.75783129743381
51
89.999999999999858
0
ARC
5
148
100
AcDbEntity
8
0
100
AcDbCircle
10
-21.100947846009124
20
31
30
0
40
10.000000000000039
210
0
220
0
230
1
100
AcDbArc
50
90.000000000000099
51
124.2421687025662
0
ENDSEC
0
SECTION
2
OBJECTS
0
DICTIONARY
5
C
100
AcDbDictionary
3
ACAD_GROUP
350
D
3
ACAD_MLINESTYLE
350
17
0
DICTIONARY
5
D
100
AcDbDictionary
0
DICTIONARY
5
1A
330
C
100
AcDbDictionary
0
DICTIONARY
5
17
100
AcDbDictionary
0
ENDSEC
0
EOF
