0
SECTION
2
HEADER
9
$INSUNITS
70
4
9
$ACADVER
1
AC1014
9
$HANDSEED
5
FFFF
0
ENDSEC
0
SECTION
2
TABLES
0
TABLE
2
VPORT
5
8
100
AcDbSymbolTable
0
ENDTAB
0
TABLE
2
LTYPE
5
5
100
AcDbSymbolTable
0
LTYPE
5
14
100
AcDbSymbolTableRecord
100
AcDbLinetypeTableRecord
2
BYBLOCK
70
0
0
LTYPE
5
15
100
AcDbSymbolTableRecord
100
AcDbLinetypeTableRecord
2
BYLAYER
70
0
0
ENDTAB
0
TABLE
2
LAYER
5
2
100
AcDbSymbolTable
70
2
0
LAYER
5
50
100
AcDbSymbolTableRecord
100
AcDbLayerTableRecord
2
0
70
0
6
CONTINUOUS
0
ENDTAB
0
TABLE
2
STYLE
5
3
100
AcDbSymbolTable
70
1
0
STYLE
5
11
100
AcDbSymbolTableRecord
100
AcDbTextStyleTableRecord
2
STANDARD
70
0
0
ENDTAB
0
TABLE
2
VIEW
5
6
100
AcDbSymbolTable
70
0
0
ENDTAB
0
TABLE
2
UCS
5
7
100
AcDbSymbolTable
70
0
0
ENDTAB
0
TABLE
2
APPID
5
9
100
AcDbSymbolTable
70
2
0
APPID
5
12
100
AcDbSymbolTableRecord
100
AcDbRegAppTableRecord
2
ACAD
70
0
0
ENDTAB
0
TABLE
2
DIMSTYLE
5
A
100
AcDbSymbolTable
70
1
0
ENDTAB
0
TABLE
2
BLOCK_RECORD
5
1
100
AcDbSymbolTable
70
1
0
BLOCK_RECORD
5
1F
100
AcDbSymbolTableRecord
100
AcDbBlockTableRecord
2
*MODEL_SPACE
0
BLOCK_RECORD
5
1B
100
AcDbSymbolTableRecord
100
AcDbBlockTableRecord
2
*PAPER_SPACE
0
ENDTAB
0
ENDSEC
0
SECTION
2
BLOCKS
0
BLOCK
5
20
100
AcDbEntity
100
AcDbBlockBegin
2
*MODEL_SPACE
0
ENDBLK
5
21
100
AcDbEntity
100
AcDbBlockEnd
0
BLOCK
5
1C
100
AcDbEntity
100
AcDbBlockBegin
2
*PAPER_SPACE
0
ENDBLK
5
1D
100
AcDbEntity
100
AcDbBlockEnd
0
ENDSEC
0
SECTION
2
ENTITIES
0
ARC
5
100
100
AcDbEntity
8
0
100
AcDbCircle
10
81.270543526268057
20
24.901782095730042
30
0
40
3.9999999999999991
210
0
220
0
230
1
100
AcDbArc
50
-90
51
90
0
CIRCLE
5
101
100
AcDbEntity
8
0
100
AcDbCircle
10
0
20
0
30
0
40
1.5000000000000002
210
0
220
0
230
1
0
ARC
5
102
100
AcDbEntity
8
0
100
AcDbCircle
10
-81.270543526268057
20
24.901782095730042
30
0
40
4.0000000000000036
210
0
220
-0
230
1
100
AcDbArc
50
90
51
270
0
CIRCLE
5
103
100
AcDbEntity
8
0
100
AcDbCircle
10
-81.270543526268057
20
24.901782095730042
30
0
40
1.4999999999999989
210
0
220
0
230
1
0
CIRCLE
5
104
100
AcDbEntity
8
0
100
AcDbCircle
10
81.270543526268057
20
24.901782095730042
30
0
40
1.5000000000000031
210
0
220
0
230
1
0
ARC
5
105
100
AcDbEntity
8
0
100
AcDbCircle
10
81.270544109353992
20
-24.901780192745328
30
0
40
3.9999999999999991
210
0
220
0
230
1
100
AcDbArc
50
-90.000000341322675
51
90
0
ARC
5
106
100
AcDbEntity
8
0
100
AcDbCircle
10
-81.270544109353992
20
-24.901780192745328
30
0
40
3.9999999999999991
210
0
220
-0
230
1
100
AcDbArc
50
90
51
270.00000034132268
0
CIRCLE
5
107
100
AcDbEntity
8
0
100
AcDbCircle
10
-81.270544109353992
20
-24.901780192745328
30
0
40
1.5000000000000027
210
0
220
0
230
1
0
CIRCLE
5
108
100
AcDbEntity
8
0
100
AcDbCircle
10
81.270544109353992
20
-24.901780192745328
30
0
40
1.5
210
0
220
0
230
1
0
ARC
5
109
100
AcDbEntity
8
0
100
AcDbCircle
10
0
20
0
30
0
40
47.500000000000014
210
0
220
-0
230
1
100
AcDbArc
50
42.574845149445721
51
56.200148953869764
0
ARC
5
110
100
AcDbEntity
8
0
100
AcDbCircle
10
0
20
0
30
0
40
47.500000000000007
210
0
220
0
230
1
100
AcDbArc
50
123.79985104613026
51
137.42515485055424
0
ARC
5
111
100
AcDbEntity
8
0
100
AcDbCircle
10
0
20
2.162571222097398e-06
30
0
40
47.500000000000028
210
-0
220
0
230
1
100
AcDbArc
50
303.79985104613024
51
317.42515481309215
0
ARC
5
112
100
AcDbEntity
8
0
100
AcDbCircle
10
0
20
2.162571222097398e-06
30
0
40
47.500000000000007
210
0
220
0
230
1
100
AcDbArc
50
222.57484518690785
51
236.20014895386976
0
LINE
5
113
100
AcDbEntity
8
0
100
AcDbLine
10
-42.34266586632458
20
-28.901779960844024
30
0
11
-81.270544085525174
21
-28.901780192745328
31
0
0
LINE
5
114
100
AcDbEntity
8
0
100
AcDbLine
10
-52.888100633593055
20
-20.901780192745328
30
0
11
-81.270544109353992
21
-20.901780192745328
31
0
0
LINE
5
115
100
AcDbEntity
8
0
100
AcDbLine
10
-19.748417658131473
20
-41.499997837428808
30
0
11
19.748417658131487
21
-41.499997837428815
31
0
0
LINE
5
116
100
AcDbEntity
8
0
100
AcDbLine
10
-52.888100241332367
20
20.901782095730034
30
0
11
-81.270543526268057
21
20.901782095730034
31
0
0
LINE
5
117
100
AcDbEntity
8
0
100
AcDbLine
10
-42.342665832187969
20
28.901782095730049
30
0
11
-81.270543526268057
21
28.901782095730034
31
0
0
LINE
5
118
100
AcDbEntity
8
0
100
AcDbLine
10
81.270543526268057
20
28.901782095730034
30
0
11
42.34266583218799
21
28.901782095730027
31
0
0
LINE
5
119
100
AcDbEntity
8
0
100
AcDbLine
10
81.270543526268057
20
20.901782095730042
30
0
11
52.888100241332353
21
20.901782095730034
31
0
0
LINE
5
120
100
AcDbEntity
8
0
100
AcDbLine
10
81.270544109353992
20
-20.901780192745328
30
0
11
52.888100633593055
21
-20.901780192745324
31
0
0
LINE
5
121
100
AcDbEntity
8
0
100
AcDbLine
10
42.342665866324623
20
-28.901779960844006
30
0
11
81.270544085525174
21
-28.901780192745328
31
0
0
LINE
5
122
100
AcDbEntity
8
0
100
AcDbLine
10
-19.748417658131466
20
41.500000000000028
30
0
11
19.748417658131473
21
41.500000000000043
31
0
0
ARC
5
123
100
AcDbEntity
8
0
100
AcDbCircle
10
-19.748417658131498
20
29.500000000000135
30
0
40
11.999999999999895
210
0
220
-0
230
1
100
AcDbArc
50
89.999999999999844
51
123.79985104613044
0
ARC
5
124
100
AcDbEntity
8
0
100
AcDbCircle
10
19.748417658131466
20
29.500000000000036
30
0
40
12.000000000000002
210
0
220
-0
230
1
100
AcDbArc
50
56.200148953869743
51
89.999999999999972
0
ARC
5
125
100
AcDbEntity
8
0
100
AcDbCircle
10
19.74841765813148
20
-29.499997837428815
30
0
40
12.000000000000002
210
0
220
0
230
1
100
AcDbArc
50
270
51
303.79985104613013
0
ARC
5
126
100
AcDbEntity
8
0
100
AcDbCircle
10
-19.748417658131494
20
-29.499997837428889
30
0
40
11.999999999999918
210
0
220
0
230
1
100
AcDbArc
50
236.20014895386964
51
270.00000000000011
0
ARC
5
127
100
AcDbEntity
8
0
100
AcDbCircle
10
-42.342665832187961
20
38.901782095730049
30
0
40
10
210
0
220
0
230
1
100
AcDbArc
50
269.99999999999994
51
317.42515485055418
0
ARC
5
128
100
AcDbEntity
8
0
100
AcDbCircle
10
42.342665832188004
20
38.901782095730042
30
0
40
10.000000000000018
210
0
220
0
230
1
100
AcDbArc
50
222.57484514944579
51
269.99999999999989
0
ARC
5
129
100
AcDbEntity
8
0
100
AcDbCircle
10
42.342665806752578
20
-38.901779960844003
30
0
40
9.9999999999999964
210
0
220
-0
230
1
100
AcDbArc
50
89.999999658677325
51
137.4251548130924
0
ARC
5
130
100
AcDbEntity
8
0
100
AcDbCircle
10
-42.342665806752571
20
-38.901779960844095
30
0
40
10.000000000000064
210
0
220
-0
230
1
100
AcDbArc
50
42.574845186908149
51
90.000000341322476
0
LINE
5
131
100
AcDbEntity
8
0
100
AcDbLine
10
-52.888100241332367
20
20.901782095730034
30
0
11
-51.866667013962058
21
20.901782095730034
31
0
0
LINE
5
132
100
AcDbEntity
8
0
100
AcDbLine
10
51.866667013962065
20
20.901782095730034
30
0
11
52.888100241332353
21
20.901782095730034
31
0
0
ARC
5
133
100
AcDbEntity
8
0
100
AcDbCircle
10
0
20
0
30
0
40
43
210
0
220
0
230
1
100
AcDbArc
50
-11.870126161770914
51
11.870128263949411
0
ARC
5
134
100
AcDbEntity
8
0
100
AcDbCircle
10
0
20
0
30
0
40
43
210
0
220
0
230
1
100
AcDbArc
50
168.1298717360506
51
191.87012616177091
0
LINE
5
135
100
AcDbEntity
8
0
100
AcDbLine
10
52.888100633593055
20
-20.901780192745324
30
0
11
51.866667413947724
21
-20.901780192745328
31
0
0
LINE
5
136
100
AcDbEntity
8
0
100
AcDbLine
10
-51.866667413947724
20
-20.901780192745328
30
0
11
-52.888100633593055
21
-20.901780192745328
31
0
0
ARC
5
137
100
AcDbEntity
8
0
100
AcDbCircle
10
-51.866667013962058
20
10.901782095730033
30
0
40
10
210
-0
220
0
230
1
100
AcDbArc
50
-11.870128263949422
51
90
0
ARC
5
138
100
AcDbEntity
8
0
100
AcDbCircle
10
51.866667013962065
20
10.901782095730034
30
0
40
9.9999999999999982
210
0
220
-0
230
1
100
AcDbArc
50
90
51
191.87012826394937
0
ARC
5
139
100
AcDbEntity
8
0
100
AcDbCircle
10
51.866667413947724
20
-10.901780192745328
30
0
40
10.000000000000009
210
0
220
0
230
1
100
AcDbArc
50
168.12987383822912
51
270
0
ARC
5
140
100
AcDbEntity
8
0
100
AcDbCircle
10
-51.866667413947724
20
-10.901780192745335
30
0
40
9.9999999999999964
210
0
220
0
230
1
100
AcDbArc
50
-90
51
11.870126161771019
0
ENDSEC
0
SECTION
2
OBJECTS
0
DICTIONARY
5
C
100
AcDbDictionary
3
ACAD_GROUP
350
D
3
ACAD_MLINESTYLE
350
17
0
DICTIONARY
5
D
100
AcDbDictionary
0
DICTIONARY
5
1A
330
C
100
AcDbDictionary
0
DICTIONARY
5
17
100
AcDbDictionary
0
ENDSEC
0
EOF
