0
SECTION
2
HEADER
9
$INSUNITS
70
4
9
$ACADVER
1
AC1014
9
$HANDSEED
5
FFFF
0
ENDSEC
0
SECTION
2
TABLES
0
TABLE
2
VPORT
5
8
100
AcDbSymbolTable
0
ENDTAB
0
TABLE
2
LTYPE
5
5
100
AcDbSymbolTable
0
LTYPE
5
14
100
AcDbSymbolTableRecord
100
AcDbLinetypeTableRecord
2
BYBLOCK
70
0
0
LTYPE
5
15
100
AcDbSymbolTableRecord
100
AcDbLinetypeTableRecord
2
BYLAYER
70
0
0
ENDTAB
0
TABLE
2
LAYER
5
2
100
AcDbSymbolTable
70
2
0
LAYER
5
50
100
AcDbSymbolTableRecord
100
AcDbLayerTableRecord
2
0
70
0
6
CONTINUOUS
0
ENDTAB
0
TABLE
2
STYLE
5
3
100
AcDbSymbolTable
70
1
0
STYLE
5
11
100
AcDbSymbolTableRecord
100
AcDbTextStyleTableRecord
2
STANDARD
70
0
0
ENDTAB
0
TABLE
2
VIEW
5
6
100
AcDbSymbolTable
70
0
0
ENDTAB
0
TABLE
2
UCS
5
7
100
AcDbSymbolTable
70
0
0
ENDTAB
0
TABLE
2
APPID
5
9
100
AcDbSymbolTable
70
2
0
APPID
5
12
100
AcDbSymbolTableRecord
100
AcDbRegAppTableRecord
2
ACAD
70
0
0
ENDTAB
0
TABLE
2
DIMSTYLE
5
A
100
AcDbSymbolTable
70
1
0
ENDTAB
0
TABLE
2
BLOCK_RECORD
5
1
100
AcDbSymbolTable
70
1
0
BLOCK_RECORD
5
1F
100
AcDbSymbolTableRecord
100
AcDbBlockTableRecord
2
*MODEL_SPACE
0
BLOCK_RECORD
5
1B
100
AcDbSymbolTableRecord
100
AcDbBlockTableRecord
2
*PAPER_SPACE
0
ENDTAB
0
ENDSEC
0
SECTION
2
BLOCKS
0
BLOCK
5
20
100
AcDbEntity
100
AcDbBlockBegin
2
*MODEL_SPACE
0
ENDBLK
5
21
100
AcDbEntity
100
AcDbBlockEnd
0
BLOCK
5
1C
100
AcDbEntity
100
AcDbBlockBegin
2
*PAPER_SPACE
0
ENDBLK
5
1D
100
AcDbEntity
100
AcDbBlockEnd
0
ENDSEC
0
SECTION
2
ENTITIES
0
CIRCLE
5
100
100
AcDbEntity
8
0
100
AcDbCircle
10
28.257462549701721
20
27.245480965329733
30
-0.00029999999999109997
40
1.6000000000000012
210
0
220
0
230
1
0
CIRCLE
5
101
100
AcDbEntity
8
0
100
AcDbCircle
10
28.257462549701664
20
-27.245480965329733
30
-0.00030000000003060001
40
1.6000000000000023
210
0
220
0
230
1
0
CIRCLE
5
102
100
AcDbEntity
8
0
100
AcDbCircle
10
28.257462549701721
20
27.245480965329733
30
-0.00029999999999109997
40
1.6000000000000041
210
0
220
0
230
1
0
CIRCLE
5
103
100
AcDbEntity
8
0
100
AcDbCircle
10
-81.270543526268057
20
24.901782095730042
30
0
40
1.499999999999998
210
0
220
0
230
1
0
CIRCLE
5
104
100
AcDbEntity
8
0
100
AcDbCircle
10
81.270544109353992
20
-24.901780192745328
30
0
40
1.5000000000000002
210
0
220
0
230
1
0
CIRCLE
5
105
100
AcDbEntity
8
0
100
AcDbCircle
10
-28.2574625497017
20
-27.245480965329708
30
-0.00030000000003060001
40
1.6000000000000012
210
0
220
0
230
1
0
CIRCLE
5
106
100
AcDbEntity
8
0
100
AcDbCircle
10
28.257462549701664
20
-27.245480965329733
30
-0.00030000000003060001
40
1.6000000000000012
210
0
220
0
230
1
0
CIRCLE
5
107
100
AcDbEntity
8
0
100
AcDbCircle
10
0
20
0
30
0
40
1.5000000000000002
210
0
220
0
230
1
0
CIRCLE
5
108
100
AcDbEntity
8
0
100
AcDbCircle
10
-81.270544109353992
20
-24.901780192745328
30
0
40
1.5000000000000022
210
0
220
0
230
1
0
CIRCLE
5
109
100
AcDbEntity
8
0
100
AcDbCircle
10
-28.2574625497017
20
-27.245480965329708
30
-0.00030000000003060001
40
1.6000000000000012
210
0
220
0
230
1
0
CIRCLE
5
110
100
AcDbEntity
8
0
100
AcDbCircle
10
81.270543526268057
20
24.901782095730042
30
0
40
1.5000000000000036
210
0
220
0
230
1
0
CIRCLE
5
111
100
AcDbEntity
8
0
100
AcDbCircle
10
28.257462549701721
20
27.245480965329733
30
-0.00029999999999109997
40
1.6000000000000012
210
0
220
0
230
1
0
CIRCLE
5
112
100
AcDbEntity
8
0
100
AcDbCircle
10
-28.257462549701664
20
27.245480965329733
30
-0.00030000000003060001
40
1.6000000000000023
210
0
220
0
230
1
0
ARC
5
113
100
AcDbEntity
8
0
100
AcDbCircle
10
81.27054409743954
20
-24.901780192745321
30
0
40
4.000000000000008
210
0
220
-0
230
-1
100
AcDbArc
50
-90.00000017066094
51
89.999999829339075
0
ARC
5
114
100
AcDbEntity
8
0
100
AcDbCircle
10
81.270543526268057
20
24.901782095730045
30
0
40
4.0000000000000036
210
-0
220
-0
230
-1
100
AcDbArc
50
-90
51
90
0
LINE
5
115
100
AcDbEntity
8
0
100
AcDbLine
10
-81.270544109353921
20
-20.901780192745314
30
0
11
-52.080503426422041
21
-20.901780192745264
31
0
0
ARC
5
116
100
AcDbEntity
8
0
100
AcDbCircle
10
-81.270543526268057
20
24.901782095730042
30
0
40
3.9999999999999947
210
0
220
0
230
-1
100
AcDbArc
50
90
51
270
0
ARC
5
117
100
AcDbEntity
8
0
100
AcDbCircle
10
-81.27054409743954
20
-24.901780192745321
30
0
40
3.9999999999999902
210
0
220
0
230
-1
100
AcDbArc
50
90.000000170661338
51
270.00000017066151
0
LINE
5
118
100
AcDbEntity
8
0
100
AcDbLine
10
-52.080503426422062
20
20.901782095730034
30
0
11
-81.270543526268057
21
20.901782095730042
31
0
0
LINE
5
119
100
AcDbEntity
8
0
100
AcDbLine
10
81.270543526268057
20
20.901782095730042
30
0
11
52.080503426422062
21
20.901782095730034
31
0
0
LINE
5
120
100
AcDbEntity
8
0
100
AcDbLine
10
52.080503426422034
20
-20.901780192745257
30
0
11
81.270544109353949
21
-20.901780192745328
31
0
0
LINE
5
121
100
AcDbEntity
8
0
100
AcDbLine
10
-52.080503426422041
20
-20.901780192745264
30
0
11
-51.080503426422048
21
-20.901780192745264
31
0
0
LINE
5
122
100
AcDbEntity
8
0
100
AcDbLine
10
-52.080503426422062
20
20.901782095730034
30
0
11
-51.080503426422069
21
20.901782095730034
31
0
0
LINE
5
123
100
AcDbEntity
8
0
100
AcDbLine
10
52.080503426422062
20
20.901782095730034
30
0
11
51.080503426422069
21
20.901782095730038
31
0
0
LINE
5
124
100
AcDbEntity
8
0
100
AcDbLine
10
52.080503426422034
20
-20.901780192745257
30
0
11
51.080503426422041
21
-20.901780192745253
31
0
0
LINE
5
125
100
AcDbEntity
8
0
100
AcDbLine
10
-39.080503426422062
20
9.5149238628763887e-07
30
0
11
-39.080503426422069
21
-10.901780192745269
31
0
0
LINE
5
126
100
AcDbEntity
8
0
100
AcDbLine
10
-51.080503426422048
20
-20.901780192745264
30
0
11
-49.080503426422069
21
-20.901780192745264
31
0
0
LINE
5
127
100
AcDbEntity
8
0
100
AcDbLine
10
-51.080503426422069
20
20.901782095730034
30
0
11
-49.080503426422069
21
20.901782095730034
31
0
0
LINE
5
128
100
AcDbEntity
8
0
100
AcDbLine
10
-39.080503426422062
20
9.5149238628763887e-07
30
0
11
-39.080503426422055
21
10.901782095730034
31
0
0
ARC
5
129
100
AcDbEntity
8
0
100
AcDbCircle
10
-49.080503426422069
20
10.901782095730033
30
0
40
10.000000000000018
210
0
220
-0
230
1
100
AcDbArc
50
0
51
90
0
ARC
5
130
100
AcDbEntity
8
0
100
AcDbCircle
10
-49.080503426422062
20
-10.901780192745266
30
0
40
9.9999999999999982
210
0
220
0
230
1
100
AcDbArc
50
269.99999999999994
51
360
0
LINE
5
131
100
AcDbEntity
8
0
100
AcDbLine
10
39.080503426422062
20
9.5149238850808492e-07
30
0
11
39.080503426422062
21
-10.901780192745248
31
0
0
LINE
5
132
100
AcDbEntity
8
0
100
AcDbLine
10
51.080503426422041
20
-20.901780192745253
30
0
11
49.080503426422027
21
-20.901780192745246
31
0
0
LINE
5
133
100
AcDbEntity
8
0
100
AcDbLine
10
51.080503426422069
20
20.901782095730038
30
0
11
49.080503426422112
21
20.901782095730045
31
0
0
LINE
5
134
100
AcDbEntity
8
0
100
AcDbLine
10
39.080503426422062
20
9.5149238850808492e-07
30
0
11
39.080503426422069
21
10.901782095730045
31
0
0
ARC
5
135
100
AcDbEntity
8
0
100
AcDbCircle
10
49.080503426422062
20
10.901782095730045
30
0
40
10
210
0
220
-0
230
1
100
AcDbArc
50
89.999999999999716
51
180
0
ARC
5
136
100
AcDbEntity
8
0
100
AcDbCircle
10
49.080503426422084
20
-10.901780192745228
30
0
40
10.000000000000018
210
0
220
0
230
1
100
AcDbArc
50
180
51
269.99999999999972
0
LINE
5
137
100
AcDbEntity
8
0
100
AcDbLine
10
-2.7908262448585396e-14
20
-37.000000000000021
30
0
11
25.204166322257073
21
-37.000000000000036
31
0
0
LINE
5
138
100
AcDbEntity
8
0
100
AcDbLine
10
-2.7908262448585396e-14
20
-37.000000000000021
30
0
11
-25.204166322257151
21
-37
31
0
0
ARC
5
139
100
AcDbEntity
8
0
100
AcDbCircle
10
0
20
0
30
0
40
47.500000000000014
210
0
220
0
230
1
100
AcDbArc
50
223.42660967557538
51
224.76699535209292
0
LINE
5
140
100
AcDbEntity
8
0
100
AcDbLine
10
-81.27054408552516
20
-28.901780192745328
30
0
11
-43.212201715075196
21
-28.901780192745324
31
0
0
LINE
5
141
100
AcDbEntity
8
0
100
AcDbLine
10
43.212201715075182
20
-28.901780192745314
30
0
11
81.270544085525117
21
-28.90178019274531
31
0
0
ARC
5
142
100
AcDbEntity
8
0
100
AcDbCircle
10
0
20
0
30
0
40
47.5
210
0
220
0
230
1
100
AcDbArc
50
315.23300464790697
51
316.57339032442462
0
ARC
5
143
100
AcDbEntity
8
0
100
AcDbCircle
10
0
20
0
30
0
40
47.5
210
0
220
-0
230
1
100
AcDbArc
50
43.426609675575413
51
44.766995352093048
0
ARC
5
144
100
AcDbEntity
8
0
100
AcDbCircle
10
0
20
0
30
0
40
47.5
210
0
220
0
230
1
100
AcDbArc
50
135.23300464790702
51
136.57339032442459
0
LINE
5
145
100
AcDbEntity
8
0
100
AcDbLine
10
-2.7908262448585396e-14
20
37.000000000000021
30
0
11
-25.20416632225713
21
37
31
0
0
LINE
5
146
100
AcDbEntity
8
0
100
AcDbLine
10
-2.7908262448585396e-14
20
37.000000000000021
30
0
11
25.204166322257073
21
37.000000000000036
31
0
0
LINE
5
147
100
AcDbEntity
8
0
100
AcDbLine
10
-81.27054408552516
20
28.901780192745328
30
0
11
-43.212201715075182
21
28.901780192745324
31
0
0
LINE
5
148
100
AcDbEntity
8
0
100
AcDbLine
10
43.212201715075182
20
28.901780192745314
30
0
11
81.270544085525117
21
28.90178019274531
31
0
0
ARC
5
149
100
AcDbEntity
8
0
100
AcDbCircle
10
-43.212201715075203
20
-40.901780192745321
30
0
40
11.999999999999995
210
0
220
-0
230
1
100
AcDbArc
50
43.426609675575413
51
89.999999999999972
0
ARC
5
150
100
AcDbEntity
8
0
100
AcDbCircle
10
43.212201715075189
20
-40.901780192745314
30
0
40
11.999999999999996
210
0
220
0
230
1
100
AcDbArc
50
90.000000000000043
51
136.57339032442468
0
ARC
5
151
100
AcDbEntity
8
0
100
AcDbCircle
10
25.20416632225707
20
-25
30
0
40
12.000000000000037
210
0
220
0
230
1
100
AcDbArc
50
270
51
315.2330046479068
0
ARC
5
152
100
AcDbEntity
8
0
100
AcDbCircle
10
-43.212201715075167
20
40.901780192745292
30
0
40
11.999999999999972
210
0
220
0
230
1
100
AcDbArc
50
269.99999999999989
51
316.57339032442462
0
ARC
5
153
100
AcDbEntity
8
0
100
AcDbCircle
10
-25.204166322257102
20
24.99999999999995
30
0
40
12.00000000000005
210
0
220
0
230
1
100
AcDbArc
50
90.000000000000142
51
135.23300464790691
0
ARC
5
154
100
AcDbEntity
8
0
100
AcDbCircle
10
25.20416632225707
20
25.000000000000004
30
0
40
12.00000000000003
210
0
220
-0
230
1
100
AcDbArc
50
44.766995352093112
51
89.999999999999986
0
ARC
5
155
100
AcDbEntity
8
0
100
AcDbCircle
10
43.212201715075182
20
40.901780192745285
30
0
40
11.999999999999968
210
0
220
0
230
1
100
AcDbArc
50
223.42660967557526
51
270
0
ARC
5
156
100
AcDbEntity
8
0
100
AcDbCircle
10
-25.204166322257123
20
-24.999999999999957
30
0
40
12.000000000000046
210
0
220
0
230
1
100
AcDbArc
50
224.76699535209295
51
269.99999999999983
0
ENDSEC
0
SECTION
2
OBJECTS
0
DICTIONARY
5
C
100
AcDbDictionary
3
ACAD_GROUP
350
D
3
ACAD_MLINESTYLE
350
17
0
DICTIONARY
5
D
100
AcDbDictionary
0
DICTIONARY
5
1A
330
C
100
AcDbDictionary
0
DICTIONARY
5
17
100
AcDbDictionary
0
ENDSEC
0
EOF
