0
SECTION
2
HEADER
9
$INSUNITS
70
4
9
$ACADVER
1
AC1014
9
$HANDSEED
5
FFFF
0
ENDSEC
0
SECTION
2
TABLES
0
TABLE
2
VPORT
5
8
100
AcDbSymbolTable
0
ENDTAB
0
TABLE
2
LTYPE
5
5
100
AcDbSymbolTable
0
LTYPE
5
14
100
AcDbSymbolTableRecord
100
AcDbLinetypeTableRecord
2
BYBLOCK
70
0
0
LTYPE
5
15
100
AcDbSymbolTableRecord
100
AcDbLinetypeTableRecord
2
BYLAYER
70
0
0
ENDTAB
0
TABLE
2
LAYER
5
2
100
AcDbSymbolTable
70
2
0
LAYER
5
50
100
AcDbSymbolTableRecord
100
AcDbLayerTableRecord
2
0
70
0
6
CONTINUOUS
0
ENDTAB
0
TABLE
2
STYLE
5
3
100
AcDbSymbolTable
70
1
0
STYLE
5
11
100
AcDbSymbolTableRecord
100
AcDbTextStyleTableRecord
2
STANDARD
70
0
0
ENDTAB
0
TABLE
2
VIEW
5
6
100
AcDbSymbolTable
70
0
0
ENDTAB
0
TABLE
2
UCS
5
7
100
AcDbSymbolTable
70
0
0
ENDTAB
0
TABLE
2
APPID
5
9
100
AcDbSymbolTable
70
2
0
APPID
5
12
100
AcDbSymbolTableRecord
100
AcDbRegAppTableRecord
2
ACAD
70
0
0
ENDTAB
0
TABLE
2
DIMSTYLE
5
A
100
AcDbSymbolTable
70
1
0
ENDTAB
0
TABLE
2
BLOCK_RECORD
5
1
100
AcDbSymbolTable
70
1
0
BLOCK_RECORD
5
1F
100
AcDbSymbolTableRecord
100
AcDbBlockTableRecord
2
*MODEL_SPACE
0
BLOCK_RECORD
5
1B
100
AcDbSymbolTableRecord
100
AcDbBlockTableRecord
2
*PAPER_SPACE
0
ENDTAB
0
ENDSEC
0
SECTION
2
BLOCKS
0
BLOCK
5
20
100
AcDbEntity
100
AcDbBlockBegin
2
*MODEL_SPACE
0
ENDBLK
5
21
100
AcDbEntity
100
AcDbBlockEnd
0
BLOCK
5
1C
100
AcDbEntity
100
AcDbBlockBegin
2
*PAPER_SPACE
0
ENDBLK
5
1D
100
AcDbEntity
100
AcDbBlockEnd
0
ENDSEC
0
SECTION
2
ENTITIES
0
LWPOLYLINE
5
100
100
AcDbEntity
8
0
100
AcDbPolyline
90
54
70
1
43
0.0
10
-81.193003302545392
20
-31.746501999488196
10
-73.486920328621551
20
-24.040419025565058
42
-0.41421356237317691
10
-70.658493203874983
20
-24.04041902556548
10
-38.131581269306224
20
-56.567330960156426
42
-0.41421356237314561
10
-38.131581269307368
20
-59.395758084902894
10
-57.609296461245904
20
-78.873473276821755
42
0.46636607269410296
10
-57.341921325381165
20
-81.926211060403574
42
0.033017616068181294
10
-46.058203472061862
20
-88.761714116651419
42
0.39481752700198769
10
-43.427120952196894
20
-88.023870258845704
10
-38.227300985232723
20
-79.453068090082454
10
-31.09650762906595
20
-67.699465167226109
10
-26.77174758616696
20
-60.571013991886645
42
-0.26213631105087171
10
-25.06182913574337
20
-59.60840441637373
10
6.6278674992759079e-07
20
-59.608404415561864
10
25.061830857615632
20
-59.60840439870033
42
-0.26213631384531472
10
26.771749351764242
20
-60.571013965236908
10
31.096509401932614
20
-67.699465136597496
10
43.427122339935792
20
-88.023869532145071
42
0.39481752489577665
10
46.058204496895314
20
-88.761712819216257
42
0.033017615452751531
10
57.341921969041252
20
-81.926209780357965
42
0.46636517952997381
10
57.609289748731463
20
-78.873480293221263
10
38.131575981978422
20
-59.395765093728492
42
-0.41421463185734919
10
38.131520076328172
20
-56.5672680456818
10
70.658661012205769
20
-24.040585112399672
42
-0.41420713088408578
10
73.486898901003343
20
-24.040442174680052
10
81.192978658897786
20
-31.746525846327639
42
0.54769955695372419
10
84.484656460236636
20
-31.021658213363928
42
0.17779018236891508
10
84.484654790195492
20
31.021659533593251
42
0.54769628842594653
10
81.193003055902139
20
31.746502503512133
10
73.486921969939914
20
24.040421383305389
42
-0.41421355348343197
10
70.658494951217435
20
24.040421328976734
10
38.131582989680048
20
56.567333236599609
42
-0.41421356239212626
10
38.1315829906791
20
59.395760362592931
10
50.416143083232676
20
71.68032045515065
42
0.47249739430752047
10
50.115609737379565
20
74.755773426877766
42
0.10209198768417196
10
16.432975422654724
20
88.48704605058542
42
0.46907594393757873
10
14.067798191040099
20
86.520667249461297
10
14.067798191040088
20
78.315132662877502
10
14.067798191040065
20
67.898157279697088
42
-0.46672289633186714
10
11.717815447985602
20
65.929017345724887
42
0.08817591529164677
10
-11.717802495841273
20
65.929019647757968
42
-0.46672283651936708
10
-14.06778485204644
20
67.898159650486321
10
-14.067784852046472
20
78.315132662877502
10
-14.067784852046483
20
86.520669726651661
42
0.46907589691413137
10
-16.432961780502062
20
88.487048584075552
42
0.1020919891897368
10
-50.115598657748073
20
74.755780854563497
42
0.47249777641738711
10
-50.416130692579983
20
71.680326160277374
10
-38.131537838585238
20
59.39576036246671
42
-0.41421388491450495
10
-38.131536281215851
20
56.567331680353881
10
-70.658448550773528
20
24.040419410773918
42
-0.41421317045297118
10
-73.48687378316049
20
24.040417518416128
10
-81.192998637680986
20
31.746521749840113
42
0.54769577136941316
10
-84.484646905596534
20
31.02167689272596
42
0.17779023951274886
10
-84.484653611848429
20
-31.02165862886768
42
0.54769627649881147
0
CIRCLE
5
101
100
AcDbEntity
8
0
100
AcDbCircle
10
-18.067784852046479
20
26.68486975968332
30
-1.4999999984102054e-15
40
1.6000000000000003
210
0
220
-6.1288399999999999e-10
230
1
0
CIRCLE
5
102
100
AcDbEntity
8
0
100
AcDbCircle
10
18.067771513052719
20
26.684869759683298
30
0
40
1.6000000000000003
210
0
220
0
230
1
0
LWPOLYLINE
5
103
100
AcDbEntity
8
0
100
AcDbPolyline
90
8
70
1
43
0.0
10
80.480010599262428
20
15.715212182555698
42
-0.096720813488372734
10
80.480015728471699
20
-15.71518591506601
42
-0.52853902649798912
10
77.44302489069338
20
-17.01901267934419
42
0.20143604204619553
10
69.810564137394806
20
-15.713856914167636
42
-0.54465214360915515
10
67.396400220761862
20
-13.376350708733842
42
0.098277871021737892
10
67.396402239442708
20
13.376340537658004
42
-0.54465079874234446
10
69.810558426410779
20
15.713848255761009
42
0.20143602097035854
10
77.443013278420949
20
17.019034099228275
42
-0.52854017485982541
0
LWPOLYLINE
5
104
100
AcDbEntity
8
0
100
AcDbPolyline
90
8
70
1
43
0.0
10
-80.480015728470903
20
-15.715185915066012
42
0.52853902649799178
10
-77.443024890692556
20
-17.01901267934419
42
-0.20143604204619578
10
-69.810564137393982
20
-15.713856914167636
42
0.5446521436091537
10
-67.396400220761024
20
-13.376350708733833
42
-0.098277871021737892
10
-67.396402239441898
20
13.376340537658004
42
0.54465079874234545
10
-69.810558426409955
20
15.713848255761011
42
-0.20143602097035843
10
-77.443013278420139
20
17.019034099228264
42
0.52854017485982407
10
-80.48001059926159
20
15.715212182555787
42
0.096720813488373511
0
CIRCLE
5
105
100
AcDbEntity
8
0
100
AcDbCircle
10
-52.273718614527596
20
14.848035570271691
30
-4.3999999999999997e-15
40
1.5000000000000113
210
0
220
0
230
1
0
CIRCLE
5
106
100
AcDbEntity
8
0
100
AcDbCircle
10
46.844550611788982
20
-82.647371875816717
30
0
40
1.5999999999999943
210
0
220
0
230
1
0
CIRCLE
5
107
100
AcDbEntity
8
0
100
AcDbCircle
10
18.067771513052694
20
78.315132662877502
30
0
40
1.5999999999999992
210
0
220
0
230
1
0
CIRCLE
5
108
100
AcDbEntity
8
0
100
AcDbCircle
10
18.067771513052719
20
26.684869759683298
30
-1.4999999984102054e-15
40
1.6000000000000003
210
0
220
-6.1288399999999999e-10
230
1
0
CIRCLE
5
109
100
AcDbEntity
8
0
100
AcDbCircle
10
-28.939194835371488
20
38.182559349427756
30
-7.2000000000000002e-15
40
1.5000000000000113
210
0
220
0
230
1
0
CIRCLE
5
110
100
AcDbEntity
8
0
100
AcDbCircle
10
52.273672072435104
20
14.84803384540891
30
1.3000000000000002e-15
40
1.5000000000000113
210
0
220
0
230
1
0
ARC
5
111
100
AcDbEntity
8
0
100
AcDbCircle
10
18.067771513052694
20
78.315132662877502
30
0
40
3.9999999999999929
210
0
220
0
230
1
100
AcDbArc
50
179.79074087378714
51
180.20925912621286
0
CIRCLE
5
112
100
AcDbEntity
8
0
100
AcDbCircle
10
28.939193113874811
20
-38.182552226740491
30
-6.9999999999999994e-15
40
1.5000000000000113
210
0
220
0
230
1
0
CIRCLE
5
113
100
AcDbEntity
8
0
100
AcDbCircle
10
28.939148293279061
20
38.182557624565007
30
-7.2000000000000002e-15
40
1.5000000000000113
210
0
220
0
230
1
0
CIRCLE
5
114
100
AcDbEntity
8
0
100
AcDbCircle
10
52.27371689303083
20
-14.848028447584429
30
-1.3000000000000002e-15
40
1.5000000000000113
210
0
220
0
230
1
0
LWPOLYLINE
5
115
100
AcDbEntity
8
0
100
AcDbPolyline
90
10
70
1
43
0.0
10
-32.474689818568393
20
65.052620841427768
42
-0.093849612948856284
10
-30.378920530031518
20
61.97769843499799
42
0.41881070782328444
10
-27.717694326408449
20
60.956311800122656
42
-0.019162822020222518
10
-22.969091869605144
20
62.899629138267727
42
0.38892253532842408
10
-21.723899946926739
20
65.298267099932374
42
-0.065847692072351222
10
-22.067784852046476
20
67.898159650486292
10
-22.067784852046497
20
76.293785672986417
42
0.50682706380034115
10
-24.669479473347671
20
78.201130314811053
42
0.040401660566047624
10
-36.924489923495557
20
73.215995819832017
42
0.51082990354998703
10
-37.438104613292545
20
70.016024704486099
0
CIRCLE
5
116
100
AcDbEntity
8
0
100
AcDbCircle
10
-81.270544109353992
20
-24.901780192745328
30
0
40
1.5999999999999943
210
0
220
0
230
1
0
CIRCLE
5
117
100
AcDbEntity
8
0
100
AcDbCircle
10
-46.844549277173471
20
-82.64737263227714
30
0
40
1.5999999999999943
210
0
220
0
230
1
0
CIRCLE
5
118
100
AcDbEntity
8
0
100
AcDbCircle
10
-81.270543526268057
20
24.901782095729992
30
0
40
1.5999999999999943
210
0
220
0
230
1
0
CIRCLE
5
119
100
AcDbEntity
8
0
100
AcDbCircle
10
-18.067784852046479
20
78.315132662877502
30
0
40
1.6000000000000034
210
0
220
0
230
1
0
CIRCLE
5
120
100
AcDbEntity
8
0
100
AcDbCircle
10
81.270543526268057
20
24.901782095729992
30
0
40
1.5999999999999943
210
0
220
0
230
1
0
CIRCLE
5
121
100
AcDbEntity
8
0
100
AcDbCircle
10
-52.273718614527652
20
-14.848028447584429
30
-9.7999999999999999e-15
40
1.5000000000000113
210
0
220
0
230
1
0
CIRCLE
5
122
100
AcDbEntity
8
0
100
AcDbCircle
10
-18.067784852046479
20
26.68486975968332
30
0
40
1.6000000000000003
210
0
220
0
230
1
0
CIRCLE
5
123
100
AcDbEntity
8
0
100
AcDbCircle
10
81.270544109353992
20
-24.901780192745328
30
0
40
1.5999999999999943
210
0
220
0
230
1
0
CIRCLE
5
124
100
AcDbEntity
8
0
100
AcDbCircle
10
-28.939194835371556
20
-38.182552226740533
30
-6.9999999999999994e-15
40
1.5000000000000113
210
0
220
0
230
1
0
ENDSEC
0
SECTION
2
OBJECTS
0
DICTIONARY
5
C
100
AcDbDictionary
3
ACAD_GROUP
350
D
3
ACAD_MLINESTYLE
350
17
0
DICTIONARY
5
D
100
AcDbDictionary
0
DICTIONARY
5
1A
330
C
100
AcDbDictionary
0
DICTIONARY
5
17
100
AcDbDictionary
0
ENDSEC
0
EOF
