0
SECTION
2
HEADER
9
$INSUNITS
70
4
9
$ACADVER
1
AC1014
9
$HANDSEED
5
FFFF
0
ENDSEC
0
SECTION
2
TABLES
0
TABLE
2
VPORT
5
8
100
AcDbSymbolTable
0
ENDTAB
0
TABLE
2
LTYPE
5
5
100
AcDbSymbolTable
0
LTYPE
5
14
100
AcDbSymbolTableRecord
100
AcDbLinetypeTableRecord
2
BYBLOCK
70
0
0
LTYPE
5
15
100
AcDbSymbolTableRecord
100
AcDbLinetypeTableRecord
2
BYLAYER
70
0
0
ENDTAB
0
TABLE
2
LAYER
5
2
100
AcDbSymbolTable
70
2
0
LAYER
5
50
100
AcDbSymbolTableRecord
100
AcDbLayerTableRecord
2
0
70
0
6
CONTINUOUS
0
ENDTAB
0
TABLE
2
STYLE
5
3
100
AcDbSymbolTable
70
1
0
STYLE
5
11
100
AcDbSymbolTableRecord
100
AcDbTextStyleTableRecord
2
STANDARD
70
0
0
ENDTAB
0
TABLE
2
VIEW
5
6
100
AcDbSymbolTable
70
0
0
ENDTAB
0
TABLE
2
UCS
5
7
100
AcDbSymbolTable
70
0
0
ENDTAB
0
TABLE
2
APPID
5
9
100
AcDbSymbolTable
70
2
0
APPID
5
12
100
AcDbSymbolTableRecord
100
AcDbRegAppTableRecord
2
ACAD
70
0
0
ENDTAB
0
TABLE
2
DIMSTYLE
5
A
100
AcDbSymbolTable
70
1
0
ENDTAB
0
TABLE
2
BLOCK_RECORD
5
1
100
AcDbSymbolTable
70
1
0
BLOCK_RECORD
5
1F
100
AcDbSymbolTableRecord
100
AcDbBlockTableRecord
2
*MODEL_SPACE
0
BLOCK_RECORD
5
1B
100
AcDbSymbolTableRecord
100
AcDbBlockTableRecord
2
*PAPER_SPACE
0
ENDTAB
0
ENDSEC
0
SECTION
2
BLOCKS
0
BLOCK
5
20
100
AcDbEntity
100
AcDbBlockBegin
2
*MODEL_SPACE
0
ENDBLK
5
21
100
AcDbEntity
100
AcDbBlockEnd
0
BLOCK
5
1C
100
AcDbEntity
100
AcDbBlockBegin
2
*PAPER_SPACE
0
ENDBLK
5
1D
100
AcDbEntity
100
AcDbBlockEnd
0
ENDSEC
0
SECTION
2
ENTITIES
0
LWPOLYLINE
5
100
100
AcDbEntity
8
0
100
AcDbPolyline
90
8
70
1
43
0.0
10
-80.480015728470846
20
-15.715185915066039
42
-0.096720813488373747
10
-80.480010599261533
20
15.715212182555751
42
-0.52854017485982108
10
-77.443013278420068
20
17.019034099228236
42
0.20143602097035809
10
-69.81055842640987
20
15.713848255760979
42
-0.54465079874234734
10
-67.396402239441812
20
13.376340537657985
42
0.09827787102173767
10
-67.396400220760967
20
-13.376350708733868
42
-0.5446521436091476
10
-69.810564137393925
20
-15.713856914167657
42
0.20143604204619428
10
-77.443024890692499
20
-17.019012679344222
42
-0.52853902649799278
0
LWPOLYLINE
5
101
100
AcDbEntity
8
0
100
AcDbPolyline
90
10
70
1
43
0.0
10
-22.067784852046479
20
67.898159650486321
10
-22.067784852046497
20
76.293785672986417
42
0.50682706380034315
10
-24.669479473347707
20
78.201130314811053
42
0.040401660566048513
10
-36.924489923495599
20
73.215995819832017
42
0.51082990354999391
10
-37.438104613292545
20
70.016024704486099
10
-32.4746898185684
20
65.052620841427768
42
-0.093849612948855618
10
-30.378920530031515
20
61.977698434997983
42
0.418810707823285
10
-27.71769432640836
20
60.956311800122691
42
-0.01916282202021519
10
-22.969091869605158
20
62.899629138267763
42
0.38892253532842697
10
-21.723899946926736
20
65.29826709993236
42
-0.065847692072352665
0
LWPOLYLINE
5
102
100
AcDbEntity
8
0
100
AcDbPolyline
90
53
70
1
43
0.0
10
-84.484653611848444
20
-31.021658628867741
42
-0.17779023951274842
10
-84.484646905596534
20
31.021676892725985
42
-0.54769577136941228
10
-81.192998637680986
20
31.74652174984012
10
-73.48687378316049
20
24.040417518416135
42
0.41421317045297118
10
-70.658448550773528
20
24.040419410773922
10
-38.131536281215844
20
56.567331680353888
42
0.41421388491450767
10
-38.131537838585245
20
59.39576036246671
10
-50.416130692579983
20
71.680326160277374
42
-0.47249777641738228
10
-50.115598657748144
20
74.755780854563469
42
-0.10209198918973658
10
-16.432961780502051
20
88.48704858407558
42
-0.46907589691413715
10
-14.06778485204649
20
86.520669726651661
10
-14.067784852046472
20
78.315132662877502
10
-14.06778485204644
20
67.898159650486321
42
0.46672283651936303
10
-11.717802495841372
20
65.929019647757968
42
-0.088175915291648227
10
11.717815447985586
20
65.92901734572493
42
0.46672289633186193
10
14.067798191040062
20
67.898157279697088
10
14.067798191040088
20
78.315132662877502
10
14.067798191040083
20
86.520667249461297
42
-0.46907594393757884
10
16.432975422654724
20
88.487046050585406
42
-0.10209198768417219
10
50.115609737379607
20
74.755773426877766
42
-0.47249739430751408
10
50.416143083232683
20
71.68032045515065
10
38.131582990679092
20
59.395760362592931
42
0.41421356239212764
10
38.131582989680048
20
56.567333236599602
10
70.658494951217435
20
24.040421328976734
42
0.41421355348343292
10
73.486921969939914
20
24.040421383305393
10
81.193003055902139
20
31.746502503512151
42
-0.54769628842593276
10
84.484654790195478
20
31.021659533593322
42
-0.17779018236891556
10
84.484656460236621
20
-31.021658213363953
42
-0.54769955695374783
10
81.192978658897786
20
-31.746525846327639
10
73.486898901003343
20
-24.040442174680052
42
0.41420713088408578
10
70.658661012205769
20
-24.040585112399672
10
38.131520076328172
20
-56.5672680456818
42
0.41421463185735563
10
38.131575981978422
20
-59.395765093728492
10
57.609289748731456
20
-78.873480293221277
42
-0.46636517952996598
10
57.341921969041067
20
-81.926209780358107
42
-0.033017615452752863
10
46.058204496895257
20
-88.761712819216271
42
-0.39481752489577199
10
43.427122339935799
20
-88.023869532145071
10
31.096509401932614
20
-67.699465136597496
10
26.771749351764239
20
-60.571013965236908
42
0.26213631384531472
10
25.061830857615632
20
-59.60840439870033
10
-25.06182913574337
20
-59.608404416373737
42
0.26213631105087454
10
-26.77174758616696
20
-60.571013991886645
10
-31.09650762906595
20
-67.699465167226109
10
-38.227300985232723
20
-79.453068090082454
10
-43.427120952196901
20
-88.023870258845704
42
-0.39481752700200212
10
-46.058203472061798
20
-88.761714116651405
42
-0.033017616068181072
10
-57.341921325381151
20
-81.926211060403546
42
-0.46636607269408975
10
-57.609296461245904
20
-78.873473276821755
10
-38.131581269307368
20
-59.395758084902901
42
0.41421356237314561
10
-38.131581269306224
20
-56.567330960156433
10
-70.658493203874983
20
-24.04041902556548
42
0.41421356237318613
10
-73.486920328621579
20
-24.040419025565054
10
-81.193003302545378
20
-31.74650199948822
42
-0.54769627649881136
0
CIRCLE
5
103
100
AcDbEntity
8
0
100
AcDbCircle
10
-18.067784852046479
20
78.315132662877502
30
0
40
1.6000000000000034
210
0
220
0
230
1
0
CIRCLE
5
104
100
AcDbEntity
8
0
100
AcDbCircle
10
-18.067784852046479
20
26.68486975968332
30
0
40
1.6000000000000003
210
0
220
0
230
1
0
CIRCLE
5
105
100
AcDbEntity
8
0
100
AcDbCircle
10
18.067771513052719
20
26.684869759683298
30
-1.4999999984102054e-15
40
1.6000000000000003
210
0
220
-6.1288399999999999e-10
230
1
0
CIRCLE
5
106
100
AcDbEntity
8
0
100
AcDbCircle
10
28.939148293279061
20
38.182557624565007
30
-7.2000000000000002e-15
40
1.5000000000000113
210
0
220
0
230
1
0
CIRCLE
5
107
100
AcDbEntity
8
0
100
AcDbCircle
10
-28.939194835371556
20
-38.182552226740533
30
-6.9999999999999994e-15
40
1.5000000000000113
210
0
220
0
230
1
0
CIRCLE
5
108
100
AcDbEntity
8
0
100
AcDbCircle
10
-52.273718614527652
20
-14.848028447584429
30
-9.7999999999999999e-15
40
1.5000000000000113
210
0
220
0
230
1
0
CIRCLE
5
109
100
AcDbEntity
8
0
100
AcDbCircle
10
52.27371689303083
20
-14.848028447584429
30
-1.3000000000000002e-15
40
1.5000000000000113
210
0
220
0
230
1
0
CIRCLE
5
110
100
AcDbEntity
8
0
100
AcDbCircle
10
-18.067784852046479
20
26.68486975968332
30
-1.4999999984102054e-15
40
1.6000000000000003
210
0
220
-6.1288399999999999e-10
230
1
0
CIRCLE
5
111
100
AcDbEntity
8
0
100
AcDbCircle
10
-52.273718614527596
20
14.848035570271691
30
-4.3999999999999997e-15
40
1.5000000000000113
210
0
220
0
230
1
0
CIRCLE
5
112
100
AcDbEntity
8
0
100
AcDbCircle
10
18.067771513052694
20
78.315132662877502
30
0
40
1.5999999999999992
210
0
220
0
230
1
0
CIRCLE
5
113
100
AcDbEntity
8
0
100
AcDbCircle
10
18.067771513052719
20
26.684869759683298
30
0
40
1.6000000000000003
210
0
220
0
230
1
0
CIRCLE
5
114
100
AcDbEntity
8
0
100
AcDbCircle
10
28.939193113874811
20
-38.182552226740491
30
-6.9999999999999994e-15
40
1.5000000000000113
210
0
220
0
230
1
0
ARC
5
115
100
AcDbEntity
8
0
100
AcDbCircle
10
18.067771513052694
20
78.315132662877502
30
0
40
3.9999999999999929
210
0
220
0
230
1
100
AcDbArc
50
179.79074087378714
51
180.20925912621286
0
CIRCLE
5
116
100
AcDbEntity
8
0
100
AcDbCircle
10
46.844550611788982
20
-82.647371875816717
30
0
40
1.5999999999999943
210
0
220
0
230
1
0
CIRCLE
5
117
100
AcDbEntity
8
0
100
AcDbCircle
10
-81.270544109353992
20
-24.901780192745328
30
0
40
1.5999999999999943
210
0
220
0
230
1
0
CIRCLE
5
118
100
AcDbEntity
8
0
100
AcDbCircle
10
-46.844549277173471
20
-82.64737263227714
30
0
40
1.5999999999999943
210
0
220
0
230
1
0
CIRCLE
5
119
100
AcDbEntity
8
0
100
AcDbCircle
10
-28.939194835371488
20
38.182559349427756
30
-7.2000000000000002e-15
40
1.5000000000000113
210
0
220
0
230
1
0
CIRCLE
5
120
100
AcDbEntity
8
0
100
AcDbCircle
10
81.270543526268057
20
24.901782095729992
30
0
40
1.5999999999999943
210
0
220
0
230
1
0
LWPOLYLINE
5
121
100
AcDbEntity
8
0
100
AcDbPolyline
90
8
70
1
43
0.0
10
77.443024890693465
20
-17.019012679344225
42
0.5285390264979889
10
80.480015728471813
20
-15.715185915065998
42
0.096720813488372179
10
80.480010599262485
20
15.715212182555675
42
0.52854017485982641
10
77.443013278421034
20
17.019034099228239
42
-0.20143602097035784
10
69.810558426410822
20
15.713848255760972
42
0.54465079874234557
10
67.396402239442764
20
13.376340537657986
42
-0.098277871021738003
10
67.396400220761933
20
-13.376350708733867
42
0.54465214360915792
10
69.810564137394891
20
-15.713856914167661
42
-0.20143604204619636
0
CIRCLE
5
122
100
AcDbEntity
8
0
100
AcDbCircle
10
-81.270543526268057
20
24.901782095729992
30
0
40
1.5999999999999943
210
0
220
0
230
1
0
CIRCLE
5
123
100
AcDbEntity
8
0
100
AcDbCircle
10
81.270544109353992
20
-24.901780192745328
30
0
40
1.5999999999999943
210
0
220
0
230
1
0
CIRCLE
5
124
100
AcDbEntity
8
0
100
AcDbCircle
10
52.273672072435104
20
14.84803384540891
30
1.3000000000000002e-15
40
1.5000000000000113
210
0
220
0
230
1
0
ENDSEC
0
SECTION
2
OBJECTS
0
DICTIONARY
5
C
100
AcDbDictionary
3
ACAD_GROUP
350
D
3
ACAD_MLINESTYLE
350
17
0
DICTIONARY
5
D
100
AcDbDictionary
0
DICTIONARY
5
1A
330
C
100
AcDbDictionary
0
DICTIONARY
5
17
100
AcDbDictionary
0
ENDSEC
0
EOF
